<?xml version="1.0" encoding="utf-8"?>
<!-- Generator: Adobe Illustrator 21.0.0, SVG Export Plug-In . SVG Version: 6.00 Build 0)  -->
<svg version="1.1" id="Layer_1" xmlns="http://www.w3.org/2000/svg" xmlns:xlink="http://www.w3.org/1999/xlink" x="0px" y="0px"
	 viewBox="0 0 100 125" style="enable-background:new 0 0 100 125;" xml:space="preserve">
<path d="M94.9,95.8l-8.7-10.2l-0.2,4l-9.5-4.7V51.4l0,0v-0.1v-0.1v-0.1V51v-0.1v-0.1l0,0l0,0c0,0,0-0.1-0.1-0.1c0,0,0-0.1-0.1-0.1
	c0,0,0,0-0.1-0.1c0,0,0,0-0.1-0.1L76,50.3c0,0,0,0-0.1-0.1c0,0,0,0-0.1-0.1c0,0-0.1,0-0.1-0.1c0,0-0.1,0-0.1-0.1l0,0l-24.1-12v-9.1
	l3.6,1.5L49.9,18l-5.2,12.3l3.6-1.5v9.1L24.2,50l0,0c0,0-0.1,0-0.1,0.1c0,0-0.1,0-0.1,0.1c0,0,0,0-0.1,0.1c0,0,0,0-0.1,0.1l-0.1,0.1
	c0,0,0,0-0.1,0.1c0,0,0,0-0.1,0.1c0,0,0,0.1-0.1,0.1c0,0,0,0.1-0.1,0.1l0,0l0,0V51v0.1v0.1v0.1v0.1v0.1l0,0v33.4l-9.4,4.6l-0.2-4
	L4.9,95.8l13.4-0.9l-3-2.6l9.7-4.8l24.3,12.1c0,0,0,0,0.1,0c0,0,0,0,0.1,0s0.2,0.1,0.2,0.1l0,0c0.1,0,0.2,0,0.3,0s0.2,0,0.3,0l0,0
	c0.1,0,0.2,0,0.2-0.1c0,0,0,0,0.1,0c0,0,0,0,0.1,0l24.2-12.1l9.7,4.8l-3,2.6L94.9,95.8z M51.5,64.9L73.4,54v29.3l-21.9-11V64.9z
	 M71.4,51.4l-19.9,10v-20L71.4,51.4z M48.3,61.4l-19.9-10l19.9-10V61.4z M26.5,53.9l21.9,10.9v7.4l-21.9,11V53.9z M48.3,75.8v19.9
	l-19.9-10L48.3,75.8z M51.5,95.7V75.8l19.9,10L51.5,95.7z"/>
</svg>
