<?xml version="1.0" encoding="utf-8"?>
<!-- Generator: Adobe Illustrator 21.0.0, SVG Export Plug-In . SVG Version: 6.00 Build 0)  -->
<svg version="1.1" id="Layer_1" xmlns="http://www.w3.org/2000/svg" xmlns:xlink="http://www.w3.org/1999/xlink" x="0px" y="0px"
	 viewBox="0 0 100 83.9" style="enable-background:new 0 0 100 83.9;" xml:space="preserve">
<style type="text/css">
	.st0{font-family:'CircularStd-Book';}
	.st1{font-size:3px;}
</style>
<path d="M59.3,39.4H35.5c-1.1,0-1.9,0.9-1.9,1.9v33.2c0,1.1,0.9,1.9,1.9,1.9h23.8c1.1,0,1.9-0.9,1.9-1.9V41.3
	C61.2,40.3,60.3,39.4,59.3,39.4z M59.4,74.4h-24v-0.8h24V74.4z M37.4,58.9c0-5.5,4.5-10,10-10c5.5,0,10,4.5,10,10
	c0,5.5-4.5,10-10,10C41.8,68.9,37.4,64.5,37.4,58.9z M59.5,46.5H35.2V41h24.4V46.5z M39.4,43.1h-1v1.3h1V43.1z M56.1,58.9
	c0-4.8-3.9-8.8-8.8-8.8c-4.9,0-8.8,3.9-8.8,8.8c0,4.8,3.9,8.8,8.8,8.8C52.2,67.7,56.1,63.8,56.1,58.9z M39.4,58.9c0-4.4,3.6-8,8-8
	c4.4,0,8,3.6,8,8c0,4.4-3.6,8-8,8C43,66.9,39.4,63.3,39.4,58.9z M52,55.2l-8.3,8.3l0.4,0.4l8.3-8.3L52,55.2z M56.3,45.3
	c0.9,0,1.7-0.7,1.7-1.7c0-0.9-0.7-1.7-1.7-1.7c-0.9,0-1.7,0.7-1.7,1.7C54.7,44.6,55.4,45.3,56.3,45.3z M41,43.1h-1v1.3h1V43.1z
	 M48.9,55.2l-6.7,6.7l0.4,0.4l6.7-6.7L48.9,55.2z M52,45.3c0.9,0,1.7-0.7,1.7-1.7c0-0.9-0.7-1.7-1.7-1.7c-0.9,0-1.7,0.7-1.7,1.7
	C50.4,44.6,51.1,45.3,52,45.3z M38,43.1h-1.1v1.3H38L38,43.1L38,43.1z"/>
<path d="M66.7,74.6c0,1.1,0.9,1.9,1.9,1.9h29.4c1.1,0,1.9-0.9,1.9-1.9V27.9H66.7V74.6z M69,31.5h8.6v1.9H69V31.5z M98.1,0H68.7
	c-1.1,0-1.9,0.9-1.9,1.9v23.6H100V1.9C100,0.9,99.1,0,98.1,0z M77.6,23H69v-1.9h8.6V23z"/>
<path d="M14.2,61.7l-0.4-0.4l-9.4,9.4l0.4,0.4L14.2,61.7z M26.5,57.3h-25c-0.7,0-1.3,0.5-1.4,1.2v17.2C0.1,76.5,0.7,77,1.4,77h25
	c0.7,0,1.3-0.5,1.4-1.2V58.5C27.8,57.8,27.2,57.3,26.5,57.3z M21.9,64H23v1.3h-1.1V64z M21.9,65.8H23v1.3h-1.1V65.8z M21.9,67.6H23
	v1.3h-1.1V67.6z M21.9,69.3H23v1.3h-1.1V69.3z M20.2,74.5H2.4V60h17.7V74.5z M26,74.5h-4.1v-1.6H26V74.5z M24.5,65.8v1.3h-1v-1.3
	H24.5z M23.5,65.4V64h1v1.3H23.5z M24.5,67.6v1.3h-1v-1.3H24.5z M24.5,69.3v1.3h-1v-1.3H24.5z M26,70.6h-1v-1.3h1V70.6z M26,68.9h-1
	v-1.3h1V68.9z M26,67.1h-1v-1.3h1V67.1z M26,65.4h-1V64h1V65.4z M26,63h-4.1v-3H26V63z M6.9,73.5l11.8-11.8l-0.4-0.4L6.4,73.1
	L6.9,73.5z"/>
<text transform="matrix(1.129 0 0 1 11.1672 73.287)" class="st0 st1">BETA</text>
</svg>
