<?xml version="1.0" encoding="utf-8"?>
<!-- Generator: Adobe Illustrator 21.0.0, SVG Export Plug-In . SVG Version: 6.00 Build 0)  -->
<svg version="1.1" id="Layer_1" xmlns="http://www.w3.org/2000/svg" xmlns:xlink="http://www.w3.org/1999/xlink" x="0px" y="0px"
	 viewBox="0 0 100 125" style="enable-background:new 0 0 100 125;" xml:space="preserve">
<g>
	<g>
		<g>
			<g>
				<path d="M16.2,76.5c-1.3,0-2.2-1-2.2-2.2V50.7c0-1.3,1-2.2,2.2-2.2s2.2,1,2.2,2.2v23.4C18.5,75.5,17.5,76.5,16.2,76.5z"/>
			</g>
		</g>
	</g>
	<g>
		<g>
			<g>
				<path d="M83.8,76.5c-1.3,0-2.2-1-2.2-2.2V50.7c0-1.3,1-2.2,2.2-2.2c1.3,0,2.2,1,2.2,2.2v23.4C86,75.5,85,76.5,83.8,76.5z"/>
			</g>
		</g>
	</g>
	<g>
		<g>
			<g>
				<path d="M30.6,89.6c-1.3,0-2.2-1-2.2-2.2V37.6c0-1.3,1-2.2,2.2-2.2s2.2,1,2.2,2.2v49.8C32.9,88.7,31.8,89.6,30.6,89.6z"/>
			</g>
		</g>
	</g>
	<g>
		<g>
			<g>
				<path d="M69.4,89.6c-1.3,0-2.2-1-2.2-2.2V37.6c0-1.3,1-2.2,2.2-2.2c1.2,0,2.2,1,2.2,2.2v49.8C71.6,88.7,70.6,89.6,69.4,89.6z"/>
			</g>
		</g>
	</g>
	<g>
		<g>
			<g>
				<path d="M50,98.5c-1.3,0-2.2-1-2.2-2.2V28.7c0-1.2,1-2.2,2.2-2.2s2.2,1,2.2,2.2v67.5C52.2,97.5,51.3,98.5,50,98.5z"/>
			</g>
		</g>
	</g>
</g>
</svg>
