<?xml version="1.0" encoding="utf-8"?>
<!-- Generator: Adobe Illustrator 21.0.0, SVG Export Plug-In . SVG Version: 6.00 Build 0)  -->
<svg version="1.1" id="Layer_1" xmlns="http://www.w3.org/2000/svg" xmlns:xlink="http://www.w3.org/1999/xlink" x="0px" y="0px"
	 viewBox="0 0 100 125" style="enable-background:new 0 0 100 125;" xml:space="preserve">
<g>
	<path d="M-225.9-71.2c0-1.1-0.9-1.9-1.9-1.9h-34.5c-1.1,0-1.9,0.9-1.9,1.9c0,1.1,0.9,1.9,1.9,1.9h34.5
		C-226.8-69.2-225.9-70.1-225.9-71.2z"/>
	<path d="M-214.4-44h-34.5c-1.1,0-1.9,0.9-1.9,1.9s0.9,1.9,1.9,1.9h34.5c1.1,0,1.9-0.9,1.9-1.9S-213.3-44-214.4-44z"/>
	<path d="M-219.2-56.6c0-1.1-0.9-1.9-1.9-1.9h-34.5c-1.1,0-1.9,0.9-1.9,1.9c0,1.1,0.9,1.9,1.9,1.9h34.5
		C-220.1-54.7-219.2-55.6-219.2-56.6z"/>
</g>
<g>
	<path d="M-230.1-61.1l1.9-1c-2-3.8-6.1-6-10.2-6c-1.8,0-3.6,0.4-5.2,1.3c-4.1,2.1-6.5,6.2-6.5,10.5c0,1.7,0.4,3.5,1.3,5.2
		c2,3.9,6.1,6.2,10.2,6.2c1.8,0,3.6-0.4,5.3-1.3c4.1-2.1,6.5-6.2,6.5-10.4c0-1.8-0.4-3.6-1.3-5.4L-230.1-61.1z M-235.3-50.2
		c-1,0.6-2.2,0.8-3.3,0.8c-2.6,0-5.2-1.4-6.4-3.8c-0.5-1-0.8-2.1-0.8-3.2c0-2.6,1.5-5.2,4.2-6.6c1-0.5,2.1-0.8,3.2-0.8
		c2.6,0,5.2,1.4,6.3,3.6l0,0c0.6,1.1,0.8,2.2,0.8,3.3C-231.2-54.2-232.6-51.7-235.3-50.2z"/>
	<path d="M-209-62.1c-0.1-0.4-0.1-0.8-0.4-1.3l0,0l-0.1-0.2v-0.1l-0.2-0.3l-0.2-0.3c-0.7-1.1-1.7-1.6-2.5-1.8
		c-0.8-0.2-1.6-0.2-2.3-0.2s-1.4,0-2,0h-0.5c-0.7,0-1.2-0.4-1.7-1.4c-0.3-0.5-0.6-1.3-0.5-1.9l0.3-1.2c0.4-0.7,0.8-1.7,1.2-2.6
		l0.5-1.4c0.1-0.5,0.3-0.8,0.3-1.5l-0.3-1.2l0,0l-0.3-0.6l-0.6-0.7c-0.5-0.4-1-0.7-1.7-1.1c-2.1-1.2-5.5-2.9-7.6-4.1
		c-0.6-0.3-1.3-0.7-2.3-0.7c-0.7,0-1.5,0.3-2,0.7l-1.1,1.2c-1.1,1.4-2.2,2.8-3.3,4.1l-0.3,0.1h-1.5h-1.3l-0.5-0.2
		c-1-1.2-2.1-2.6-3.1-3.9l-1.2-1.2c-0.5-0.4-1.2-0.6-1.9-0.6c-0.9,0-1.6,0.3-2.2,0.7c-2.9,1.6-5.7,3.3-8.6,5l-1.4,1.2
		c-0.4,0.5-0.7,1.4-0.7,2.1s0.2,1.3,0.4,1.8c0.7,1.6,1.3,3.3,2,5c-0.7,1-1.1,1.9-1.6,2.6l-0.4,0.3c-1.6,0.3-3.3,0.5-5.1,0.8
		c-0.8,0.2-1.8,0.3-2.8,1.3c-0.9,1.1-0.9,2.1-0.9,2.9c0,2.5-0.2,6.7-0.2,9v1.1v0.5l0.2,0.7l0,0v0.1v0.1l0.1,0.1l0,0l0,0l0,0l0,0l0,0
		l0.2,0.4c0.7,1.1,1.5,1.3,2.1,1.5c1.7,0.5,3.8,0.4,5.1,0.5l1,0.3l1,1.1c0.5,0.8,0.6,1.2,0.6,1.6c0,0.4-0.2,1-0.6,1.9
		c-0.3,0.7-0.8,1.5-1.1,2.4l-0.5,1.3c-0.1,0.4-0.3,0.8-0.3,1.4l0.3,1.2l0.3,0.6l1.9-1.1l-1.9,1.1l0.6,0.7c0.5,0.4,0.9,0.6,1.6,1
		c2,1.2,5.5,3,7.6,4.1c0.6,0.3,1.3,0.7,2.3,0.7c0.7,0,1.5-0.3,2-0.7l1.2-1.2c1.1-1.4,2.2-2.7,3.2-4l0.5-0.2h0.4h1.4l1.2-0.1
		c1.1,1.4,2.2,3,3.5,4.4l0.6,0.5l1.6,0.8c0.7,0.4,1.5,0.3,2.1,0l10.2-5.9c0.7-0.4,1.1-1.2,1.1-2l-0.1-2.1l-0.1-0.6
		c-0.6-1.7-1.3-3.2-1.8-4.7l0.1-0.4c0.4-0.8,0.9-1.7,1.4-2.5l0.3-0.2c1.7-0.3,3.5-0.6,5.4-0.8c0.8-0.1,1.8-0.3,2.7-1.2
		c0.8-1,0.9-2,0.9-2.8c0-2.3,0.4-6,0.4-8.5L-209-62.1z M-221.3-75.4L-221.3-75.4L-221.3-75.4L-221.3-75.4z M-264.9-52.5L-264.9-52.5
		L-264.9-52.5L-264.9-52.5z M-267.4-49.6L-267.4-49.6L-267.4-49.6L-267.4-49.6z M-265.8-48.3L-265.8-48.3L-265.8-48.3L-265.8-48.3z
		 M-230.4-33.3L-230.4-33.3c-1.1-1.3-2.2-2.6-3.2-4l-1.2-1.2c-0.6-0.4-1.3-0.5-2-0.5h-0.5h-0.9h-1.4h-1.1l-0.7,0.2l-1.4,0.6
		l-0.8,0.6c-1.3,1.5-2.5,3-3.6,4.5c-1.5-0.9-3.7-2-5.5-3c-0.9-0.5-1.7-1-2.3-1.3l-0.2-0.1c0.3-0.8,0.8-1.9,1.2-2.6
		c0.6-1.2,1.1-2.4,1.1-3.9c0-1.4-0.5-2.8-1.4-4.1c-0.6-0.8-1.2-1.6-2.1-2.2c-0.9-0.6-2.1-1-3.2-1.1c-1-0.1-2.2-0.1-3.1-0.2l-0.7-0.1
		v-0.4c0-2.1,0.2-6.2,0.2-8.9l0,0c1.8-0.3,3.8-0.5,5.7-0.9l0.9-0.4l1.2-0.9l0.5-0.5c0.8-1.2,1.2-2.2,1.7-2.9
		c0.4-0.6,0.8-1.4,0.8-2.3l-0.3-1.6c-0.7-1.6-1.3-3.2-2-4.9c2.7-1.6,5.4-3.2,8.2-4.7c1.1,1.4,2.2,2.9,3.4,4.3l0.8,0.6l1.4,0.6
		l0.7,0.2l1.9,0.1c0.7,0,1.4,0,2.1-0.1l0.8-0.2l1.2-0.5l0.8-0.6c1.3-1.5,2.5-3.1,3.7-4.6l0,0c1.6,0.9,3.7,2,5.5,2.9
		c0.9,0.5,1.7,0.9,2.3,1.3l0.2,0.1c-0.3,0.9-0.9,2.2-1.4,3c-0.6,1.1-0.8,2.2-0.8,3.2c0,1.6,0.5,3,1.1,4.1c0.9,1.5,2.6,3.4,5.2,3.5
		h0.8c0.7,0,1.4,0,2,0l1.2,0.1l0.1,0.1v0.1l0.1,1.1c0,2.1-0.4,5.6-0.4,8.2c-1.9,0.3-3.8,0.6-5.8,0.9l-0.9,0.4l-1,0.7l-0.6,0.6
		c-0.7,1.1-1.4,2.3-2,3.5l-0.2,0.7l-0.2,1.4l0.1,1c0.6,1.8,1.4,3.4,1.9,4.9v0.4L-230.4-33.3z"/>
</g>
<path d="M-245.6-53.9c-0.7-0.7-1.1-1.7-1.1-2.7s0.4-1.9,1.1-2.7l19.2-19.2c0.8-0.8,0.8-2.2,0-3.1s-2.2-0.8-3.1,0l-19.2,19.2
	c-1.6,1.6-2.4,3.7-2.4,5.8s0.8,4.2,2.4,5.8l19.2,19.2c0.8,0.8,2.2,0.8,3.1,0s0.8-2.2,0-3.1L-245.6-53.9z"/>
<path d="M-228.1-62.4l-19.2-19.2c-0.8-0.8-2.2-0.8-3.1,0s-0.8,2.2,0,3.1l19.2,19.2c0.7,0.7,1.1,1.7,1.1,2.7s-0.4,1.9-1.1,2.7
	l-19.2,19.2c-0.8,0.8-0.8,2.2,0,3.1s2.2,0.8,3.1,0l19.2-19.2c1.6-1.6,2.4-3.7,2.4-5.8C-225.7-58.7-226.5-60.8-228.1-62.4z"/>
<path d="M-213.4-47.7l-19.2-19.2c-1.6-1.6-3.7-2.4-5.8-2.4s-4.2,0.8-5.8,2.4l-19.2,19.2c-0.8,0.8-0.8,2.2,0,3.1s2.2,0.8,3.1,0
	l19.2-19.2c0.7-0.7,1.7-1.1,2.7-1.1s1.9,0.4,2.7,1.1l19.2,19.2c0.8,0.8,2.2,0.8,3.1,0C-212.5-45.4-212.5-46.8-213.4-47.7z"/>
<path d="M-213.4-47.7l-19.2-19.2c-1.6-1.6-3.7-2.4-5.8-2.4s-4.2,0.8-5.8,2.4l-19.2,19.2c-0.8,0.8-0.8,2.2,0,3.1s2.2,0.8,3.1,0
	l19.2-19.2c0.7-0.7,1.7-1.1,2.7-1.1s1.9,0.4,2.7,1.1l19.2,19.2c0.8,0.8,2.2,0.8,3.1,0C-212.5-45.4-212.5-46.8-213.4-47.7z"/>
<g>
	<path d="M-238.4-86.1c-11.6,0-21.1,9.4-21.1,21.1c0,1.1,0.1,2.3,0.3,3.4l0,0l0,0l0,0l0,0c0.5,3.6,3.2,10.2,7.3,17.1
		c5.1,8.5,11.7,16.6,11.7,16.6l1.6,0.8l1.7-0.7c0-0.1,7-7.9,12.4-16.7c3.7-6.2,6-12.6,6.8-17.2l0,0c0.2-1.1,0.3-2.2,0.3-3.3
		C-217.3-76.7-226.7-86.1-238.4-86.1z M-228.1-46.8c-2.5,4.2-5.5,8.2-7.9,11.2c-0.9,1.2-1.7,2.1-2.3,2.9c-0.6-0.8-1.4-1.8-2.2-2.9
		c-2.2-3-5.1-7.1-7.6-11.1c-3.9-6.4-6.5-13.2-6.8-15.5v-0.1c-0.1-0.9-0.2-1.8-0.2-2.7c0-9.2,7.5-16.7,16.7-16.7s16.7,7.5,16.7,16.7
		c0,0.9-0.1,1.7-0.2,2.6C-222.6-58.5-224.7-52.4-228.1-46.8z"/>
	<path d="M-238.4-75.3c-5.1,0-9.2,4.1-9.2,9.2s4.1,9.2,9.2,9.2c5.1,0,9.2-4.1,9.2-9.2C-229.2-71.2-233.3-75.3-238.4-75.3z
		 M-238.4-61.2c-2.7,0-4.9-2.2-4.9-4.9s2.2-4.9,4.9-4.9s4.9,2.2,4.9,4.9C-233.5-63.4-235.7-61.3-238.4-61.2z"/>
</g>
<path d="M-218-81.8h-6.4v-6.1c0-1.2-1-2.2-2.2-2.2s-2.2,1-2.2,2.2v6.1h-20v-6.1c0-1.2-1-2.2-2.2-2.2s-2.2,1-2.2,2.2v6.1h-5.7
	c-6.8,0-12.3,5.5-12.3,12.3v34.1c0,6.8,5.5,12.3,12.3,12.3h40.7c6.8,0,12.3-5.5,12.3-12.3v-34.1C-205.7-76.3-211.2-81.8-218-81.8z
	 M-258.8-77.5h40.7c4.4,0,8,3.6,8,8v3h-56.7v-3C-266.7-73.9-263.1-77.5-258.8-77.5z M-218-27.5h-40.7c-4.4,0-8-3.6-8-8v-26.7h56.7
	v26.7C-210-31.1-213.6-27.5-218-27.5z"/>
<path d="M-218.5-81.3h-39.7c-6.8,0-12.3,5.5-12.3,12.3v24.7c0,6.8,5.5,12.3,12.3,12.3h39.7c6.8,0,12.3-5.5,12.3-12.3V-69
	C-206.2-75.8-211.7-81.3-218.5-81.3z M-210.5-69v0.2h-5v-7.5C-212.6-75.1-210.5-72.3-210.5-69z M-261.2-58.8h-5v-5.7h5V-58.8z
	 M-261.2-54.4v5.7h-5v-5.7H-261.2z M-256.9-76.9h37v40.7h-37V-76.9z M-215.5-54.4h5v5.7h-5V-54.4z M-215.5-58.8v-5.7h5v5.7H-215.5z
	 M-261.2-76.3v7.5h-5V-69C-266.2-72.3-264.1-75.1-261.2-76.3z M-266.2-44.2v-0.2h5v7.5C-264.1-38.1-266.2-40.9-266.2-44.2z
	 M-215.5-36.9v-7.5h5v0.2C-210.5-40.9-212.6-38.1-215.5-36.9z M-230.1-58.5l-11-7c-0.7-0.4-1.5-0.5-2.2-0.1s-1.1,1.1-1.1,1.9v14.1
	c0,0.8,0.4,1.5,1.1,1.9s1.5,0.4,2.2-0.1l11-7c0.6-0.4,1-1.1,1-1.8C-229.1-57.4-229.5-58.1-230.1-58.5z M-240.1-53.6v-6.1l4.8,3.1
	L-240.1-53.6z"/>
<path d="M-221.5-92.7h-33.7c-6.8,0-12.3,5.5-12.3,12.3v47.5c0,6.8,5.5,12.3,12.3,12.3h33.7c6.8,0,12.3-5.5,12.3-12.3v-47.5
	C-209.2-87.2-214.7-92.7-221.5-92.7z M-219.3-36.1v-4.8h5.8v4.8H-219.3z M-257.4-76.7v4.4h-5.8v-4.4H-257.4z M-223.7-59.9h-29.4
	v-28.4h29.4V-59.9z M-257.4-67.9v4.4h-5.8v-4.4H-257.4z M-257.4-59.2v4.8h-5.8v-4.8H-257.4z M-257.4-50v4.8h-5.8V-50H-257.4z
	 M-257.4-40.9v4.8h-5.8v-4.8H-257.4z M-253.1-55.5h29.4v30.6h-29.4V-55.5z M-219.3-45.2V-50h5.8v4.8H-219.3z M-219.3-54.4v-4.8h5.8
	v4.8H-219.3z M-219.3-63.5v-4.4h5.8v4.4H-219.3z M-219.3-72.3v-4.4h5.8v4.4H-219.3z M-213.7-81.1h-5.7v-6.8
	C-216.3-87-214-84.4-213.7-81.1z M-257.4-87.9v6.8h-5.7C-262.7-84.4-260.5-87-257.4-87.9z M-263-31.7h5.6v6.4
	C-260.3-26.2-262.5-28.6-263-31.7z M-219.3-25.3v-6.4h5.6C-214.3-28.6-216.4-26.2-219.3-25.3z"/>
<path d="M-219.9-49.2c-3.1,0-5.7,1.5-7.4,3.8l-20.4-9.4c0.1-0.6,0.4-1.2,0.4-1.9s-0.2-1.2-0.4-1.9l20.4-9.4c1.8,2.2,4.4,3.8,7.4,3.8
	c5.3,0,9.6-4.3,9.6-9.6c0-5.3-4.3-9.6-9.6-9.6s-9.6,4.3-9.6,9.6c0,0.7,0.2,1.2,0.4,1.9l-20.4,9.4c-1.8-2.2-4.4-3.8-7.4-3.8
	c-5.3,0-9.6,4.3-9.6,9.6s4.3,9.6,9.6,9.6c3.1,0,5.7-1.5,7.4-3.8l20.4,9.4c-0.1,0.6-0.4,1.2-0.4,1.9c0,5.3,4.3,9.6,9.6,9.6
	s9.6-4.3,9.6-9.6C-210.3-44.9-214.6-49.2-219.9-49.2z M-219.9-78.9c2.9,0,5.2,2.4,5.2,5.2c0,2.9-2.4,5.2-5.2,5.2
	c-2.9,0-5.2-2.4-5.2-5.2C-225.1-76.6-222.8-78.9-219.9-78.9z M-256.9-51.4c-2.9,0-5.2-2.4-5.2-5.2c0-2.9,2.4-5.2,5.2-5.2
	c2.9,0,5.2,2.4,5.2,5.2C-251.7-53.7-254-51.4-256.9-51.4z M-219.9-34.3c-2.9,0-5.2-2.4-5.2-5.2c0-2.9,2.4-5.2,5.2-5.2
	c2.9,0,5.2,2.4,5.2,5.2C-214.6-36.7-217-34.3-219.9-34.3z"/>
<g>
	<path d="M-238.4-84.9c-15.6,0-28.3,12.7-28.3,28.3s12.7,28.3,28.3,28.3s28.3-12.7,28.3-28.3C-210.1-72.3-222.7-84.9-238.4-84.9z
		 M-238.4-32.6c-13.2,0-23.9-10.7-24-24c0-13.2,10.7-23.9,24-24c13.2,0,23.9,10.7,24,24C-214.4-43.4-225.1-32.7-238.4-32.6z"/>
	<path d="M-238.2-48.5c1.2,0,2.2-1,2.2-2.2v-19.8c0-1.2-1-2.2-2.2-2.2s-2.2,1-2.2,2.2v19.8C-240.4-49.4-239.4-48.5-238.2-48.5z"/>
	<circle cx="-238.2" cy="-42.4" r="2.3"/>
</g>
<g>
	<path d="M-238.4-47.4c1.2,0,2.2-1,2.2-2.2v-19.8c0-1.2-1-2.2-2.2-2.2s-2.2,1-2.2,2.2v19.8C-240.6-48.4-239.6-47.4-238.4-47.4z"/>
	<circle cx="-238.4" cy="-41.4" r="2.3"/>
	<path d="M-211.2-43l-20.3-35.1l-1.9,1.1l1.9-1.1c-1.5-2.6-4.2-4-6.9-4s-5.4,1.4-6.9,4L-265.6-43c-0.7,1.3-1.1,2.6-1.1,4
		c0,4.2,3.3,8,8,8h40.5c4.6,0,8-3.8,8-8C-210.1-40.4-210.5-41.8-211.2-43z M-218.1-35.4h-40.5c-2.1,0-3.6-1.7-3.6-3.6l0.5-1.8
		l20.3-35.1c0.7-1.2,1.9-1.8,3.1-1.8c1.2,0,2.4,0.6,3.1,1.8l20.3,35.1l0.5,1.8C-214.5-37.2-216-35.4-218.1-35.4z"/>
</g>
<path d="M-238.4-84.9c-15.6,0-28.3,12.7-28.3,28.3s12.7,28.3,28.3,28.3s28.3-12.7,28.3-28.3C-210.1-72.3-222.7-84.9-238.4-84.9z
	 M-238.4-32.6c-13.2,0-23.9-10.7-24-24c0-13.2,10.7-23.9,24-24c13.2,0,23.9,10.7,24,24C-214.4-43.4-225.1-32.7-238.4-32.6z"/>
<path d="M-218.4-76.6c-5.5-5.5-12.8-8.3-20-8.3s-14.5,2.8-20,8.3s-8.3,12.8-8.3,20s2.8,14.5,8.3,20l0,0c5.5,5.5,12.8,8.3,20,8.3
	s14.5-2.8,20-8.3s8.3-12.8,8.3-20C-210.1-63.9-212.8-71.1-218.4-76.6z M-238.4-32.6c-6.1,0-12.3-2.3-16.9-7c-4.7-4.7-7-10.8-7-16.9
	c0-5.5,2-10.8,5.6-15.3l33.6,33.6C-227.6-34.6-232.9-32.6-238.4-32.6z M-220-41.4L-253.6-75c4.4-3.7,9.8-5.6,15.3-5.6
	c6.1,0,12.3,2.3,16.9,7c4.7,4.7,7,10.8,7,16.9C-214.4-51.2-216.4-45.8-220-41.4z"/>
<g>
	<path d="M-238.4-84.9c-15.6,0-28.3,12.7-28.3,28.3s12.7,28.3,28.3,28.3s28.3-12.7,28.3-28.3C-210.1-72.3-222.7-84.9-238.4-84.9z
		 M-238.4-32.6c-13.2,0-23.9-10.7-24-24c0-13.2,10.7-23.9,24-24c13.2,0,23.9,10.7,24,24C-214.4-43.4-225.1-32.7-238.4-32.6z"/>
	<path d="M-226.9-58.8h-22.9c-1.2,0-2.2,1-2.2,2.2s1,2.2,2.2,2.2h22.9c1.2,0,2.2-1,2.2-2.2S-225.7-58.8-226.9-58.8z"/>
</g>
<g>
	<path d="M-243.4-68.5c-0.7-0.4-1.5-0.5-2.2-0.1s-1.1,1.1-1.1,1.9V-46c0,0.8,0.4,1.5,1.1,1.9s1.5,0.4,2.2-0.1l16.1-10.3
		c0.6-0.4,1-1.1,1-1.8s-0.4-1.4-1-1.8L-243.4-68.5z M-242.4-50v-12.7l9.9,6.3L-242.4-50z"/>
	<path d="M-238.4-84.9c-15.6,0-28.3,12.7-28.3,28.3s12.7,28.3,28.3,28.3s28.3-12.7,28.3-28.3C-210.1-72.3-222.7-84.9-238.4-84.9z
		 M-238.4-32.6c-13.2,0-23.9-10.7-24-24c0-13.2,10.7-23.9,24-24c13.2,0,23.9,10.7,24,24C-214.4-43.4-225.1-32.7-238.4-32.6z"/>
</g>
<g>
	<path d="M-242-68.8h-8.2l-1.5,0.6l-0.6,1.5V-46l0.6,1.5l1.5,0.6h8.2l1.5-0.6l0.6-1.5v-20.6l-0.6-1.5L-242-68.8z M-248-64.5h3.9
		v16.3h-3.9V-64.5z"/>
	<path d="M-226.5-68.8h-8.2l-1.5,0.6l-0.6,1.5V-46l0.6,1.5l1.5,0.6h8.2l1.5-0.6l0.6-1.5v-20.6l-0.6-1.5L-226.5-68.8z M-232.6-64.5
		h3.9v16.3h-3.9V-64.5z"/>
	<path d="M-238.4-84.9c-15.6,0-28.3,12.7-28.3,28.3s12.7,28.3,28.3,28.3s28.3-12.7,28.3-28.3C-210.1-72.3-222.7-84.9-238.4-84.9z
		 M-238.4-32.6c-13.2,0-23.9-10.7-24-24c0-13.2,10.7-23.9,24-24c13.2,0,23.9,10.7,24,24C-214.4-43.4-225.1-32.7-238.4-32.6z"/>
</g>
<path d="M-238.4-84.8c-13.5,0-24.5,11-24.5,24.5l0.6,1.5l1.5,0.6c2.5,0,11,0,20.1,0v20.9c0,4.9,4,8.8,8.8,8.8c4.9,0,8.8-4,8.8-8.8
	c0-1.2-1-2.2-2.2-2.2s-2.2,1-2.2,2.2c0,2.5-2,4.5-4.5,4.5s-4.5-2-4.5-4.5v-20.9c8.3,0,16.3,0,20.1,0l1.5-0.6l0.6-1.5
	C-213.9-73.8-224.9-84.8-238.4-84.8z M-238.4-80.4c10.4,0,18.8,7.9,19.9,18c-9.7,0-31.7,0-39.8,0C-257.2-72.6-248.8-80.4-238.4-80.4
	z"/>
<g>
	<path d="M-224.9-73l-19.6,9.2l-1,1l-9.2,19.6c-0.4,0.8-0.2,1.8,0.4,2.5c0.6,0.7,1.6,0.8,2.5,0.4l19.6-9.2l1-1l9.2-19.6
		c0.4-0.8,0.2-1.8-0.4-2.5C-223.1-73.2-224.1-73.4-224.9-73z M-234.8-53.1l-13.4,6.3l6.3-13.4l13.4-6.3L-234.8-53.1z"/>
	<circle cx="-238.4" cy="-56.6" r="2.5"/>
	<path d="M-238.4-84.9c-15.6,0-28.3,12.7-28.3,28.3s12.7,28.3,28.3,28.3s28.3-12.7,28.3-28.3C-210.1-72.3-222.7-84.9-238.4-84.9z
		 M-238.4-32.6c-13.2,0-23.9-10.7-24-24c0-13.2,10.7-23.9,24-24c13.2,0,23.9,10.7,24,24C-214.4-43.4-225.1-32.7-238.4-32.6z"/>
</g>
<path d="M-238.4-84.9c-15.6,0-28.3,12.7-28.3,28.3s12.7,28.3,28.3,28.3s28.3-12.7,28.3-28.3C-210.1-72.3-222.7-84.9-238.4-84.9z
	 M-243.4-45.6c-0.4-2.7-0.7-5.7-0.8-8.8h11.6c-0.1,3.2-0.3,6.1-0.7,8.8c-1.6-0.1-3.3-0.2-5.1-0.2C-240.1-45.8-241.7-45.7-243.4-45.6
	z M-244.2-58.8c0.1-3.2,0.3-6.1,0.7-8.8c1.6,0.1,3.3,0.2,5.1,0.2c1.7,0,3.4-0.1,5-0.2c0.4,2.7,0.7,5.7,0.8,8.8H-244.2L-244.2-58.8z
	 M-230.6-75.7c-0.5-1.5-1-2.7-1.6-3.9c4,1.1,7.6,3.1,10.5,5.9c-2.3,0.6-5,1.1-8.1,1.4C-230-73.5-230.3-74.7-230.6-75.7z M-237-79.4
	c1,1.4,2.1,4.1,2.9,7.5c-1.4,0.1-2.8,0.2-4.3,0.2s-2.8-0.1-4.2-0.2c0.2-0.9,0.4-1.8,0.6-2.5c0.7-2.2,1.5-3.9,2.2-5
	c0.8-1.1,1.3-1.2,1.4-1.2C-238.3-80.6-237.8-80.5-237-79.4z M-247-72.3c-3-0.3-5.8-0.8-8.1-1.4c2.9-2.8,6.6-4.9,10.6-5.9
	C-245.5-77.7-246.3-75.2-247-72.3z M-247.7-68c-0.4,2.9-0.7,5.9-0.8,9.2h-13.6c0.4-4.2,1.8-8.1,4-11.4
	C-255.2-69.2-251.7-68.5-247.7-68z M-248.5-54.4c0.1,3.3,0.3,6.4,0.7,9.2c-3.9,0.5-7.4,1.2-10.3,2.1c-2.3-3.3-3.6-7.2-4-11.4
	L-248.5-54.4L-248.5-54.4z M-247-40.9c0.3,1.2,0.5,2.4,0.9,3.4c0.5,1.5,1,2.7,1.6,3.9c-4-1.1-7.6-3.1-10.5-5.9
	C-252.8-40.1-250-40.6-247-40.9z M-239.7-33.8c-1-1.4-2.1-4.1-2.9-7.5c1.4-0.1,2.8-0.2,4.3-0.2s2.8,0.1,4.2,0.2
	c-0.2,0.9-0.4,1.8-0.6,2.5c-0.7,2.2-1.5,3.9-2.2,5c-0.8,1.1-1.3,1.2-1.4,1.2C-238.5-32.6-239-32.7-239.7-33.8z M-229.8-40.9
	c3,0.3,5.8,0.8,8.1,1.4c-2.9,2.8-6.6,4.9-10.6,5.9C-231.3-35.6-230.4-38-229.8-40.9z M-229-45.2c0.4-2.9,0.7-5.9,0.8-9.2h13.6
	c-0.4,4.2-1.8,8.1-4,11.4C-221.6-44-225.1-44.8-229-45.2z M-228.2-58.8c-0.1-3.3-0.3-6.4-0.7-9.2c3.9-0.5,7.4-1.2,10.3-2.1
	c2.3,3.3,3.6,7.2,4,11.4C-214.6-58.8-228.2-58.8-228.2-58.8z"/>
<g>
	<path d="M-238.4-84.9c-15.6,0-28.3,12.7-28.3,28.3s12.7,28.3,28.3,28.3s28.3-12.7,28.3-28.3C-210.1-72.3-222.7-84.9-238.4-84.9z
		 M-238.4-32.6c-13.2,0-23.9-10.7-24-24c0-13.2,10.7-23.9,24-24c13.2,0,23.9,10.7,24,24C-214.4-43.4-225.1-32.7-238.4-32.6z"/>
	<circle cx="-238.4" cy="-56.6" r="13"/>
</g>
<g>
	<path d="M-227.1-64.8v-9.1c0-6.2-5.1-11.3-11.3-11.3s-11.3,5.1-11.3,11.3v9.1c-6,0.9-10.6,5.9-10.6,12.1v12.2
		c0,6.8,5.5,12.3,12.3,12.3h19.1c6.8,0,12.3-5.5,12.3-12.3v-12.2C-216.5-58.8-221.1-63.9-227.1-64.8z M-238.4-80.8
		c3.8,0,6.9,3.1,6.9,6.9v8.9h-13.8v-8.9C-245.3-77.7-242.2-80.8-238.4-80.8z M-220.9-40.4c0,4.4-3.6,8-8,8H-248c-4.4,0-8-3.6-8-8
		v-12.2c0-4.4,3.6-8,8-8h19.1c4.4,0,8,3.6,8,8V-40.4z"/>
	<path d="M-238.9-51.7c-2,0-3.7,1.6-3.7,3.7c0,2.4,1.4,2.5,1.6,3.3c0.5,3,0.5,4,2.1,4s1.6-0.9,2.1-4c0.1-0.9,1.6-1.2,1.6-3.4
		C-235.2-50-236.9-51.7-238.9-51.7z"/>
</g>
<g>
	<path d="M-224-85.1c-6.2,0-11.3,5.1-11.3,11.3v8.9h-16.4c-6.8,0-12.3,5.5-12.3,12.3v12.2c0,6.8,5.5,12.3,12.3,12.3h19.1
		c6.8,0,12.3-5.5,12.3-12.3v-12.2c0-6.2-4.6-11.3-10.6-12.1v-9.1c0-3.8,3.1-6.9,6.9-6.9c3.8,0,6.9,3.1,6.9,6.9v11.1
		c0,1.2,1,2.2,2.2,2.2s2.2-1,2.2-2.2v-11.1C-212.7-80.1-217.8-85.1-224-85.1z M-224.7-52.6v12.2c0,4.4-3.6,8-8,8h-19.1
		c-4.4,0-8-3.6-8-8v-12.2c0-4.4,3.6-8,8-8h19.1C-228.3-60.6-224.7-57-224.7-52.6z"/>
	<path d="M-242.7-51.7c-2,0-3.7,1.6-3.7,3.7c0,2.4,1.4,2.5,1.6,3.3c0.5,3,0.5,4,2.1,4s1.6-0.9,2.1-4c0.1-0.9,1.6-1.2,1.6-3.4
		C-239-50-240.7-51.7-242.7-51.7z"/>
</g>
<g>
	<path d="M-209.4-61c-5.1-4.3-15.9-12-29-12c-13,0-23.8,7.7-29,12c-1.4,1.1-2.1,2.8-2.1,4.4c0,1.6,0.7,3.3,2.1,4.4
		c5.1,4.3,15.9,12,29,12c13,0,23.8-7.7,29-12c1.4-1.1,2.1-2.8,2.1-4.4C-207.4-58.2-208.1-59.9-209.4-61z M-238.4-47.7
		c-5.2,0-9.4-4.2-9.4-9.4s4.2-9.4,9.4-9.4s9.4,4.2,9.4,9.4S-233.2-47.7-238.4-47.7z M-265-56.6l0.5-1.1c3.4-2.8,9.5-7.2,16.8-9.5
		c-2.7,2.5-4.4,6.1-4.4,10c0,4.9,2.6,9.2,6.4,11.6c-8.2-2-15.1-6.9-18.8-10L-265-56.6z M-231-45.5c3.8-2.4,6.4-6.7,6.4-11.6
		c0-4-1.7-7.5-4.4-10c7.3,2.3,13.4,6.6,16.8,9.5l0.5,1.1l-0.5,1.1C-215.9-52.4-222.8-47.5-231-45.5z"/>
	<circle cx="-238.4" cy="-57.1" r="6"/>
</g>
<g>
	<path d="M-209.4-61c-5.1-4.3-15.9-12-29-12c-13,0-23.8,7.7-29,12c-1.4,1.1-2.1,2.8-2.1,4.4c0,1.6,0.7,3.3,2.1,4.4
		c5.1,4.3,15.9,12,29,12c13,0,23.8-7.7,29-12c1.4-1.1,2.1-2.8,2.1-4.4C-207.4-58.2-208.1-59.9-209.4-61z M-238.4-44.5
		c-11.2,0-21.4-7-26.2-11l-0.5-1.1l0.5-1.1c4.7-4,14.9-11,26.2-11c11.2,0,21.4,7,26.2,11l0.5,1.1l-0.5,1.1
		C-217-51.5-227.1-44.5-238.4-44.5z"/>
	<path d="M-238.4-66.7c-5.3,0-9.6,4.3-9.6,9.6s4.3,9.6,9.6,9.6s9.6-4.3,9.6-9.6C-228.8-62.4-233.1-66.7-238.4-66.7z M-238.4-51.8
		c-2.9,0-5.3-2.4-5.3-5.3c0-2.9,2.4-5.3,5.3-5.3c2.9,0,5.3,2.4,5.3,5.3C-233.1-54.2-235.5-51.9-238.4-51.8z"/>
</g>
<path d="M-238.4-85c-15.7,0-28.4,12.7-28.4,28.4s12.7,28.4,28.4,28.4S-210-40.9-210-56.6S-222.7-85-238.4-85z M-236.2-32.8V-43
	c0-1.2-1-2.2-2.2-2.2s-2.2,1-2.2,2.2v10.3c-11.5-1.1-20.5-10.1-21.7-21.6h10.3c1.2,0,2.2-1,2.2-2.2s-1-2.2-2.2-2.2h-10.4
	c1-11.6,10.1-20.7,21.7-21.8V-70c0,1.2,1,2.2,2.2,2.2s2.2-1,2.2-2.2v-10.5c11.6,1.1,20.6,10.2,21.7,21.8H-225c-1.2,0-2.2,1-2.2,2.2
	s1,2.2,2.2,2.2h10.3C-215.7-42.9-224.7-33.8-236.2-32.8z"/>
<path d="M-212.6-33.9l-14.7-14.7c3-3.6,4.8-8.2,4.8-13.3c0-11.7-9.5-21.1-21.1-21.1c-11.7,0-21.1,9.5-21.1,21.1
	c0,11.7,9.5,21.1,21.1,21.1c5,0,9.6-1.8,13.3-4.8l14.7,14.7c0.8,0.8,2.2,0.8,3.1,0C-211.8-31.7-211.8-33.1-212.6-33.9z M-243.6-45.1
	c-9.3,0-16.8-7.5-16.8-16.8s7.5-16.8,16.8-16.8s16.8,7.5,16.8,16.8C-226.9-52.6-234.4-45.1-243.6-45.1z"/>
<path d="M-219.1-66.1c-0.3-0.8-1.1-1.3-2-1.3h-34.5c-0.9,0-1.7,0.5-2,1.3s-0.1,1.7,0.5,2.4l17.2,17.2l1.5,0.6l1.5-0.6l17.2-17.2
	C-219-64.3-218.8-65.2-219.1-66.1z M-238.4-51.1l-12-12h24L-238.4-51.1z"/>
<path d="M-218.3-79.8h-40.2c-6.8,0-12.3,5.5-12.3,12.3v21.7c0,6.8,5.5,12.3,12.3,12.3h40.2c6.8,0,12.3-5.5,12.3-12.3v-21.7
	C-206-74.3-211.5-79.8-218.3-79.8z M-210.3-45.7c0,1.8-0.7,3.4-1.7,4.7l-18.7-15.3l18.7-15.9c1,1.3,1.7,2.9,1.7,4.7V-45.7z
	 M-218.3-75.5c1,0,1.9,0.2,2.7,0.6l-22.9,19.4l-22.8-19.4c0.9-0.3,1.8-0.6,2.8-0.6H-218.3z M-264.7-41.1c-1-1.3-1.7-2.9-1.7-4.7
	v-21.7c0-1.8,0.7-3.3,1.7-4.6l18.6,15.8L-264.7-41.1z M-258.5-37.8c-1,0-1.9-0.2-2.8-0.6l18.4-15.1l2.9,2.5c0.8,0.7,2,0.7,2.8,0
	l2.9-2.5l18.6,15.1c-0.9,0.3-1.8,0.6-2.7,0.6C-218.3-37.8-258.5-37.8-258.5-37.8z"/>
<path d="M-223.2-84.8h-30.3c-7.2,0-13.1,5.9-13.1,13.1v30.3c0,7.2,5.9,13.1,13.1,13.1h30.3c7.2,0,13.1-5.9,13.1-13.1v-30.3
	C-210.2-78.9-216-84.8-223.2-84.8z M-214.5-41.5c0,4.8-3.9,8.7-8.7,8.7h-30.3c-4.8,0-8.7-3.9-8.7-8.7v-30.3c0-4.8,3.9-8.7,8.7-8.7
	h30.3c4.8,0,8.7,3.9,8.7,8.7L-214.5-41.5L-214.5-41.5z"/>
<path d="M-213.1-46.5v8.6c0,6.8-5.5,12.3-12.3,12.3h-31.8c-6.8,0-12.3-5.5-12.3-12.3v-31.8c0-6.8,5.5-12.3,12.3-12.3h8.6
	c1.2,0,2.2,1,2.2,2.2s-1,2.2-2.2,2.2h-8.6c-4.4,0-8,3.6-8,8v31.8c0,4.4,3.6,8,8,8h31.8c4.4,0,8-3.6,8-8v-8.6l0,0
	c0-1.2,1-2.2,2.2-2.2C-214-48.6-213.1-47.7-213.1-46.5z M-207.3-85.5l-0.6-1.5l-1.5-0.6h-17.5c-1.2,0-2.2,1-2.2,2.2s1,2.2,2.2,2.2
	h12.2l-21.5,21.5c-0.8,0.8-0.8,2.2,0,3.1s2.2,0.8,3.1,0l21.5-21.5v12.2c0,1.2,1,2.2,2.2,2.2s2.2-1,2.2-2.2L-207.3-85.5z"/>
<g>
	<path d="M-211-82.3l-0.6-1.5l-1.5-0.6h-14c-1.2,0-2.2,1-2.2,2.2s1,2.2,2.2,2.2h8.7l-16.4,16.4c-0.8,0.8-0.8,2.2,0,3.1
		s2.2,0.8,3.1,0l16.4-16.4v8.7c0,1.2,1,2.2,2.2,2.2s2.2-1,2.2-2.2L-211-82.3z"/>
	<path d="M-217.5-46.7l-6.8-5.8l0,0c-1.6-1.3-3.4-2.1-5.4-2.1c-1.7,0-3.4,0.7-4.8,1.9c-0.4,0.4-0.6,0.8-0.9,1.2
		c-1.2-1-2.6-2.4-4-3.8c-1.5-1.6-2.8-3.3-3.9-4.6c-0.1-0.1-0.1-0.1-0.2-0.2c0.7-0.5,1.1-0.8,1.2-1l0,0l0,0l0,0l0,0
		c1.5-1.4,2.2-3.3,2.2-5.1s-0.6-3.5-1.7-5l0,0l-5.3-7.2l0,0c-1.3-1.8-3.3-2.6-5.2-2.6s-3.7,0.7-5.2,1.9l-5.1,4.1l0,0
		c-1.8,1.5-3.1,3.7-3.1,6.2c0,1.3,0.4,2.7,1.2,3.9c8.5,13.5,19.5,25.3,32.4,34.7c1.3,1,2.8,1.4,4.2,1.4c2.3,0,4.4-1.1,5.9-2.7l0,0
		l4.5-4.8l0.1-0.1c1.3-1.5,2.2-3.5,2.2-5.6C-215.3-43.6-216-45.4-217.5-46.7L-217.5-46.7z M-225.2-34.5c-0.9,0.9-1.9,1.4-2.8,1.4
		l-1.7-0.6c-12.5-9.1-23.1-20.5-31.3-33.5l-0.5-1.6c0-0.9,0.5-2,1.6-2.9l5.1-4.1c0.7-0.6,1.7-0.9,2.5-0.9s1.3,0.2,1.7,0.8l0,0
		l5.3,7.2c0.6,0.8,0.9,1.7,0.9,2.5s-0.2,1.4-0.8,1.9l0,0l0,0c-0.1,0.1-1.1,0.9-2.1,1.3c-0.7,0.2-1.2,0.7-1.4,1.4s-0.1,1.4,0.3,1.9
		c0,0,2.7,3.9,5.9,7.3c3.2,3.4,6.6,6.1,6.6,6.1c0.6,0.5,1.5,0.6,2.2,0.3s1.2-1,1.3-1.8c0.1-0.7,0.4-1.3,0.9-1.8
		c0.6-0.5,1.2-0.7,1.8-0.7c0.7,0,1.7,0.3,2.6,1.1l6.8,5.8l0.7,1.5c0,0.8-0.4,1.9-1.1,2.7L-225.2-34.5z"/>
</g>
<g>
	<path d="M-211.6-83.8c-0.8-0.8-2.2-0.8-3.1,0l-16.4,16.4v-8.7c0-1.2-1-2.2-2.2-2.2s-2.2,1-2.2,2.2v14l0.6,1.5l1.5,0.6h14
		c1.2,0,2.2-1,2.2-2.2s-1-2.2-2.2-2.2h-8.7l16.4-16.4C-210.8-81.6-210.8-83-211.6-83.8z"/>
	<path d="M-217.5-46.7l-6.8-5.8l0,0c-1.6-1.3-3.4-2.1-5.4-2.1c-1.7,0-3.4,0.7-4.8,1.9c-0.4,0.4-0.6,0.8-0.9,1.2
		c-1.2-1-2.6-2.4-4-3.8c-1.5-1.6-2.8-3.3-3.9-4.6c-0.1-0.1-0.1-0.1-0.2-0.2c0.7-0.5,1.1-0.8,1.2-1l0,0l0,0l0,0l0,0
		c1.5-1.4,2.2-3.3,2.2-5.1s-0.6-3.5-1.7-5l0,0l-5.3-7.2l0,0c-1.3-1.8-3.3-2.6-5.2-2.6s-3.7,0.7-5.2,1.9l-5.1,4.1l0,0
		c-1.8,1.5-3.1,3.7-3.1,6.2c0,1.3,0.4,2.7,1.2,3.9c8.5,13.5,19.5,25.3,32.4,34.7c1.3,1,2.8,1.4,4.2,1.4c2.3,0,4.4-1.1,5.9-2.7l0,0
		l4.5-4.8l0.1-0.1c1.3-1.5,2.2-3.5,2.2-5.6C-215.3-43.6-216-45.4-217.5-46.7L-217.5-46.7z M-225.2-34.5c-0.9,0.9-1.9,1.4-2.8,1.4
		l-1.7-0.6c-12.5-9.1-23.1-20.5-31.3-33.5l-0.5-1.6c0-0.9,0.5-2,1.6-2.9l5.1-4.1c0.7-0.6,1.7-0.9,2.5-0.9s1.3,0.2,1.7,0.8l0,0
		l5.3,7.2c0.6,0.8,0.9,1.7,0.9,2.5s-0.2,1.4-0.8,1.9l0,0l0,0c-0.1,0.1-1.1,0.9-2.1,1.3c-0.7,0.2-1.2,0.7-1.4,1.4s-0.1,1.4,0.3,1.9
		c0,0,2.7,3.9,5.9,7.3c3.2,3.4,6.6,6.1,6.6,6.1c0.6,0.5,1.5,0.6,2.2,0.3s1.2-1,1.3-1.8c0.1-0.7,0.4-1.3,0.9-1.8
		c0.6-0.5,1.2-0.7,1.8-0.7c0.7,0,1.7,0.3,2.6,1.1l6.8,5.8l0.7,1.5c0,0.8-0.4,1.9-1.1,2.7L-225.2-34.5z"/>
</g>
<path d="M-211.2-73.6c0-2.6-1-5.2-3-7.2s-4.6-3-7.2-3c-2.6,0-5.2,1-7.2,3l-8.3,8.3c-2,2-3,4.6-3,7.2c0,1.9,0.7,3.7,1.7,5.3l-3.6,3.6
	c-1.6-1-3.4-1.7-5.3-1.7c-2.6,0-5.2,1-7.2,3l-8.3,8.3c-2,2-3,4.6-3,7.2c0,2.6,1,5.2,3,7.2s4.6,3,7.2,3c2.6,0,5.2-1,7.2-3l8.3-8.3
	l-1.5-1.5l1.5,1.5c2-2,3-4.6,3-7.2c0-1.9-0.7-3.7-1.7-5.3l3.6-3.6c1.7,1,3.5,1.7,5.3,1.7c2.6,0,5.2-1,7.2-3l8.3-8.3l-1.5-1.5
	l1.5,1.5C-212.2-68.4-211.2-71-211.2-73.6z M-241.2-47.9c0,1.5-0.6,3-1.7,4.1l0,0l-8.3,8.3c-1.1,1.1-2.6,1.7-4.1,1.7
	c-1.5,0-3-0.6-4.1-1.7c-1.1-1.1-1.7-2.6-1.7-4.1s0.6-3,1.7-4.1l8.3-8.3c1.1-1.1,2.6-1.7,4.1-1.7c0.8,0,1.5,0.2,2.2,0.5L-249-49
	c-0.8,0.8-0.8,2.2,0,3.1s2.2,0.8,3.1,0l4.2-4.2C-241.4-49.5-241.2-48.7-241.2-47.9z M-217.3-69.5L-217.3-69.5l-8.3,8.3
	c-1.1,1.1-2.6,1.7-4.1,1.7c-0.8,0-1.5-0.2-2.3-0.5l2.8-2.8c0.8-0.8,0.8-2.2,0-3.1s-2.2-0.8-3.1,0L-235-63c-0.3-0.7-0.5-1.5-0.5-2.3
	c0-1.5,0.6-3,1.7-4.1l8.3-8.3c1.1-1.1,2.6-1.7,4.1-1.7s3,0.6,4.1,1.7s1.7,2.6,1.7,4.1C-215.6-72.1-216.1-70.6-217.3-69.5z"/>
<g>
	<path d="M-241.6-41.1l-5.7,5.7c-1.7,1.7-3.9,2.5-6.2,2.5c-2.2,0-4.5-0.8-6.2-2.5s-2.5-3.9-2.5-6.2c0-2.2,0.8-4.5,2.5-6.2l11.3-11.3
		c1.7-1.7,3.9-2.5,6.2-2.5c2.2,0,4.5,0.8,6.2,2.5c0.8,0.8,2.2,0.8,3.1,0s0.8-2.2,0-3.1c-2.5-2.5-5.9-3.8-9.2-3.8s-6.7,1.3-9.2,3.8
		l-11.3,11.3c-2.5,2.5-3.8,5.9-3.8,9.2s1.3,6.7,3.8,9.2s5.9,3.8,9.2,3.8s6.7-1.3,9.2-3.8l5.7-5.7c0.8-0.8,0.8-2.2,0-3.1
		C-239.4-41.9-240.7-41.9-241.6-41.1z"/>
	<path d="M-214.1-80.9c-2.5-2.5-5.9-3.8-9.2-3.8s-6.7,1.3-9.2,3.8l-5.7,5.7c-0.8,0.8-0.8,2.2,0,3.1s2.2,0.8,3.1,0l0,0l5.7-5.7
		c1.7-1.7,3.9-2.5,6.2-2.5c2.2,0,4.5,0.8,6.2,2.5l0,0c1.7,1.7,2.5,3.9,2.5,6.2c0,2.2-0.8,4.5-2.5,6.2l-11.3,11.3
		c-1.7,1.7-3.9,2.5-6.2,2.5c-2.2,0-4.5-0.8-6.2-2.5c-0.8-0.8-2.2-0.8-3.1,0c-0.8,0.8-0.8,2.2,0,3.1c2.5,2.5,5.9,3.8,9.2,3.8
		s6.7-1.3,9.2-3.8l11.3-11.3c2.5-2.5,3.8-5.9,3.8-9.2C-210.3-75-211.6-78.3-214.1-80.9z"/>
</g>
<path d="M-224.6-58.8h-11.6v-11.6c0-1.2-1-2.2-2.2-2.2s-2.2,1-2.2,2.2v11.6h-11.6c-1.2,0-2.2,1-2.2,2.2s1,2.2,2.2,2.2h11.6v11.6
	c0,1.2,1,2.2,2.2,2.2s2.2-1,2.2-2.2v-11.6h11.6c1.2,0,2.2-1,2.2-2.2S-223.4-58.8-224.6-58.8z"/>
<path d="M-212.6-33.9l-14.7-14.7c3-3.6,4.8-8.2,4.8-13.3c0-11.7-9.5-21.1-21.1-21.1c-11.7,0-21.1,9.5-21.1,21.1
	c0,11.7,9.5,21.1,21.1,21.1c5,0,9.6-1.8,13.3-4.8l14.7,14.7c0.8,0.9,2.2,0.9,3.1,0C-211.8-31.7-211.8-33.1-212.6-33.9z M-243.6-45.1
	c-9.3,0-16.8-7.5-16.8-16.8s7.5-16.8,16.8-16.8s16.8,7.5,16.8,16.8C-226.9-52.6-234.4-45.1-243.6-45.1z M-232.8-61.9
	c0,1.2-1,2.2-2.2,2.2h-6.5v6.5c0,1.2-1,2.2-2.2,2.2s-2.2-1-2.2-2.2v-6.5h-6.5c-1.2,0-2.2-1-2.2-2.2s1-2.2,2.2-2.2h6.5v-6.5
	c0-1.2,1-2.2,2.2-2.2s2.2,1,2.2,2.2v6.5h6.5C-233.8-64.1-232.8-63.1-232.8-61.9z"/>
<g>
	<path d="M-212.6-33.9l-14.7-14.7c3-3.6,4.8-8.2,4.8-13.3c0-11.7-9.5-21.1-21.1-21.1c-11.7,0-21.1,9.5-21.1,21.1
		c0,11.7,9.5,21.1,21.1,21.1c5,0,9.6-1.8,13.3-4.8l14.7,14.7c0.8,0.9,2.2,0.9,3.1,0C-211.8-31.7-211.8-33.1-212.6-33.9z
		 M-243.6-45.1c-9.3,0-16.8-7.5-16.8-16.8s7.5-16.8,16.8-16.8s16.8,7.5,16.8,16.8C-226.9-52.6-234.4-45.1-243.6-45.1z"/>
	<path d="M-235-64.1h-17.3c-1.2,0-2.2,1-2.2,2.2s1,2.2,2.2,2.2h17.3c1.2,0,2.2-1,2.2-2.2S-233.8-64.1-235-64.1z"/>
</g>
<path d="M-235.3-56.6l13-13c0.8-0.8,0.8-2.2,0-3.1s-2.2-0.8-3.1,0l-13,13l-13-13c-0.8-0.8-2.2-0.8-3.1,0s-0.8,2.2,0,3.1l13,13
	l-13,13c-0.8,0.8-0.8,2.2,0,3.1s2.2,0.8,3.1,0l13-13l13,13c0.8,0.8,2.2,0.8,3.1,0s0.8-2.2,0-3.1L-235.3-56.6z"/>
<g>
	<path d="M-217.8-46.4l-6.8-5.8l0,0c-1.6-1.3-3.4-2.1-5.4-2.1c-1.7,0-3.4,0.7-4.8,1.9c-0.4,0.4-0.6,0.8-0.9,1.2
		c-1.2-1-2.6-2.4-4-3.8c-1.5-1.6-2.8-3.3-3.9-4.6c-0.1-0.1-0.1-0.1-0.2-0.2c0.7-0.5,1.1-0.8,1.2-1l0,0l0,0l0,0l0,0
		c1.5-1.4,2.2-3.3,2.2-5.1c0-1.8-0.6-3.5-1.7-5l0,0l-5.3-7.2l0,0c-1.3-1.8-3.3-2.6-5.2-2.6s-3.7,0.7-5.2,1.9l-5.1,4.1l0,0
		c-1.8,1.5-3.1,3.7-3.1,6.2c0,1.3,0.4,2.7,1.2,3.9c8.5,13.5,19.5,25.3,32.4,34.7c1.3,1,2.8,1.4,4.2,1.4c2.3,0,4.4-1.1,5.9-2.7l0,0
		l4.5-4.8l0.1-0.1c1.3-1.5,2.2-3.5,2.2-5.6C-215.6-43.3-216.3-45.1-217.8-46.4L-217.8-46.4z M-225.5-34.2c-0.9,0.9-1.9,1.4-2.8,1.4
		l-1.7-0.6c-12.5-9.1-23.1-20.5-31.3-33.5l-0.5-1.6c0-0.9,0.5-2,1.6-2.9l5.1-4.1c0.7-0.6,1.7-0.9,2.5-0.9s1.3,0.2,1.7,0.8l0,0
		l5.3,7.2c0.6,0.8,0.9,1.7,0.9,2.5s-0.2,1.4-0.8,1.9l0,0l0,0c-0.1,0.1-1.1,0.9-2.1,1.3c-0.7,0.2-1.2,0.7-1.4,1.4s-0.1,1.4,0.3,1.9
		c0,0,2.7,3.9,5.9,7.3c3.2,3.4,6.6,6.1,6.6,6.1c0.6,0.5,1.5,0.6,2.2,0.3s1.2-1,1.3-1.8c0.1-0.7,0.4-1.3,0.9-1.8
		c0.6-0.5,1.2-0.7,1.8-0.7c0.7,0,1.7,0.3,2.6,1.1l6.8,5.8l0.7,1.5c0,0.8-0.4,1.9-1.1,2.7L-225.5-34.2z"/>
	<path d="M-218.8-73.5l7.5-7.5c0.8-0.8,0.8-2.2,0-3.1s-2.2-0.8-3.1,0l-7.5,7.5l-7.5-7.5c-0.8-0.8-2.2-0.8-3.1,0s-0.8,2.2,0,3.1
		l7.5,7.5l-7.5,7.5c-0.8,0.8-0.8,2.2,0,3.1s2.2,0.8,3.1,0l7.5-7.5l7.5,7.5c0.8,0.8,2.2,0.8,3.1,0c0.8-0.8,0.8-2.2,0-3.1L-218.8-73.5
		z"/>
</g>
<g>
	<path d="M-238.4-84.8c-15.6,0-28.2,12.6-28.2,28.2s12.6,28.2,28.2,28.2s28.2-12.6,28.2-28.2C-210.2-72.2-222.8-84.8-238.4-84.8z
		 M-238.4-32.8c-13.2,0-23.8-10.7-23.9-23.9c0-13.2,10.7-23.8,23.9-23.9c13.2,0,23.8,10.7,23.9,23.9
		C-214.5-43.4-225.2-32.8-238.4-32.8z"/>
	<circle cx="-238.2" cy="-42.4" r="2.2"/>
	<path d="M-238.2-75.2c-6,0-10.8,4.8-10.8,10.8c0,1.2,1,2.2,2.2,2.2s2.2-1,2.2-2.2c0-3.6,2.9-6.5,6.5-6.5s6.5,2.9,6.5,6.5
		s-2.9,6.5-6.5,6.5c-1.2,0-2.2,1-2.2,2.2v6.3c0,1.2,1,2.2,2.2,2.2s2.2-1,2.2-2.2v-4.4c4.9-1,8.7-5.4,8.7-10.6
		C-227.3-70.3-232.2-75.2-238.2-75.2z"/>
</g>
<g>
	<path d="M163.1,42.3c-4.9,0-8.9,4-8.9,8.9s4,8.9,8.9,8.9s8.9-4,8.9-8.9S168,42.3,163.1,42.3z M163.1,57.3c-3.4,0-6.2-2.8-6.2-6.2
		s2.8-6.2,6.2-6.2s6.2,2.8,6.2,6.2C169.2,54.5,166.5,57.3,163.1,57.3z"/>
	<circle cx="199" cy="51.1" r="8.9"/>
	<path d="M235,42.3c-4.9,0-8.9,4-8.9,8.9s4,8.9,8.9,8.9s8.9-4,8.9-8.9C243.9,46.2,239.9,42.3,235,42.3z M235,57.3
		c-3.4,0-6.2-2.8-6.2-6.2s2.8-6.2,6.2-6.2s6.2,2.8,6.2,6.2S238.4,57.3,235,57.3z"/>
</g>
<path d="M-223.2-84.8h-30.3c-7.2,0-13.1,5.9-13.1,13.1v30.3c0,7.2,5.9,13.1,13.1,13.1h30.3c7.2,0,13.1-5.9,13.1-13.1v-30.3
	C-210.2-78.9-216-84.8-223.2-84.8z M-214.5-41.5c0,4.8-3.9,8.7-8.7,8.7h-30.3c-4.8,0-8.7-3.9-8.7-8.7v-30.3c0-4.8,3.9-8.7,8.7-8.7
	h30.3c4.8,0,8.7,3.9,8.7,8.7L-214.5-41.5L-214.5-41.5z M-221.6-68.2c0.7,0.7,0.7,1.9,0,2.7l-22.3,22.3l-1.4,0.5l-1.4-0.7l-8.7-10.7
	l0,0c-0.6-0.8-0.5-2,0.3-2.6s2-0.5,2.6,0.3l7.3,9.1l20.9-20.9C-223.5-68.9-222.3-68.9-221.6-68.2z"/>
<path d="M-221.6-69.1c-0.7-0.7-1.9-0.7-2.6,0l-20.9,20.9l-7.3-9.1c-0.6-0.8-1.8-0.9-2.6-0.3c-0.8,0.7-0.9,1.8-0.3,2.6l0,0l8.7,10.7
	l1.4,0.7l1.4-0.5l22.3-22.3C-220.8-67.2-220.8-68.4-221.6-69.1z"/>
<g>
	<path d="M-218.4-76.6c-5.5-5.5-12.8-8.3-20-8.3s-14.5,2.8-20,8.3s-8.3,12.8-8.3,20s2.8,14.5,8.3,20s12.8,8.3,20,8.3
		s14.5-2.8,20-8.3s8.3-12.8,8.3-20C-210.1-63.9-212.8-71.1-218.4-76.6z M-221.4-39.7c-4.7,4.7-10.8,7-16.9,7c-6.1,0-12.3-2.3-16.9-7
		c-4.7-4.7-7-10.8-7-16.9s2.3-12.3,7-16.9c4.7-4.7,10.8-7,16.9-7c6.1,0,12.3,2.3,16.9,7c4.7,4.7,7,10.8,7,16.9
		S-216.7-44.3-221.4-39.7z"/>
	<path d="M-221.6-69.1c-0.7-0.7-1.9-0.7-2.6,0l-20.9,20.9l-7.3-9.1c-0.7-0.8-1.8-0.9-2.6-0.3c-0.8,0.7-0.9,1.8-0.3,2.6l0,0l8.7,10.7
		l1.4,0.7l1.4-0.5l22.3-22.3C-220.8-67.2-220.8-68.4-221.6-69.1z"/>
</g>
<path d="M-213.5-43c-2.9-4.8-7.6-8.8-13.2-11.2c3.2-3.1,5.3-7.4,5.3-12.3l-0.1-1.6c-0.8-7.9-7-14.3-14.9-15.2l-1.9-0.1
	c-9.4,0-16.9,7.6-16.9,17c0,4.8,2,9.2,5.3,12.3c-5.8,2.5-10.6,6.6-13.5,11.6c-0.8,1.3-1.1,2.7-1.1,4.1c0,4.5,3.7,8.6,8.7,8.6h35.1
	c5.1,0,8.6-4.2,8.6-8.6C-212.2-40-212.6-41.6-213.5-43z M-220.8-34.2h-35.1c-2.5,0-4.3-2.1-4.3-4.3c0-0.7,0.2-1.3,0.5-2
	c2.9-5,8.2-9.3,14.7-11.1c0.8-0.2,1.5-1,1.6-1.8s-0.3-1.7-1.1-2.2c-3.8-2.2-6.4-6.3-6.4-11c0-7,5.6-12.6,12.6-12.6l1.4,0.1
	c5.8,0.6,10.6,5.5,11.1,11.3l0.1,1.2c0,4.7-2.6,8.8-6.4,11c-0.8,0.4-1.2,1.3-1.1,2.2c0.1,0.9,0.7,1.6,1.6,1.8
	c6.3,1.7,11.6,5.9,14.5,10.7c0.4,0.8,0.6,1.5,0.6,2.3C-216.6-36.2-218.3-34.2-220.8-34.2z"/>
<g>
	<path d="M-203.7-66.5l-1.5-0.6c-4.4,0-8-3.6-8-8l-0.6-1.5l-1.5-0.6h-46l-1.5,0.6l-0.6,1.5c0,4.4-3.6,8-8,8l-1.5,0.6l-0.6,1.5v16.7
		l0.6,1.5l1.5,0.6c4.4,0,8,3.6,8,8l0.6,1.5l1.5,0.6h46l1.5-0.6l0.6-1.5c0-4.4,3.6-8,8-8l1.5-0.6l0.6-1.5V-65L-203.7-66.5z
		 M-217.3-40.3h-42.1c-0.9-5-4.9-9-9.9-9.9V-63c5-0.9,9-4.9,9.9-9.9h42.1c0.9,5,4.9,9,9.9,9.9v12.8
		C-212.4-49.3-216.4-45.3-217.3-40.3z"/>
	<path d="M-223.3-67.3h-30.1l-1.5,0.6l-0.6,1.5v16.6l0.6,1.5l1.5,0.6h30.1l1.5-0.6l0.6-1.5v-16.6l-0.6-1.5L-223.3-67.3z M-251.2-63
		h25.7v12.2h-25.7V-63L-251.2-63z"/>
</g>
<g>
	<path d="M-204.7-63h0.1c0.9-0.3,1.6-1.1,1.6-2.1v-10l-0.6-1.5l-1.5-0.6h-66.3l-1.5,0.6l-0.6,1.5v10c0,1,0.6,1.8,1.6,2.1h0.1
		c3.1,0.9,4.6,3.5,4.6,6.2s-1.5,5.3-4.7,6.2c-0.9,0.3-1.6,1.1-1.6,2.1V-38l0.6,1.5l1.5,0.6h66.3l1.5-0.6l0.6-1.5v-10.5
		c0-1-0.7-1.8-1.6-2.1c-3.2-0.9-4.7-3.5-4.7-6.2C-209.3-59.6-207.9-62.1-204.7-63z M-213.7-56.9c0,3.9,2.2,7.8,6.3,9.6v7h-62v-7
		c4.1-1.9,6.3-5.8,6.3-9.6c0-3.9-2.2-7.8-6.3-9.6V-73h62v6.5C-211.5-64.6-213.7-60.7-213.7-56.9z"/>
	<path d="M-223.3-67.3h-30.1l-1.5,0.6l-0.6,1.5v16.6l0.6,1.5l1.5,0.6h30.1l1.5-0.6l0.6-1.5v-16.6l-0.6-1.5L-223.3-67.3z M-251.2-63
		h25.7v12.2h-25.7V-63L-251.2-63z"/>
</g>
<g>
	<path d="M-238.1-66.8c4,0,7.2-3.2,7.2-7.2s-3.2-7.2-7.2-7.2s-7.2,3.2-7.2,7.2C-245.4-70.1-242.1-66.8-238.1-66.8z M-238.1-76.9
		c1.6,0,2.9,1.3,2.9,2.9s-1.3,2.9-2.9,2.9c-1.6,0-2.9-1.3-2.9-2.9C-241-75.7-239.7-76.9-238.1-76.9z"/>
	<path d="M-209.1-41.7l-6.2-20.7c-1.1-3.8-3.9-6.7-7.3-8.3l0,0l0,0c0.1-0.8,0.2-1.6,0.2-2.5c0-8.7-7.1-15.8-15.8-15.8
		S-254-81.9-254-73.2c0,0.8,0.1,1.6,0.2,2.3c-3.6,1.6-6.6,4.6-7.7,8.5l-6.2,20.7c-0.4,1.3-0.6,2.6-0.6,3.9c0,7.3,5.9,13.6,13.6,13.6
		h32.5c7.8,0,13.6-6.3,13.6-13.6C-208.5-39.1-208.7-40.4-209.1-41.7z M-238.1-84.7c6.3,0,11.4,5.1,11.4,11.4l-0.1,1.8
		c-0.5,2.7-2,7.1-4.4,11.1c-1.8,3-3.9,5.8-5.6,8c-0.5,0.6-0.8,1-1.2,1.5c-0.3-0.4-0.7-0.9-1.1-1.5c-1.6-2.2-3.7-5.1-5.4-8
		c-2.8-4.5-4.6-9.5-4.8-10.9v-0.1l-0.1-1.9C-249.5-79.6-244.4-84.7-238.1-84.7z M-222.1-28.5h-32.5c-5.3,0-9.3-4.3-9.3-9.3
		c0-0.9,0.1-1.8,0.4-2.7l6.2-20.7c0.8-2.5,2.5-4.5,4.8-5.6c0.9,2.5,2.3,5.5,4.2,8.6c3.7,6.1,8.5,12,8.5,12l1.6,0.8l1.7-0.7
		c0-0.1,5.1-5.7,9-12.1c1.7-2.8,3-5.7,3.8-8.3c2,1.2,3.6,3,4.3,5.4l6.2,20.7c0.3,0.9,0.4,1.8,0.4,2.7
		C-212.9-32.9-216.9-28.5-222.1-28.5z"/>
</g>
<g>
	<path d="M-238.4-84.9c-15.6,0-28.3,12.7-28.3,28.3s12.7,28.3,28.3,28.3s28.3-12.7,28.3-28.3C-210.1-72.3-222.7-84.9-238.4-84.9z
		 M-238.4-32.6c-13.2,0-23.9-10.7-24-24c0-13.2,10.7-23.9,24-24c13.2,0,23.9,10.7,24,24C-214.4-43.4-225.1-32.7-238.4-32.6z"/>
	<path d="M-237.1-55.3l-0.6-1.3v-16.5c0-1.2-1-2.2-2.2-2.2s-2.2,1-2.2,2.2l0,0v16.5c0,1.7,0.7,3.2,1.8,4.4l7.3,7.3
		c0.8,0.8,2.2,0.8,3.1,0s0.8-2.2,0-3.1L-237.1-55.3z"/>
</g>
<g>
	<path d="M-255.1-68.6v-9.5c0-1.2-1-2.2-2.2-2.2s-2.2,1-2.2,2.2v9.5c-2.4,0.9-4.1,3.1-4.1,5.8s1.7,5,4.1,5.8v21.8
		c0,1.2,1,2.2,2.2,2.2s2.2-1,2.2-2.2V-57c2.4-0.9,4.1-3.1,4.1-5.8C-251-65.5-252.8-67.7-255.1-68.6z"/>
	<path d="M-236.3-49.5v-28.6c0-1.2-1-2.2-2.2-2.2s-2.2,1-2.2,2.2v28.8c-2.2,1-3.7,3.2-3.7,5.7s1.5,4.8,3.7,5.7v2.7
		c0,1.2,1,2.2,2.2,2.2s2.2-1,2.2-2.2v-2.5c2.6-0.8,4.5-3.1,4.5-5.9S-233.7-48.7-236.3-49.5z"/>
	<path d="M-213.2-56.5c0-2.8-1.8-5-4.3-5.9v-15.8c0-1.2-1-2.2-2.2-2.2s-2.2,1-2.2,2.2v15.8c-2.3,0.9-3.9,3.2-3.9,5.8
		s1.6,4.9,3.9,5.8v15.6c0,1.2,1,2.2,2.2,2.2s2.2-1,2.2-2.2v-15.5C-215-51.4-213.2-53.7-213.2-56.5z"/>
</g>
<path d="M-225.8-58.8h-39.4c-0.2,0-0.3,0.1-0.4,0.2l14.4-14.4c0.8-0.8,0.8-2.2,0-3.1s-2.2-0.8-3.1,0l0,0L-269-61.4
	c-1.3,1.3-2,3.1-2,4.8s0.7,3.5,2,4.8l14.7,14.7c0.8,0.8,2.2,0.8,3.1,0s0.8-2.2,0-3.1l-14.4-14.4c0.2,0,0.3,0.2,0.4,0.2h39.4
	c8.6,0,15.6,7,15.6,15.6c0,1.2,1,2.2,2.2,2.2s2.2-1,2.2-2.2C-205.8-49.9-214.8-58.8-225.8-58.8z"/>
<path d="M-210.5-66.4v26c0,6.8-5.5,12.3-12.3,12.3h-31.8c-6.8,0-12.3-5.5-12.3-12.3v-31.8c0-6.8,5.5-12.3,12.3-12.3h26
	c1.2,0,2.2,1,2.2,2.2s-1,2.2-2.2,2.2h-26c-4.4,0-8,3.6-8,8v31.8c0,4.4,3.6,8,8,8h31.8c4.4,0,8-3.6,8-8v-26l0,0c0-1.2,1-2.2,2.2-2.2
	C-211.5-68.6-210.5-67.6-210.5-66.4z M-240-57.4l-0.9,2.2l1,1l2.2-0.9c0.8-0.3,1.5-0.8,2.1-1.4l19.3-19.3c0.8-0.8,0.8-2.2,0-3.1
	s-2.2-0.8-3.1,0l-19.3,19.3C-239.2-58.9-239.6-58.2-240-57.4z M-210.8-80.1l0.1-0.1c1.1-1.1,1.1-3,0-4.1s-3-1.1-4.1,0l-0.1,0.1
	c-1.1,1.1-1.1,3,0,4.1C-213.7-79-211.9-79-210.8-80.1z"/>
<g>
	<path d="M-220.4-69.5h-5v-2.2c0-1.2-1-2.2-2.2-2.2s-2.2,1-2.2,2.2v2.2h-9.2c-6.8,0-12.3,5.5-12.3,12.3v9.2h-2.5
		c-1.2,0-2.2,1-2.2,2.2s1,2.2,2.2,2.2h2.5v5c0,6.8,5.5,12.3,12.3,12.3h18.6c6.8,0,12.3-5.5,12.3-12.3v-18.6
		C-208.1-64-213.6-69.5-220.4-69.5z M-212.4-38.7c0,4.4-3.6,8-8,8H-239c-4.4,0-8-3.6-8-8v-18.6c0-4.4,3.6-8,8-8h18.6
		c4.4,0,8,3.6,8,8V-38.7z"/>
	<path d="M-266.5-66.4c1.2,0,2.2-1,2.2-2.2l0,0v-6c0-0.7,0.1-1.3,0.2-1.9c0.3-1.2-0.4-2.3-1.6-2.6c-1.2-0.3-2.3,0.4-2.6,1.6
		c-0.2,0.9-0.4,1.9-0.4,3v6C-268.7-67.4-267.7-66.4-266.5-66.4z"/>
	<path d="M-262.4-50.8c-1.2-1.4-1.9-3.2-1.9-5.2v-1.3c0-1.2-1-2.2-2.2-2.2s-2.2,1-2.2,2.2v1.3c0,3,1.1,5.9,3,8
		c0.8,0.9,2.2,1,3.1,0.2C-261.7-48.5-261.6-49.9-262.4-50.8L-262.4-50.8z"/>
	<path d="M-238.8-82.5h1c2,0,3.9,0.8,5.3,2c0.9,0.8,2.3,0.7,3.1-0.2s0.7-2.3-0.2-3.1c-2.2-2-5.1-3.2-8.2-3.2h-1
		c-1.2,0-2.2,1-2.2,2.2S-240-82.5-238.8-82.5z"/>
	<path d="M-258.1-82.4L-258.1-82.4L-258.1-82.4z"/>
	<path d="M-250.1-82.5c1.2,0,2.2-1,2.2-2.2s-1-2.2-2.2-2.2h-6.3c-0.9,0-1.8,0.1-2.7,0.3c-1.2,0.3-1.9,1.4-1.7,2.6
		c0.3,1.2,1.4,1.9,2.6,1.7l1.7-0.2L-250.1-82.5L-250.1-82.5z"/>
</g>
<path d="M-209.9-60.3l-22.3-22c-1.7-1.7-3.9-2.5-6.1-2.5c-2.2,0-4.4,0.8-6.1,2.5l-22.3,22c-0.9,0.8-0.9,2.2,0,3.1
	c0.8,0.9,2.2,0.9,3.1,0l4.4-4.3v30.8l0.6,1.5l1.5,0.6h12.1l1.5-0.6l0.6-1.5v-13.1c0-2.5,2-4.5,4.5-4.5s4.5,2,4.5,4.5v13.1l0.6,1.5
	l1.5,0.6h12.3l1.5-0.6l0.6-1.5v-30.8l4.4,4.3c0.9,0.8,2.2,0.8,3.1,0C-209-58.1-209-59.5-209.9-60.3z M-221.7-32.8h-7.9v-11
	c0-4.9-4-8.9-8.9-8.9s-8.9,4-8.9,8.9v11h-7.8v-32.9l13.6-13.4c0.9-0.8,2-1.3,3.1-1.3s2.2,0.4,3.1,1.3l13.6,13.4L-221.7-32.8
	L-221.7-32.8z"/>
<path d="M-259.8-71.3h42.8c3.7,0,6.7-3,6.7-6.7s-3-6.7-6.7-6.7h-42.8c-3.7,0-6.7,3-6.7,6.7S-263.5-71.3-259.8-71.3z M-259.8-80.3
	h42.8c1.3,0,2.3,1.1,2.3,2.3c0,1.3-1.1,2.3-2.3,2.3h-42.8c-1.3,0-2.3-1.1-2.3-2.3C-262.1-79.3-261-80.3-259.8-80.3z M-217-41.9
	h-42.8c-3.7,0-6.7,3-6.7,6.7s3,6.7,6.7,6.7h42.8c3.7,0,6.7-3,6.7-6.7C-210.3-38.9-213.3-41.9-217-41.9z M-217-32.9h-42.8
	c-1.3,0-2.3-1.1-2.3-2.3c0-1.3,1.1-2.3,2.3-2.3h42.8c1.3,0,2.3,1.1,2.3,2.3C-214.6-33.9-215.7-32.9-217-32.9z M-217-63.3h-42.8
	c-3.7,0-6.7,3-6.7,6.7l0,0c0,3.7,3,6.7,6.7,6.7h42.8c3.7,0,6.7-3,6.7-6.7l0,0C-210.3-60.3-213.3-63.3-217-63.3z M-214.6-56.6
	c0,1.3-1.1,2.3-2.3,2.3h-42.8c-1.3,0-2.3-1.1-2.3-2.3l0,0c0-1.3,1.1-2.3,2.3-2.3h42.8C-215.7-58.9-214.6-57.9-214.6-56.6
	L-214.6-56.6z"/>
<path d="M-239-80v2.2c4,0,7.7,1.8,10.4,4.9s4.5,7.3,4.4,12v12.8c0.1,1.9,1,3.2,2,4.7c1.6,2.2,3.7,4.6,5.5,6.6c0.9,1,1.7,1.9,2.2,2.6
	l0.5,0.8v0.1l1.1-0.4h-1.1v0.4l1.1-0.4h-1.1h1.8l-1-1.4l-0.7,1.4h1.8l-1-1.4l0.8,1.1v-1.4l-0.8,0.3l0.8,1.1v-1.4h-51.9v1.4l0.8-1
	l-0.8-0.3v1.4l0.8-1l-1,1.3h1.7l-0.7-1.3l-1,1.3h1.7h-0.7l0.7,0.2v-0.2h-0.7l0.7,0.2c0-0.2,0.7-1.2,1.5-2.3c1.3-1.7,3.1-3.8,4.6-5.9
	c0.8-1.1,1.4-2.1,2-3.1c0.5-1,1-2,1-3.3v-12.8c0-4.7,1.7-9,4.4-12c2.7-3.1,6.4-4.9,10.4-4.9L-239-80v-2.2
	c-10.8,0-19.2,9.7-19.2,21.3v12.8c0,0-0.3,1.1-1.1,2.3c-1.2,1.8-3,4.1-4.6,6.2c-0.8,1-1.5,2-2.1,2.9l-0.8,1.3
	c-0.2,0.5-0.4,0.9-0.4,1.7c0,0.6,0.3,1.6,1,2.1c0.7,0.5,1.4,0.6,1.9,0.6h51.9c0.5,0,1.1-0.1,1.8-0.5c0.7-0.5,1.1-1.5,1-2.1
	c-0.1-1.1-0.4-1.6-0.8-2.2c-1.2-1.9-3.6-4.4-5.8-7c-1.1-1.3-2.1-2.5-2.7-3.5l-0.7-1.3l-0.1-0.4v-0.1v-12.8
	c0-11.5-8.4-21.2-19.2-21.3L-239-80L-239-80z"/>
<path d="M-232.7-61.1l0.1,1.4l2.2-0.2h-2.2c0,3.2-2.6,5.8-5.8,5.8s-5.8-2.6-5.8-5.8h-2.2l2.2,0.2l0.1-1.4c0.1-1.2-0.8-2.2-2-2.4
	c-1.2-0.1-2.2,0.8-2.4,2l-0.1,1.4v0.2c0,5.6,4.5,10.1,10.1,10.1s10.1-4.5,10.1-10.1v-0.2l-0.1-1.4c-0.1-1.2-1.2-2.1-2.4-2
	C-231.9-63.3-232.8-62.3-232.7-61.1L-232.7-61.1z"/>
<path d="M-210.1-85.5c-1-0.6-2.2-1-3.8-1c-2.5,0-46,0-48.9,0c-1.7,0-2.9,0.2-4.1,1l-1.2,1.6l-0.2,1.5c0,1.3,0.3,2.6,1.2,3.5
	c2.6,2.7,13.6,13.7,18.8,19l0.1,0.3l0.1,0.3c0,3,0.1,6.1,0.1,9.1c0,2.7,0,5.4,0,8.1l0,0v0.1c0,1.6,0.6,3.3,1.8,4.3
	c3.1,3,6.2,6.1,9.3,9.2l0.2,0.2l1.1,0.9l0.4,0.3c0.6,0.3,1.3,0.5,2.1,0.5c1.3,0,2.6-0.7,3.4-1.7c0.8-1,1.2-2.3,1.2-3.6
	c0-4.2,0-8.3,0-12.5c0-4.9,0-9.8,0-14.7l0,0l0.3-0.9c5.3-5.2,18.3-18.4,18.7-18.9l0.6-1l0.5-2.2l0.1-0.5
	C-208.5-84-209.1-84.9-210.1-85.5z M-231.4-63.2c-1.1,1-1.7,2.6-1.6,4l0,0l0,0c0,4.9,0,9.8,0,14.7c0,4.2,0,8.3,0,12.5l-0.2,0.9l0,0
	l0,0l-0.7-0.6c-3.1-3-6.1-6.1-9.2-9.2c-0.5-0.5-0.5-0.6-0.5-1.2l0,0c0-2.7,0-5.4,0-8.1c0-3.1,0-6.1,0-9.2c-0.1-1.4-0.5-2.5-1.5-3.5
	c-5.2-5.2-15.9-16.1-18.7-18.9V-82l1.1-0.1c2.9,0,46.4,0,48.9,0c0.4,0,0.6,0,0.9,0.1l-0.1,0.5C-215.2-79.5-226.5-68-231.4-63.2z"/>
<path d="M-243.6-84.7h-20.7l-1.5,0.6l-0.6,1.5v20.7l0.6,1.5l1.5,0.6h20.7l1.5-0.6l0.6-1.5v-20.7l-0.6-1.5L-243.6-84.7z M-245.7-64
	h-16.4v-16.4h16.4L-245.7-64L-245.7-64z M-210.9-84.1l-1.5-0.6h-20.7l-1.5,0.6l-0.6,1.5v20.7l0.6,1.5l1.5,0.6h20.7l1.5-0.6l0.6-1.5
	v-20.7L-210.9-84.1z M-214.6-64H-231v-16.4h16.4V-64z M-243.6-53.6h-20.7l-1.5,0.6l-0.6,1.5v20.7l0.6,1.5l1.5,0.6h20.7l1.5-0.6
	l0.6-1.5v-20.7L-242-53L-243.6-53.6z M-245.7-32.9h-16.4v-16.4h16.4L-245.7-32.9L-245.7-32.9z M-212.5-53.6h-20.7l-1.5,0.6l-0.6,1.5
	v20.7l0.6,1.5l1.5,0.6h20.7l1.5-0.6l0.6-1.5v-20.7L-211-53L-212.5-53.6z M-214.6-32.9H-231v-16.4h16.4V-32.9z"/>
<g>
	<path d="M-222.6-81.9h-31.5c-6.8,0-12.3,5.5-12.3,12.3v11.9c0,6.8,5.5,12.3,12.3,12.3c0,0,2.4,0,5.2,0c2.7,0,5.7,0,7.3,0
		c0.3,0.1,1.4,1,2.6,2.3c4.1,4,10.4,11.5,19.2,11.6c0.8,0,1.5-0.4,1.9-1.1s0.4-1.5-0.1-2.2c-2.7-4.3-3.3-7.3-3.3-9.2
		c0-0.7,0.1-1.2,0.2-1.6c6-0.8,10.7-5.9,10.7-12.2v-11.9C-210.3-76.3-215.8-81.9-222.6-81.9z M-214.6-57.6c0,4.4-3.6,8-8,8
		c-0.8,0-1.5,0.4-1.9,1c-0.2,0.3-1.1,1.9-1.1,4.7c0,1.9,0.5,4.4,1.7,7.3c-2.8-1.1-5.6-3.2-8-5.5c-1.8-1.7-3.4-3.4-4.8-4.8
		c-0.7-0.7-1.4-1.3-2.1-1.8c-0.7-0.5-1.4-1-2.6-1c-3,0-12.7,0-12.7,0c-4.4,0-8-3.6-8-8v-11.9c0-4.4,3.6-8,8-8h31.5c4.4,0,8,3.6,8,8
		L-214.6-57.6L-214.6-57.6z"/>
	<path d="M-223.9-70.7h-29c-1.2,0-2.2,1-2.2,2.2s1,2.2,2.2,2.2h29c1.2,0,2.2-1,2.2-2.2S-222.7-70.7-223.9-70.7z"/>
	<path d="M-223.9-60.9h-29c-1.2,0-2.2,1-2.2,2.2s1,2.2,2.2,2.2h29c1.2,0,2.2-1,2.2-2.2S-222.7-60.9-223.9-60.9z"/>
</g>
<g>
	<path d="M-219.7-73.1c-1.2,0-2.2,1-2.2,2.2l0,0v31.5c0,4.4-3.6,8-8,8h-17c-4.4,0-8-3.6-8-8V-71c0-1.2-1-2.2-2.2-2.2s-2.2,1-2.2,2.2
		v31.5c0,6.8,5.5,12.3,12.3,12.3h17c6.8,0,12.3-5.5,12.3-12.3V-71C-217.5-72.2-218.5-73.1-219.7-73.1z"/>
	<path d="M-236.2-37.9v-29.3c0-1.2-1-2.2-2.2-2.2s-2.2,1-2.2,2.2v29.3c0,1.2,1,2.2,2.2,2.2C-237.2-35.7-236.2-36.7-236.2-37.9z"/>
	<path d="M-213.1-79.1h-14.7v-0.3c0-3.7-3-6.7-6.7-6.7h-7.7c-3.7,0-6.7,3-6.7,6.7v0.3h-14.7c-1.2,0-2.2,1-2.2,2.2s1,2.2,2.2,2.2
		h50.6c1.2,0,2.2-1,2.2-2.2C-210.9-78.1-211.9-79.1-213.1-79.1z M-244.6-79.4c0-1.3,1.1-2.4,2.4-2.4h7.7c1.3,0,2.4,1.1,2.4,2.4v0.3
		h-12.4L-244.6-79.4L-244.6-79.4z"/>
	<path d="M-228.2-35.7c1.2,0,2.2-1,2.2-2.2v-29.3c0-1.2-1-2.2-2.2-2.2s-2.2,1-2.2,2.2v29.3C-230.4-36.7-229.4-35.7-228.2-35.7z"/>
	<path d="M-246.4-37.9v-29.3c0-1.2-1-2.2-2.2-2.2s-2.2,1-2.2,2.2v29.3c0,1.2,1,2.2,2.2,2.2C-247.3-35.7-246.4-36.7-246.4-37.9z"/>
</g>
<g>
	<path d="M-219.2-73.1c-1.2-0.1-2.3,0.8-2.4,2l0,0l-2.9,31.5v0.2c0,2.3-0.8,4.3-2,5.7s-2.8,2.2-4.6,2.2h-14.7
		c-1.7,0-3.3-0.8-4.6-2.2c-1.2-1.4-2-3.5-2-5.7v-0.2l-2.9-31.5c-0.1-1.2-1.2-2.1-2.4-2c-1.2,0.1-2.1,1.2-2,2.4l2.9,31.5l0,0
		c0,3.2,1.2,6.2,3.1,8.4c1.9,2.2,4.7,3.7,7.8,3.7h14.7c3.1,0,5.9-1.5,7.8-3.7c1.9-2.2,3-5.2,3.1-8.4l0,0l2.9-31.5
		C-217.1-72-218-73-219.2-73.1z"/>
	<path d="M-213.1-79.1h-14.7v-0.3c0-3.7-3-6.7-6.7-6.7h-7.7c-3.7,0-6.7,3-6.7,6.7v0.3h-14.7c-1.2,0-2.2,1-2.2,2.2s1,2.2,2.2,2.2
		h50.6c1.2,0,2.2-1,2.2-2.2C-210.9-78.1-211.9-79.1-213.1-79.1z M-244.6-79.4c0-1.3,1.1-2.4,2.4-2.4h7.7c1.3,0,2.4,1.1,2.4,2.4v0.3
		h-12.4L-244.6-79.4L-244.6-79.4z"/>
	<path d="M-230.4-37.8l1.4-29.3c0.1-1.2-0.9-2.2-2.1-2.3s-2.2,0.9-2.3,2.1l-1.4,29.3c-0.1,1.2,0.9,2.2,2.1,2.3
		C-231.5-35.7-230.5-36.6-230.4-37.8z"/>
	<path d="M-244.1-35.7c1.2-0.1,2.1-1.1,2.1-2.3l-1.4-29.3c-0.1-1.2-1.1-2.1-2.3-2.1s-2.1,1.1-2.1,2.3l1.4,29.3
		C-246.3-36.6-245.3-35.7-244.1-35.7z"/>
</g>
<path d="M-210.9-58.2l-8.4-8.4c-0.8-0.8-2.2-0.8-3.1,0c-0.8,0.8-0.8,2.2,0,3.1l0,0l4.7,4.7h-18.5v-18.5l4.7,4.7
	c0.8,0.8,2.2,0.8,3.1,0c0.8-0.8,0.9-2.2,0-3.1l-8.4-8.4c-0.4-0.4-0.9-0.6-1.5-0.6s-1.1,0.2-1.5,0.6l-8.4,8.4c-0.8,0.8-0.8,2.2,0,3.1
	c0.9,0.8,2.2,0.8,3.1,0l0,0l4.7-4.7v18.5H-259l4.7-4.7c0.8-0.8,0.8-2.2,0-3.1s-2.2-0.8-3.1,0l-8.4,8.4c-0.4,0.4-0.6,0.9-0.6,1.5
	s0.2,1.1,0.6,1.5l8.4,8.4c0.8,0.8,2.2,0.8,3.1,0s0.9-2.2,0-3.1l0,0l-4.7-4.7h18.5V-36l-4.7-4.7c-0.8-0.8-2.2-0.8-3.1,0
	s-0.8,2.2,0,3.1l8.4,8.4c0.4,0.4,0.9,0.6,1.5,0.6s1.1-0.2,1.5-0.6l8.4-8.4c0.8-0.8,0.8-2.2,0-3.1s-2.2-0.8-3.1,0l-4.7,4.7v-18.5
	h18.5l-4.7,4.7c-0.8,0.8-0.8,2.2,0,3.1c0.9,0.8,2.2,0.8,3.1,0l8.4-8.4c0.4-0.4,0.6-0.9,0.6-1.5C-210.3-57.2-210.5-57.8-210.9-58.2z"
	/>
<path d="M-220.1-60.9c1.2,0,2.2-1,2.2-2.2V-75c0-0.6-0.2-1.1-0.6-1.5c-0.4-0.4-1-0.6-1.5-0.6h-12c-1.2,0-2.2,1-2.2,2.2
	s1,2.2,2.2,2.2h6.7l-13.1,13.1l-13.1-13.1h6.7c1.2,0,2.2-1,2.2-2.2s-1-2.2-2.2-2.2h-11.9c-0.6,0-1.1,0.2-1.5,0.6s-0.6,1-0.6,1.5v12
	c0,1.2,1,2.2,2.2,2.2c1.2,0,2.2-1,2.2-2.2l0,0v-6.7l13.1,13.1l-13.1,13.1v-6.7c0-1.2-1-2.2-2.2-2.2c-1.2,0-2.2,1-2.2,2.2v11.9
	c0,0.6,0.2,1.1,0.6,1.5l1.5,0.6h11.9c1.2,0,2.2-1,2.2-2.2s-1-2.2-2.2-2.2h-6.7l13.1-13.1l13.1,13.1h-6.7c-1.2,0-2.2,1-2.2,2.2
	s1,2.2,2.2,2.2h11.9l1.5-0.6c0.4-0.4,0.6-1,0.6-1.5v-11.9c0-1.2-1-2.2-2.2-2.2s-2.2,1-2.2,2.2v6.7l-13.1-13.1l13.1-13.1v6.7
	C-222.2-61.8-221.3-60.9-220.1-60.9z"/>
<g>
	<path d="M-234-58.8h11.9c1.2,0,2.2-1,2.2-2.2s-1-2.2-2.2-2.2h-6.7l10.3-10.3c0.8-0.8,0.8-2.2,0-3.1s-2.2-0.8-3.1,0l-10.3,10.3V-73
		c0-1.2-1-2.2-2.2-2.2s-2.2,1-2.2,2.2v12c0,0.6,0.2,1.1,0.6,1.5L-234-58.8z"/>
	<path d="M-242.7-75c-1.2,0-2.2,1-2.2,2.2v6.7l-10.3-10.3c-0.8-0.8-2.2-0.8-3.1,0s-0.8,2.2,0,3.1L-248-63h-6.7c-1.2,0-2.2,1-2.2,2.2
		s1,2.2,2.2,2.2h11.9l1.5-0.6l0.6-1.5v-11.9C-240.6-74.1-241.5-75-242.7-75z"/>
	<path d="M-242.7-54.4h-11.9c-1.2,0-2.2,1-2.2,2.2s1,2.2,2.2,2.2h6.7l-10.3,10.3c-0.8,0.8-0.8,2.2,0,3.1s2.2,0.8,3.1,0l10.3-10.3
		v6.7c0,1.2,1,2.2,2.2,2.2s2.2-1,2.2-2.2v-11.9l-0.6-1.5L-242.7-54.4z"/>
	<path d="M-228.8-50.1h6.7c1.2,0,2.2-1,2.2-2.2s-1-2.2-2.2-2.2H-234l-1.5,0.6l-0.6,1.5v11.9c0,1.2,1,2.2,2.2,2.2s2.2-1,2.2-2.2l0,0
		V-47l10.3,10.3c0.8,0.8,2.2,0.8,3.1,0s0.8-2.2,0-3.1L-228.8-50.1z"/>
</g>
<path d="M-213.9-39.5c-0.9-0.8-2.3-0.7-3.1,0.3l0,0c-4.4,5.3-11,8.6-18.4,8.6c-13.2,0-23.9-10.7-24-24c0-13.2,10.7-23.9,24-24
	c5,0,9.6,1.5,13.5,4.1l-7.1,1.2c-1.2,0.2-2,1.3-1.8,2.5s1.3,2,2.5,1.8l11.7-2.1l0.6-0.4c0.2-0.1,0.4-0.1,0.5-0.2c0,0,0-0.1,0.1-0.1
	l0.2-0.1l0.2-0.9c0-0.2,0.1-0.3,0.1-0.5l0.1-0.3l-2.1-11.7c-0.2-1.2-1.3-2-2.5-1.8s-2,1.3-1.8,2.5l0,0l1.1,6.1
	c-4.4-2.9-9.7-4.6-15.4-4.6c-15.6,0-28.3,12.7-28.3,28.3s12.7,28.3,28.3,28.3c8.7,0,16.5-4,21.7-10.2
	C-212.8-37.3-213-38.7-213.9-39.5z"/>
<path d="M-219.6-55.1c-1-0.7-2.3-0.5-3,0.5l-3.6,5.1c-1.1-5.2-3.6-10.1-7.6-14.1c-5.5-5.5-12.8-8.3-20-8.3c-0.7,0-1.5,0-2.2,0.1
	c-1.2,0.1-2.1,1.1-2,2.3c0.1,1.2,1.1,2.1,2.3,2l1.9-0.1c6.1,0,12.3,2.3,16.9,7c3.5,3.5,5.7,7.9,6.6,12.5l-5.9-4.1
	c-1-0.7-2.3-0.5-3,0.5s-0.4,2.3,0.5,3l9.8,6.8l0.7,0.2c0.2,0,0.3,0.2,0.5,0.2c0.1,0,0.1-0.1,0.1-0.1l0.3,0.1l0.7-0.5
	c0.1-0.1,0.3-0.1,0.4-0.3l0.2-0.1l6.8-9.8C-218.4-53-218.6-54.4-219.6-55.1z"/>
<g>
	<path d="M-212.5-58.8c-1.2,0-2.2,1-2.2,2.2c0,5-4.1,9.1-9.1,9.1h-9.1h-19.2h-3.1l5-5c0.8-0.8,0.8-2.2,0-3.1s-2.2-0.8-3.1,0
		l-8.8,8.8c-0.4,0.4-0.6,1-0.6,1.5l0,0c0,0.6,0.2,1.1,0.6,1.5l8.8,8.8c0.8,0.8,2.2,0.8,3.1,0s0.8-2.2,0-3.1l-5-5h3.1h19.2h9.1
		c7.4,0,13.5-6.1,13.5-13.5C-210.3-57.8-211.3-58.8-212.5-58.8z"/>
	<path d="M-253-65.8h31.5l-5,5c-0.9,0.8-0.9,2.2,0,3.1c0.8,0.8,2.2,0.8,3.1,0l8.8-8.8c0.4-0.4,0.6-0.9,0.6-1.5s-0.2-1.1-0.6-1.5
		l-8.8-8.8c-0.9-0.8-2.2-0.8-3.1,0s-0.8,2.2,0,3.1l5,5H-253c-7.4,0-13.5,6.1-13.5,13.5c0,1.2,1,2.2,2.2,2.2s2.2-1,2.2-2.2
		C-262.1-61.6-258-65.7-253-65.8z"/>
</g>
<g>
	<path d="M-236.2-56.6c0-4.3,3.5-7.8,7.8-7.8h10.8l-2.3,2.3c-0.8,0.8-0.8,2.2,0,3.1c0.9,0.8,2.2,0.8,3.1,0l6-6l0.6-1.5l-0.6-1.5
		l-6-6c-0.8-0.8-2.2-0.8-3.1,0s-0.8,2.2,0,3.1l0,0l2.3,2.3h-10.8c-6.7,0-12.2,5.5-12.2,12.2c0,4.3-3.5,7.8-7.8,7.8h-16.1
		c-1.2,0-2.2,1-2.2,2.2s1,2.2,2.2,2.2h16.1C-241.7-44.5-236.2-49.9-236.2-56.6L-236.2-56.6L-236.2-56.6z"/>
	<path d="M-264.4-64.4h16.1c1.1,0,2,0.2,3,0.6c1.1,0.5,2.4-0.1,2.8-1.2c0.5-1.1-0.1-2.4-1.2-2.8c-1.4-0.6-3-0.9-4.6-0.9h-16.1
		c-1.2,0-2.2,1-2.2,2.2S-265.6-64.4-264.4-64.4z"/>
	<path d="M-216.8-54.2c-0.8-0.8-2.2-0.8-3.1,0s-0.8,2.2,0,3.1l0,0l2.3,2.3h-10.8c-1.1,0-2-0.2-3-0.6c-1.1-0.5-2.4,0.1-2.8,1.2
		c-0.5,1.1,0.1,2.4,1.2,2.8l0,0c1.4,0.6,3,0.9,4.6,0.9h10.8l-2.3,2.3c-0.8,0.8-0.8,2.2,0,3.1c0.9,0.8,2.2,0.8,3.1,0l6-6
		c0.4-0.4,0.6-0.9,0.6-1.5s-0.2-1.1-0.6-1.5L-216.8-54.2z"/>
</g>
<g>
	<path d="M-257.5-70.2h21.4c1.2,0,2.2-1,2.2-2.2s-1-2.2-2.2-2.2h-21.4c-1.2,0-2.2,1-2.2,2.2S-258.7-70.2-257.5-70.2z"/>
	<path d="M-218.3-68.9h-7.2v-4.3c0-5.3-4.3-9.7-9.7-9.7h-23.3c-5.3,0-9.7,4.3-9.7,9.7v8.8c0,4.7,3.5,8.5,8,9.3
		c0,0.2,0.1,0.5,0.1,0.8c0,1.3-0.4,3.4-2.3,6.5c-0.4,0.7-0.4,1.5-0.1,2.2c0.4,0.7,1.1,1.1,1.9,1.1c3.9-0.1,7.1-2,9.7-4.1
		c0.9,4.4,4.6,7.8,9.3,7.8c0,0,1.8,0,3.9,0c1.9,0,4,0,5.2,0l0,0c0.4,0.3,1.3,1.1,2.3,2.1c3,3,7.6,8,14,8.2c0.8,0,1.5-0.4,1.9-1.1
		c0.4-0.7,0.4-1.5-0.1-2.2c-1.9-3.1-2.3-5.2-2.3-6.5l0.1-0.8c4.5-0.8,7.9-4.6,7.9-9.3v-8.8C-208.6-64.5-213-68.8-218.3-68.9z
		 M-263.8-64.3v-8.8c0-2.9,2.4-5.3,5.3-5.3h23.3c2.9,0,5.3,2.4,5.3,5.3v4.3h-11.7c-1.9,0-3.5,0.7-5,1.6c-0.1,0-0.1-0.1-0.2-0.1
		h-10.7c-1.2,0-2.2,1-2.2,2.2c0,1.2,1,2.2,2.2,2.2h7c-0.5,1.2-0.8,2.4-0.8,3.8v5.2c-1.6,1.6-3.4,3-5.2,4c0.5-1.6,0.8-3.1,0.8-4.2
		c0-2.2-0.7-3.5-0.9-3.8c-0.4-0.6-1.1-1-1.9-1C-261.4-59-263.8-61.4-263.8-64.3z M-213-50.4c0,2.9-2.4,5.3-5.3,5.3
		c-0.8,0-1.5,0.4-1.9,1c-0.2,0.3-0.9,1.6-0.9,3.8c0,1.2,0.2,2.6,0.8,4.3c-1.6-0.8-3.1-2-4.5-3.4c-1.3-1.2-2.5-2.5-3.6-3.5l-1.6-1.4
		c-0.6-0.4-1.1-0.8-2.3-0.8c-2.2,0-9.4,0-9.4,0c-2.9,0-5.3-2.4-5.3-5.3v-8.8c0-2.9,2.4-5.3,5.3-5.3h23.3c2.9,0,5.3,2.4,5.3,5.3
		L-213-50.4L-213-50.4z"/>
	<path d="M-219.2-60.6h-21.4c-1.2,0-2.2,1-2.2,2.2s1,2.2,2.2,2.2h21.4c1.2,0,2.2-1,2.2-2.2S-218-60.6-219.2-60.6z"/>
	<path d="M-219.2-53.3h-21.4c-1.2,0-2.2,1-2.2,2.2s1,2.2,2.2,2.2h21.4c1.2,0,2.2-1,2.2-2.2S-218-53.3-219.2-53.3z"/>
</g>
<g>
	<path d="M-217.8-39.2L-217.8-39.2c-4.4,5.3-11,8.6-18.4,8.6c-13.2,0-23.9-10.7-24-24c0-13.2,10.7-23.9,24-24c5,0,9.6,1.5,13.5,4.2
		l-7.1,1.2c-1.2,0.2-2,1.3-1.8,2.5s1.3,2,2.5,1.8l11.7-2.1l0.6-0.4c0.2-0.1,0.4-0.1,0.5-0.2c0,0,0-0.1,0.1-0.1l0.2-0.1l0.2-0.9
		c0-0.2,0.1-0.3,0.1-0.5l0.1-0.3l-2.1-11.7c-0.2-1.2-1.3-2-2.5-1.8s-2,1.3-1.8,2.5l0,0l1.1,6.1c-4.4-2.9-9.7-4.6-15.4-4.6
		c-15.6,0-28.3,12.7-28.3,28.3s12.7,28.3,28.3,28.3c8.7,0,16.5-4,21.7-10.2c0.8-0.9,0.6-2.3-0.3-3.1
		C-215.7-40.2-217.1-40.1-217.8-39.2z"/>
	<polygon points="-246.6,-47.8 -246.6,-61.3 -249.2,-61.3 -252.4,-59.1 -252.4,-56.5 -249.6,-58.3 -249.6,-47.8 	"/>
	<path d="M-244.1-51.6c0,2.6,2.3,4,5.3,4s5.3-1.5,5.3-4.1c0-1.6-0.9-2.8-2.5-3.3c1.2-0.5,2-1.5,2-2.8c0-2.3-2.1-3.7-4.7-3.7
		c-2.5,0-4.8,1.3-4.8,3.7c0,1.4,0.7,2.3,2,2.8C-243.1-54.4-244.1-53.2-244.1-51.6z M-238.8-59.3c1.1,0,1.9,0.7,1.9,1.7
		c0,1.1-0.8,1.8-1.9,1.8c-1.1,0-1.9-0.7-1.9-1.8S-239.9-59.3-238.8-59.3z M-238.8-54c1.3,0,2.2,0.7,2.2,2.1c0,1.3-1,2.1-2.2,2.1
		s-2.2-0.7-2.2-2.1C-241-53.2-240-54-238.8-54z"/>
	<path d="M-232.1-54.8v0.6c0,4.1,2.3,6.6,5.9,6.6c3.6,0,5.9-2.6,5.9-6.7v-0.6c0-4.2-2.4-6.6-5.9-6.6
		C-229.7-61.5-232.1-59-232.1-54.8z M-223.4-54.9v0.6c0,2.8-0.9,4.3-2.8,4.3c-1.9,0-2.9-1.4-2.9-4.2v-0.6c0-2.8,1-4.2,2.8-4.2
		C-224.4-59.1-223.4-57.6-223.4-54.9z"/>
	<path d="M-215.4-61.4c-1.8,0-3.2,1.4-3.2,3.2c0,1.7,1.5,3.1,3.2,3.1c1.8,0,3.2-1.4,3.2-3.1C-212.2-60-213.7-61.4-215.4-61.4z
		 M-215.4-56.4c-1,0-1.8-0.8-1.8-1.9c0-1.1,0.7-1.9,1.8-1.9c1,0,1.7,0.8,1.7,1.9S-214.4-56.4-215.4-56.4z"/>
</g>
<g>
	<path d="M-212.7-64c-5.5-5.5-13.1-8.9-21.5-8.9c-16.8,0-30.4,13.6-30.4,30.4c0,1.2,1,2.2,2.2,2.2s2.2-1,2.2-2.2
		c0-14.4,11.7-26,26.1-26.1c7.2,0,13.7,2.9,18.4,7.6c0.8,0.8,2.2,0.8,3.1,0C-211.9-61.8-211.9-63.2-212.7-64z"/>
	<path d="M-234.2-63.9c-11.8,0-21.4,9.6-21.4,21.4c0,1.2,1,2.2,2.2,2.2s2.2-1,2.2-2.2l0,0c0-9.4,7.6-17,17.1-17.1
		c4.7,0,9,1.9,12.1,5c0.8,0.8,2.2,0.8,3.1,0c0.9-0.8,0.9-2.2,0-3.1C-223-61.5-228.3-63.9-234.2-63.9z"/>
	<path d="M-225.4-51.3c-2.2-2.2-5.4-3.6-8.8-3.6c-6.9,0-12.4,5.6-12.4,12.4c0,1.2,1,2.2,2.2,2.2s2.2-1,2.2-2.2
		c0-4.5,3.6-8.1,8.1-8.1c2.2,0,4.2,0.9,5.7,2.4c0.8,0.8,2.2,0.8,3.1,0S-224.6-50.4-225.4-51.3L-225.4-51.3z"/>
</g>
<g>
	<path d="M-230.1-70.4c0.8,0.8,2.2,0.8,3.1,0s0.8-2.2,0-3.1l-9.9-9.9l-1.5-0.6l-1.5,0.6l-9.9,9.9c-0.8,0.8-0.8,2.2,0,3.1
		c0.9,0.8,2.2,0.8,3.1,0l6.2-6.2v45.2c0,1.2,1,2.2,2.2,2.2s2.2-1,2.2-2.2v-45.2L-230.1-70.4z"/>
	<path d="M-209.1-55l-9.9-9.9l-1.5-0.6l-1.5,0.6l-9.9,9.9c-0.8,0.8-0.8,2.2,0,3.1s2.2,0.8,3.1,0l6.2-6.2v26.7c0,1.2,1,2.2,2.2,2.2
		s2.2-1,2.2-2.2v-26.7l6.2,6.2c0.8,0.8,2.2,0.8,3.1,0C-208.2-52.8-208.2-54.2-209.1-55z"/>
	<path d="M-254.7-52.5l-1.5-0.6l-1.5,0.6l-9.9,9.9c-0.8,0.8-0.8,2.2,0,3.1c0.8,0.8,2.2,0.8,3.1,0l6.2-6.2v14.3c0,1.2,1,2.2,2.2,2.2
		c1.2,0,2.2-1,2.2-2.2v-14.3l6.2,6.2c0.8,0.8,2.2,0.8,3.1,0s0.9-2.2,0-3.1L-254.7-52.5z"/>
</g>
<g>
	<path d="M-264.5-63c-1.2,0-2.2,1-2.2,2.2v8.3c0,1.2,1,2.2,2.2,2.2s2.2-1,2.2-2.2v-8.3C-262.3-62-263.3-63-264.5-63z"/>
	<path d="M-255.8-68.6c-1.2,0-2.2,1-2.2,2.2v19.6c0,1.2,1,2.2,2.2,2.2s2.2-1,2.2-2.2v-19.6C-253.6-67.6-254.6-68.6-255.8-68.6z"/>
	<path d="M-247.1-77c-1.2,0-2.2,1-2.2,2.2v36.5c0,1.2,1,2.2,2.2,2.2s2.2-1,2.2-2.2v-36.5C-244.9-76.1-245.9-77-247.1-77z"/>
	<path d="M-238.4-73.4c-1.2,0-2.2,1-2.2,2.2V-42c0,1.2,1,2.2,2.2,2.2s2.2-1,2.2-2.2v-29.2C-236.2-72.4-237.2-73.4-238.4-73.4z"/>
	<path d="M-229.7-83.6c-1.2,0-2.2,1-2.2,2.2v49.5c0,1.2,1,2.2,2.2,2.2s2.2-1,2.2-2.2v-49.5C-227.5-82.6-228.5-83.6-229.7-83.6z"/>
	<path d="M-221-72.7c-1.2,0-2.2,1-2.2,2.2v27.8c0,1.2,1,2.2,2.2,2.2s2.2-1,2.2-2.2v-27.8C-218.8-71.7-219.8-72.7-221-72.7z"/>
	<path d="M-212.3-61.7c-1.2,0-2.2,1-2.2,2.2v5.8c0,1.2,1,2.2,2.2,2.2s2.2-1,2.2-2.2v-5.8C-210.1-60.7-211.1-61.7-212.3-61.7z"/>
</g>
<g>
	<path d="M-265.3-63c-1.2,0-2.2,1-2.2,2.2v8.3c0,1.2,1,2.2,2.2,2.2s2.2-1,2.2-2.2v-8.3C-263.1-62-264.1-63-265.3-63z"/>
	<path d="M-256.6-62.4c-1.2,0-2.2,1-2.2,2.2v19.6c0,1.2,1,2.2,2.2,2.2s2.2-1,2.2-2.2v-19.6C-254.4-61.4-255.4-62.4-256.6-62.4z"/>
	<path d="M-247.9-57.2c-1.2,0-2.2,1-2.2,2.2v16.7c0,1.2,1,2.2,2.2,2.2s2.2-1,2.2-2.2V-55C-245.7-56.3-246.7-57.2-247.9-57.2z"/>
	<path d="M-239.2-52.2c-1.2,0-2.2,1-2.2,2.2v8c0,1.2,1,2.2,2.2,2.2s2.2-1,2.2-2.2v-8C-237-51.2-238-52.2-239.2-52.2z"/>
	<path d="M-230.5-47.3c-1.2,0-2.2,1-2.2,2.2v13.3c0,1.2,1,2.2,2.2,2.2s2.2-1,2.2-2.2v-13.3C-228.3-46.3-229.3-47.3-230.5-47.3z"/>
	<path d="M-213.1-51.5c1.2,0,2.2-1,2.2-2.2v-5.8c0-1.2-1-2.2-2.2-2.2s-2.2,1-2.2,2.2v5.8C-215.3-52.5-214.3-51.5-213.1-51.5z"/>
	<path d="M-207.5-41.7l-12.1-7v-21.8c0-1.2-1-2.2-2.2-2.2s-2.2,1-2.2,2.2v19.3l-4.4-2.5v-27.7c0-1.2-1-2.2-2.2-2.2s-2.2,1-2.2,2.2
		v25.2l-4.4-2.5v-12.5c0-1.2-1-2.2-2.2-2.2s-2.2,1-2.2,2.2v10l-4.4-2.5l0,0v-11.1c0-1.2-1-2.2-2.2-2.2s-2.2,1-2.2,2.2v8.6l-17-9.8
		c-1-0.6-2.4-0.2-3,0.8s-0.2,2.4,0.8,3l59.6,34.4c1,0.6,2.4,0.2,3-0.8S-206.5-41.1-207.5-41.7z"/>
</g>
<g>
	<path d="M-259.8-71.3h13.6c3.7,0,6.7-3,6.7-6.7s-3-6.7-6.7-6.7h-13.6c-3.7,0-6.7,3-6.7,6.7S-263.5-71.3-259.8-71.3z M-259.8-80.3
		h13.6c1.3,0,2.3,1.1,2.3,2.3c0,1.3-1.1,2.3-2.3,2.3h-13.6c-1.3,0-2.3-1.1-2.3-2.3C-262.1-79.3-261-80.3-259.8-80.3z"/>
	<path d="M-217-41.9h-42.8c-3.7,0-6.7,3-6.7,6.7s3,6.7,6.7,6.7h42.8c3.7,0,6.7-3,6.7-6.7C-210.3-38.9-213.3-41.9-217-41.9z
		 M-217-32.9h-42.8c-1.3,0-2.3-1.1-2.3-2.3c0-1.3,1.1-2.3,2.3-2.3h42.8c1.3,0,2.3,1.1,2.3,2.3C-214.6-33.9-215.7-32.9-217-32.9z"/>
	<path d="M-259.8-49.9h25.2c3.7,0,6.7-3,6.7-6.7s-3-6.7-6.7-6.7h-25.2c-3.7,0-6.7,3-6.7,6.7S-263.5-49.9-259.8-49.9z M-259.8-58.9
		h25.2c1.3,0,2.3,1.1,2.3,2.3c0,1.3-1.1,2.3-2.3,2.3h-25.2c-1.3,0-2.3-1.1-2.3-2.3C-262.1-57.9-261-58.9-259.8-58.9z"/>
</g>
<path d="M-231.5-56.6l25.6-14.8l1-1.3l-0.2-1.7c-1.6-2.9-4.7-4.4-7.7-4.4c-1.5,0-3,0.4-4.4,1.2L-242.6-63l-9.2-5.3
	c-0.2-3.3-1.9-6.4-5-8.1c-1.6-0.9-3.3-1.4-5-1.4c-3.5,0-6.9,1.8-8.8,5.1l0,0c-0.9,1.6-1.4,3.3-1.4,5c0,3.5,1.8,6.9,5.1,8.8
	c1.6,0.9,3.3,1.4,5,1.4c1.6,0,3.1-0.4,4.5-1.1l3.6,2.1l-3.6,2.1c-1.4-0.7-2.9-1.1-4.5-1.1c-1.7,0-3.5,0.4-5,1.4
	c-3.2,1.9-5.1,5.3-5.1,8.8c0,1.7,0.4,3.5,1.4,5c1.9,3.2,5.3,5.1,8.8,5.1c1.7,0,3.5-0.4,5-1.4c3-1.8,4.8-4.9,5-8.1l9.2-5.3l25.3,14.6
	c1.4,0.8,2.9,1.2,4.4,1.2c3.1,0,6.1-1.6,7.7-4.4l0.2-1.7l-1-1.3L-231.5-56.6z M-264.6-62.7c-1.8-1.1-2.9-3-2.9-5c0-1,0.2-2,0.8-2.9
	l-1.9-1.1l1.9,1.1c1.1-1.8,3-2.9,5-2.9c1,0,2,0.2,2.9,0.8c1.8,1.1,2.9,3,2.9,5c0,1-0.2,2-0.8,2.9c-1.1,1.8-3,2.9-5,2.9
	C-262.7-62-263.7-62.2-264.6-62.7z M-258.9-40.5c-0.9,0.5-1.9,0.8-2.9,0.8c-2,0-3.9-1-5-2.9c-0.5-0.9-0.8-1.9-0.8-2.9
	c0-2,1-3.9,2.9-5c0.9-0.5,1.9-0.8,2.9-0.8c2,0,3.9,1,5,2.9c0.5,0.9,0.8,1.9,0.8,2.9C-256-43.5-257-41.6-258.9-40.5z M-215.1-39.4
	l-26.4-15.2c-0.7-0.4-1.5-0.4-2.2,0l-8.9,5.1c-0.2-0.4-0.3-0.8-0.5-1.1c-0.2-0.4-0.5-0.6-0.7-0.9l5.6-3.2c0.7-0.4,1.1-1.1,1.1-1.9
	c0-0.8-0.4-1.5-1.1-1.9l-5.6-3.2c0.2-0.3,0.5-0.6,0.7-0.9c0.2-0.4,0.3-0.7,0.5-1.1l8.9,5.1c0.7,0.4,1.5,0.4,2.2,0l26.4-15.2
	c0.7-0.4,1.5-0.6,2.3-0.6s1.6,0.3,2.4,0.7l-26.4,15.3c-0.7,0.4-1.1,1.1-1.1,1.9c0,0.8,0.4,1.5,1.1,1.9l26.4,15.3
	c-0.7,0.4-1.5,0.7-2.4,0.7C-213.6-38.8-214.4-39-215.1-39.4z"/>
<g>
	<path d="M-246.2-41.9h-13.6c-3.7,0-6.7,3-6.7,6.7s3,6.7,6.7,6.7h13.6c3.7,0,6.7-3,6.7-6.7C-239.5-38.9-242.5-41.9-246.2-41.9z
		 M-246.2-32.9h-13.6c-1.3,0-2.3-1.1-2.3-2.3c0-1.3,1.1-2.3,2.3-2.3h13.6c1.3,0,2.3,1.1,2.3,2.3C-243.9-33.9-245-32.9-246.2-32.9z"
		/>
	<path d="M-217-84.7h-42.8c-3.7,0-6.7,3-6.7,6.7s3,6.7,6.7,6.7h42.8c3.7,0,6.7-3,6.7-6.7C-210.3-81.7-213.3-84.7-217-84.7z
		 M-217-75.7h-42.8c-1.3,0-2.3-1.1-2.3-2.3c0-1.3,1.1-2.3,2.3-2.3h42.8c1.3,0,2.3,1.1,2.3,2.3C-214.6-76.7-215.7-75.7-217-75.7z"/>
	<path d="M-234.6-63.3h-25.2c-3.7,0-6.7,3-6.7,6.7s3,6.7,6.7,6.7h25.2c3.7,0,6.7-3,6.7-6.7C-227.9-60.3-230.9-63.3-234.6-63.3z
		 M-234.6-54.3h-25.2c-1.3,0-2.3-1.1-2.3-2.3c0-1.3,1.1-2.3,2.3-2.3h25.2c1.3,0,2.3,1.1,2.3,2.3C-232.3-55.3-233.3-54.3-234.6-54.3z
		"/>
</g>
<path d="M-210.5-57.2c-0.1-0.2,0-0.4-0.1-0.6l-9.9-14.8c-1.5-2.2-4-3.6-6.6-3.6h-22.4c-2.7,0-5.2,1.3-6.6,3.6l-9.9,14.8
	c-0.1,0.2-0.1,0.4-0.1,0.6l-0.2,0.6V-45c0,4.4,3.6,8,8,8h40.2c4.4,0,8-3.6,8-8v-11.7L-210.5-57.2z M-252.6-70.3c0.7-1,1.8-1.6,3-1.6
	h22.4c1.2,0,2.3,0.6,3,1.6l7.6,11.5h-9.1c-3,0-5.9,1.7-7.2,4.6c-0.9,2.1-3.1,3.6-5.5,3.6c-2.5,0-4.6-1.5-5.5-3.6
	c-1.3-2.9-4.2-4.6-7.2-4.6h-9.1L-252.6-70.3z M-214.6-45c0,2-1.6,3.6-3.6,3.6h-40.2c-2,0-3.6-1.6-3.6-3.6v-9.5h11
	c1.4,0,2.7,0.8,3.2,2c1.6,3.7,5.3,6.2,9.5,6.2c4.3,0,7.9-2.6,9.5-6.2c0.5-1.2,1.8-2,3.2-2h11L-214.6-45L-214.6-45z"/>
<g>
	<path d="M-238.4-84.9c-15.6,0-28.3,12.7-28.3,28.3s12.7,28.3,28.3,28.3s28.3-12.7,28.3-28.3C-210.1-72.3-222.7-84.9-238.4-84.9z
		 M-238.4-32.6c-13.2,0-23.9-10.7-24-24c0-13.2,10.7-23.9,24-24c13.2,0,23.9,10.7,24,24C-214.4-43.4-225.1-32.7-238.4-32.6z"/>
	<path d="M-232.5-68c-0.9-0.8-2.2-0.8-3.1,0s-0.8,2.2,0,3.1l0,0l6.2,6.2h-23.2c-1.2,0-2.2,1-2.2,2.2s1,2.2,2.2,2.2h23.2l-6.2,6.2
		c-0.8,0.8-0.8,2.2,0,3.1s2.2,0.8,3.1,0l9.9-9.9l0.6-1.5l-0.6-1.5L-232.5-68z"/>
</g>
<g>
	<path d="M-239.9-41.8l1.5,0.6l1.5-0.6l12.6-12.6c0.8-0.8,0.8-2.2,0-3.1s-2.2-0.8-3.1,0l-8.9,8.9v-31.1c0-1.2-1-2.2-2.2-2.2
		s-2.2,1-2.2,2.2v31.1l-8.9-8.9c-0.8-0.8-2.2-0.8-3.1,0s-0.8,2.2,0,3.1L-239.9-41.8z"/>
	<path d="M-221.1-35.7h-34.5c-1.2,0-2.2,1-2.2,2.2s1,2.2,2.2,2.2h34.5c1.2,0,2.2-1,2.2-2.2C-218.9-34.8-219.9-35.7-221.1-35.7z"/>
</g>
<g>
	<path d="M-249.4-65.5l8.9-8.9v31c0,1.2,1,2.2,2.2,2.2s2.2-1,2.2-2.2v-31.1l8.9,8.9c0.8,0.8,2.2,0.8,3.1,0s0.9-2.2,0-3.1l-12.6-12.6
		l-1.5-0.6l-1.5,0.6l-12.6,12.6c-0.8,0.8-0.8,2.2,0,3.1C-251.6-64.7-250.3-64.7-249.4-65.5z"/>
	<path d="M-221.1-35.7h-34.5c-1.2,0-2.2,1-2.2,2.2s1,2.2,2.2,2.2h34.5c1.2,0,2.2-1,2.2-2.2C-218.9-34.8-219.9-35.7-221.1-35.7z"/>
</g>
<g>
	<path d="M-253.7-69.2c-9.9,2.7-17.1,11.8-17.1,22.5c0,4.4,1.3,8.4,3.4,11.9l-4.1-0.7c-1.2-0.2-2.3,0.6-2.5,1.8s0.6,2.3,1.8,2.5l0,0
		l9.5,1.7l0.2-0.1c0.2,0,0.4-0.1,0.6-0.1l0.8-0.2l0.1-0.2c0,0,0.1,0,0.2-0.1s0.1-0.3,0.2-0.5l0.4-0.6l1.7-9.5
		c0.2-1.2-0.6-2.3-1.8-2.5s-2.3,0.6-2.5,1.8l-0.8,4.6c-1.7-2.9-2.8-6.2-2.8-9.7c0-8.7,5.9-16.1,13.9-18.3c1.2-0.3,1.8-1.5,1.5-2.7
		S-252.6-69.5-253.7-69.2z"/>
	<path d="M-205.1-35.4L-205.1-35.4l-4.1,0.7c2.1-3.5,3.4-7.6,3.4-11.9c0-10.7-7.2-19.8-17.1-22.5c-1.2-0.3-2.4,0.4-2.7,1.5
		s0.4,2.4,1.5,2.7l0,0c8,2.2,13.9,9.6,13.9,18.3c0,3.6-1,6.9-2.8,9.7l-0.8-4.6c-0.2-1.2-1.3-2-2.5-1.8s-2,1.3-1.8,2.5l1.7,9.5
		l0.4,0.6c0.1,0.2,0.1,0.4,0.2,0.5c0,0,0.1,0,0.2,0.1l0.1,0.2l0.8,0.2c0.2,0,0.4,0.1,0.6,0.1l0.2,0.1l9.5-1.7c1.2-0.2,2-1.3,1.8-2.5
		C-202.8-34.9-204-35.7-205.1-35.4z"/>
	<path d="M-231.4-71.5c0.8,0.8,2.2,0.8,3.1,0s0.8-2.2,0-3.1l-8.4-8.4c-0.4-0.4-0.9-0.7-1.6-0.7l0,0c-0.6,0-1.1,0.2-1.6,0.6l-8.5,8.5
		c-0.8,0.8-0.8,2.2,0,3.1s2.2,0.8,3.1,0l4.8-4.8V-46l-4.8-4.8c-0.9-0.8-2.2-0.8-3.1,0s-0.8,2.2,0,3.1l8.5,8.5
		c0.4,0.4,0.9,0.6,1.5,0.6s1.1-0.2,1.5-0.6l8.5-8.5c0.8-0.8,0.8-2.2,0-3.1s-2.2-0.8-3.1,0l-4.8,4.8v-30.2L-231.4-71.5z"/>
</g>
<g>
	<path d="M-222.7-67l1-1.3l2.7-9.9c0.3-1.2-0.4-2.4-1.5-2.7c-1.2-0.3-2.4,0.4-2.7,1.5l0,0l-1.3,4.8l-2.7-4.7
		c-2.1-3.6-5.8-5.4-9.4-5.4c-3.6,0-7.3,1.8-9.4,5.4l-5.4,9.3c-0.6,1-0.2,2.4,0.8,3s2.4,0.2,3-0.8l5.4-9.3c1.3-2.2,3.4-3.2,5.6-3.3
		c2.2,0,4.4,1.1,5.6,3.3l2.8,4.8l-4.9-1.3c-1.2-0.3-2.4,0.4-2.7,1.5c-0.3,1.2,0.4,2.4,1.5,2.7l9.9,2.7L-222.7-67z"/>
	<path d="M-241.7-40.1h-10.8c-3.8,0-6.5-3.1-6.5-6.5c0-1.1,0.3-2.2,0.9-3.2l2.8-4.8l1.3,4.9c0.3,1.2,1.5,1.8,2.7,1.5
		s1.8-1.5,1.5-2.7l-2.7-9.9c-0.3-1.2-1.5-1.8-2.7-1.5l-9.9,2.7c-1.2,0.3-1.8,1.5-1.5,2.7s1.5,1.8,2.7,1.5l4.8-1.3l-2.7,4.7
		c-1,1.7-1.5,3.6-1.5,5.4c0,5.7,4.5,10.9,10.9,10.9h10.8c1.2,0,2.2-1,2.2-2.2C-239.5-39.1-240.5-40.1-241.7-40.1z"/>
	<path d="M-211.6-52l-5.4-9.3c-0.6-1-1.9-1.4-3-0.8c-1,0.6-1.4,1.9-0.8,3l5.4,9.3c0.6,1.1,0.9,2.2,0.9,3.2c0,3.4-2.7,6.5-6.5,6.5
		h-5.5l3.6-3.6c0.8-0.8,0.8-2.2,0-3.1s-2.2-0.8-3.1,0l-7.3,7.3c-0.9,0.8-0.9,2.2,0,3.1l7.2,7.2c0.8,0.8,2.2,0.8,3.1,0s0.8-2.2,0-3.1
		l-3.5-3.5h5.5c6.3,0,10.9-5.2,10.9-10.9C-210.1-48.4-210.6-50.3-211.6-52z"/>
</g>
<g>
	<path d="M-215.5-69.7H-255l-1-2.7c-1.4-3.5-4.8-5.9-8.6-5.9c-1.2,0-2.2,1-2.2,2.2s1,2.2,2.2,2.2c2,0,3.8,1.2,4.5,3.1l7.9,20.1
		c1.2,3.1,4.1,5.1,7.4,5.1h22.6c3.3,0,6.2-2,7.4-5.1l4.5-11.4c0.3-0.7,0.4-1.4,0.4-2C-210-67.1-212.3-69.6-215.5-69.7z M-214.4-63.6
		l-4.5,11.4c-0.5,1.4-1.9,2.3-3.4,2.3h-22.6c-1.5,0-2.8-0.9-3.4-2.3l-5.1-13.1h37.8c0.7,0,1.2,0.6,1.2,1.2V-63.6z"/>
	<circle cx="-221.5" cy="-39.5" r="4.3"/>
	<circle cx="-245.5" cy="-39.3" r="4.3"/>
</g>
<g>
	<path d="M-220.4-74.5v-6.7c0-4.4-3.6-8-8-8h-19.9c-4.4,0-8,3.6-8,8v6.7c-5.8,1-10.1,6.1-10.2,12.1v10.7c0,5.6,3.7,10.3,8.8,11.8
		l-1.5,13.4l0.5,1.7l1.6,0.7h37.1l1.6-0.7l0.5-1.7l-1.5-13.4c5.1-1.5,8.8-6.2,8.8-11.8v-10.7C-210.3-68.4-214.7-73.4-220.4-74.5z
		 M-248.3-84.8h19.9c2,0,3.6,1.6,3.6,3.6v6.5H-252v-6.5C-252-83.1-250.3-84.8-248.3-84.8z M-254.5-28.4l2.4-22.3h27.4l2.4,22.3
		C-222.3-28.4-254.5-28.4-254.5-28.4z M-214.6-51.7c0,3.3-2.1,6.1-5,7.3l-0.9-8.7c-0.1-1.1-1.1-1.9-2.2-1.9H-254
		c-1.1,0-2,0.8-2.2,1.9l-1,8.7c-2.9-1.2-5-4-5-7.3v-10.7c0-4.4,3.6-8,8-8h31.5c4.4,0,8,3.6,8,8L-214.6-51.7L-214.6-51.7z"/>
	<path d="M-230-45.5h-16.8c-1.2,0-2.2,1-2.2,2.2s1,2.2,2.2,2.2h16.8c1.2,0,2.2-1,2.2-2.2S-228.8-45.5-230-45.5z"/>
	<path d="M-222.6-65.8h-3.2c-1.2,0-2.2,1-2.2,2.2s1,2.2,2.2,2.2h3.2c1.2,0,2.2-1,2.2-2.2C-220.4-64.8-221.4-65.8-222.6-65.8z"/>
	<path d="M-230-38.2h-16.8c-1.2,0-2.2,1-2.2,2.2s1,2.2,2.2,2.2h16.8c1.2,0,2.2-1,2.2-2.2S-228.8-38.2-230-38.2z"/>
</g>
<path d="M-210.5-66.8c-0.1-0.1-0.1-0.2-0.2-0.3l-26.2-22.3c-0.8-0.7-2-0.7-2.8,0L-266-67.1c-0.1,0,0,0.1-0.1,0.2
	c-2.8,2.3-4.7,5.7-4.7,9.6v21.7c0,6.8,5.5,12.3,12.3,12.3h40.2c6.8,0,12.3-5.5,12.3-12.3v-21.7C-206-61.2-207.7-64.5-210.5-66.8z
	 M-230.6-46.8l18.6-15.3c1,1.3,1.6,3,1.6,4.7v21.7c0,1.8-0.7,3.3-1.7,4.6L-230.6-46.8z M-238.3-84.9l23.2,19.7L-234-49.7l-2.9-2.5
	c-0.8-0.7-2-0.7-2.8,0l-2.9,2.5l-19-15.5L-238.3-84.9z M-264.7-30.9c-1-1.3-1.7-2.9-1.7-4.7v-21.7c0-1.8,0.6-3.4,1.6-4.8l18.8,15.3
	L-264.7-30.9z M-258.5-27.6c-1,0-1.9-0.2-2.7-0.6l22.9-19.4l22.8,19.4c-0.9,0.3-1.8,0.6-2.8,0.6C-218.3-27.6-258.5-27.6-258.5-27.6z
	"/>
<path d="M-212.7-84.5l-1.9-0.4l-15.7,3.9l-15.7-3.9l-0.5,0.1l-0.5-0.1l-16.2,4.1c-1,0.2-1.6,1.1-1.6,2.1v48.4c0,0.7,0.3,1.3,0.8,1.7
	l1.9,0.4l15.7-3.9l15.7,3.9l0.5-0.1l0.5,0.1l16.2-4.1c1-0.2,1.6-1.1,1.6-2.1v-48.4C-211.8-83.5-212.2-84.1-212.7-84.5z M-260.6-77.1
	l11.9-3v43.9l-11.9,3V-77.1z M-244.3-80l11.9,3v43.9l-11.9-3V-80z M-216.2-36.2l-11.9,3v-43.9l11.9-3V-36.2z"/>
<path d="M-216.2-31.5l-20.1-51.8c-0.3-0.8-1.1-1.4-2-1.4s-1.7,0.5-2,1.4l-20.1,51.8c-0.3,0.9-0.1,1.8,0.6,2.4s1.7,0.7,2.5,0.2l19-11
	l19,11c0.8,0.5,1.8,0.4,2.5-0.2C-216.2-29.6-215.9-30.6-216.2-31.5z M-237.3-44.2c-0.7-0.4-1.5-0.4-2.2,0l-14.8,8.5l15.8-40.8
	l15.8,40.8L-237.3-44.2z"/>
<path d="M-223.6-77.6c-0.7-0.4-1.6-0.3-2.2,0.1l-15.3,10.3H-252l-1.5,0.6l-0.6,1.5v16.8l0.6,1.5l1.5,0.6h10.9l15.3,10.3
	c0.7,0.4,1.5,0.5,2.2,0.1s1.2-1.1,1.2-1.9v-38.1C-222.5-76.5-222.9-77.2-223.6-77.6z M-226.8-41.6l-12.5-8.4l-1.2-0.4h-9.4v-12.4
	h9.4l1.2-0.4l12.5-8.4V-41.6z"/>
<g>
	<path d="M-228.2-89h-20.3c-4.4,0-8,3.6-8,8v48.9c0,4.4,3.6,8,8,8h20.3c4.4,0,8-3.6,8-8V-81C-220.2-85.5-223.8-89-228.2-89z
		 M-252.2-76h27.6v34.9h-27.6V-76z M-248.5-84.7h20.3c2,0,3.6,1.6,3.6,3.6v0.7h-27.6v-0.7C-252.2-83-250.5-84.7-248.5-84.7z
		 M-228.2-28.5h-20.3c-2,0-3.6-1.6-3.6-3.6v-4.6h27.6v4.6C-224.6-30.2-226.2-28.5-228.2-28.5z"/>
	<path d="M-234-34.8h-8.7c-1.2,0-2.2,1-2.2,2.2s1,2.2,2.2,2.2h8.7c1.2,0,2.2-1,2.2-2.2S-232.8-34.8-234-34.8z"/>
</g>
<g>
	<path d="M-211.4-68.6h-30v-12.5c0-4.4-3.6-8-8-8h-20.3c-4.4,0-8,3.6-8,8v48.9c0,4.4,3.6,8,8,8h20.3c3.6,0,6.5-2.4,7.5-5.6h30.4
		c6.8,0,12.3-5.5,12.3-12.3v-14.1C-199.1-63.1-204.6-68.6-211.4-68.6z M-211.4-64.2c1,0,2,0.2,2.9,0.6L-226-48.8l-15.2-12.9h-0.1
		v-2.5H-211.4z M-273.3-76h27.6v34.9h-27.6V-76z M-241.4-56.1l8.4,7.1l-8.4,6.9V-56.1z M-269.7-84.7h20.3c2,0,3.6,1.6,3.6,3.6v0.7
		h-27.6v-0.7C-273.3-83-271.7-84.7-269.7-84.7z M-249.4-28.5h-20.3c-2,0-3.6-1.6-3.6-3.6v-4.6h27.6v4.6
		C-245.7-30.2-247.4-28.5-249.4-28.5z M-241.4-34.2v-2.3l11.8-9.7l2.1,1.8c0.8,0.7,2,0.7,2.8,0l2.2-1.8l13.9,11.3
		c-0.9,0.3-1.8,0.6-2.8,0.6h-30V-34.2z M-203.5-42.2c0,1.8-0.7,3.3-1.7,4.6l-14-11.4l14-11.9c1,1.3,1.7,2.9,1.7,4.6V-42.2
		L-203.5-42.2z"/>
	<path d="M-255.2-34.8h-8.7c-1.2,0-2.2,1-2.2,2.2s1,2.2,2.2,2.2h8.7c1.2,0,2.2-1,2.2-2.2S-254-34.8-255.2-34.8z"/>
</g>
<path d="M-219.6-70.2L-219.6-70.2l-11.3-11.4h-0.1c-1-1.1-2.3-1.9-3.9-1.9H-252c-3.8,0-6.9,3.1-6.9,6.9v39.9c0,3.8,3.1,6.9,6.9,6.9
	h27.4c3.8,0,6.9-3.1,6.9-6.9v-29.6C-217.8-67.8-218.5-69.2-219.6-70.2z M-229.7-74.2l2.7,2.7h-2.7V-74.2z M-222.1-36.7
	c0,1.4-1.2,2.6-2.6,2.6h-27.4c-1.4,0-2.6-1.2-2.6-2.6v-39.9c0-1.4,1.2-2.6,2.6-2.6h17.1l0.9,0.9v9l0.6,1.5l1.5,0.6h9l0.9,0.9V-36.7
	L-222.1-36.7z"/>
<g>
	<path d="M-206.9-70.2L-206.9-70.2l-11.3-11.4h-0.1c-1-1.1-2.3-1.9-3.9-1.9h-13.6c-1-3.2-3.9-5.6-7.5-5.6h-20.3c-4.4,0-8,3.6-8,8
		v48.9c0,4.4,3.6,8,8,8h20.3c3.6,0,6.5-2.4,7.5-5.6h23.9c3.8,0,6.9-3.1,6.9-6.9v-29.6C-205.1-67.8-205.8-69.2-206.9-70.2z
		 M-217.1-74.2l2.7,2.7h-2.7V-74.2z M-267.3-76h27.6v34.9h-27.6V-76z M-263.7-84.7h20.3c2,0,3.6,1.6,3.6,3.6v0.7h-27.6v-0.7
		C-267.3-83-265.7-84.7-263.7-84.7z M-243.4-28.5h-20.3c-2,0-3.6-1.6-3.6-3.6v-4.6h27.6v4.6C-239.8-30.2-241.4-28.5-243.4-28.5z
		 M-209.4-36.7c0,1.4-1.2,2.6-2.6,2.6h-23.4V-53h12.1l-6.2,6.2c-0.8,0.8-0.8,2.2,0,3.1s2.2,0.8,3.1,0l9.9-9.9l0.6-1.5l-0.6-1.5
		l-9.9-9.9c-0.8-0.8-2.2-0.8-3.1,0s-0.8,2.2,0,3.1l6.2,6.2h-12.1v-21.7h13.2l0.9,0.9v9l0.6,1.5l1.5,0.6h9l0.9,0.9L-209.4-36.7
		L-209.4-36.7z"/>
	<path d="M-249.2-34.8h-8.7c-1.2,0-2.2,1-2.2,2.2s1,2.2,2.2,2.2h8.7c1.2,0,2.2-1,2.2-2.2S-248-34.8-249.2-34.8z"/>
</g>
<g>
	<path d="M-247.3-66.4c-0.8-0.8-2.2-0.8-3.1,0c-0.9,0.8-0.9,2.2,0,3.1l6.2,6.2h-14.3c-1.2,0-2.2,1-2.2,2.2s1,2.2,2.2,2.2h14.3
		l-6.2,6.2c-0.9,0.8-0.9,2.2,0,3.1c0.8,0.8,2.2,0.8,3.1,0l9.9-9.9l0.6-1.5l-0.6-1.5L-247.3-66.4z"/>
	<path d="M-210.7-83.5h-14.4c-3.2,0-6,1.9-7.2,4.7l-8.1-8.1c0,0-0.1,0-0.1-0.1c-1.1-1.3-2.6-2.2-4.5-2.2h-21c-4.4,0-8,3.6-8,8v48.9
		c0,4.4,3.6,8,8,8h33.6c3.6,0,6.5-2.4,7.5-5.6h14.2c4.4,0,8-3.6,8-8v-37.7C-202.7-79.9-206.3-83.4-210.7-83.5z M-239.2-79.4l5,5h-5
		V-79.4z M-225.8-72h18.7v27.7h-17.4v-24.1C-224.5-69.8-225-71-225.8-72z M-225.1-79.1h14.4c1.7,0,3,1.2,3.4,2.7h-21.3
		C-228.2-77.9-226.8-79.1-225.1-79.1z M-228.8-32.2c0,2-1.6,3.6-3.6,3.6H-266c-2,0-3.6-1.6-3.6-3.6v-48.9c0-2,1.6-3.6,3.6-3.6h21
		c0.9,0,1.5,0.7,1.5,1.5v11l0.6,1.5l1.5,0.6h11c0.9,0,1.5,0.7,1.5,1.5L-228.8-32.2L-228.8-32.2z M-210.7-34.1h-13.8V-40h17.4v2.2
		C-207.1-35.8-208.7-34.1-210.7-34.1z"/>
	<path d="M-214.4-39.2h-7.1c-1.2,0-2.2,1-2.2,2.2s1,2.2,2.2,2.2h7.1c1.2,0,2.2-1,2.2-2.2S-213.2-39.2-214.4-39.2z"/>
</g>
<g>
	<path d="M-239.8-78h-20.3c-4.4,0-8,3.6-8,8v48.9c0,4.4,3.6,8,8,8h20.3c4.4,0,8-3.6,8-8V-70C-231.8-74.4-235.4-77.9-239.8-78z
		 M-263.7-64.9h27.6V-30h-27.6V-64.9z M-260.1-73.6h20.3c2,0,3.6,1.6,3.6,3.6v0.7h-27.6V-70C-263.7-72-262.1-73.6-260.1-73.6z
		 M-239.8-17.5h-20.3c-2,0-3.6-1.6-3.6-3.6v-4.6h27.6v4.6C-236.1-19.1-237.8-17.5-239.8-17.5z"/>
	<path d="M-245.6-23.7h-8.7c-1.2,0-2.2,1-2.2,2.2s1,2.2,2.2,2.2h8.7c1.2,0,2.2-1,2.2-2.2S-244.4-23.7-245.6-23.7z"/>
	<path d="M-228.2-69.8c1.2,0.3,2.4-0.4,2.7-1.5c0.2-0.8,0.3-1.7,0.3-2.5c0-5.4-4.4-9.8-9.8-9.8h-0.2l-1.4,0.1
		c-1.2,0.1-2.1,1.2-2,2.4s1.2,2.1,2.4,2l1.2-0.1c3,0,5.4,2.4,5.4,5.4l-0.2,1.4C-230-71.3-229.3-70.1-228.2-69.8z"/>
	<path d="M-226.4-57.9c5.7-3,9.5-9,9.5-15.9c0-10-8.1-18.1-18.1-18.1c-6.7,0-12.5,3.6-15.6,9c-0.6,1-0.3,2.4,0.8,3
		c1,0.6,2.4,0.3,3-0.8c2.4-4.1,6.8-6.8,11.9-6.8c7.6,0,13.7,6.2,13.7,13.7c0,5.2-2.9,9.8-7.2,12.1c-1.1,0.6-1.5,1.9-0.9,2.9
		C-228.8-57.7-227.4-57.3-226.4-57.9z"/>
	<path d="M-234.9-100.1c-11.4,0-21.2,7.3-24.8,17.5c-0.4,1.1,0.2,2.4,1.3,2.8c1.1,0.4,2.4-0.2,2.8-1.3c3-8.5,11.1-14.6,20.7-14.6
		c12.1,0,21.9,9.8,21.9,21.9c0,9.7-6.3,17.9-15.1,20.8c-1.1,0.4-1.8,1.6-1.4,2.7c0.4,1.1,1.6,1.8,2.7,1.4c10.5-3.4,18-13.3,18.1-25
		C-208.7-88.3-220.4-100.1-234.9-100.1z"/>
</g>
<g>
	<path d="M-226.2-63H-275c-4.4,0-8,3.6-8,8v20.3c0,4.4,3.6,8,8,8h48.9c4.4,0,8-3.6,8-8V-55C-218.2-59.4-221.8-62.9-226.2-63z
		 M-231.2-58.6V-31h-34.9v-27.6H-231.2z M-278.7-34.7V-55c0-2,1.6-3.6,3.6-3.6h4.6V-31h-4.6C-277-31-278.7-32.7-278.7-34.7z
		 M-222.5-34.7c0,2-1.6,3.6-3.6,3.6h-0.7v-27.6h0.7c2,0,3.6,1.6,3.6,3.6V-34.7z"/>
	<path d="M-274.6-51.4c-1.2,0-2.2,1-2.2,2.2v8.7c0,1.2,1,2.2,2.2,2.2s2.2-1,2.2-2.2v-8.7C-272.4-50.4-273.4-51.4-274.6-51.4z"/>
	<path d="M-213.2-56.2c1.2,0.3,2.4-0.4,2.7-1.5c0.2-0.8,0.3-1.7,0.3-2.5c0-5.4-4.4-9.8-9.8-9.8h-0.2l-1.4,0.1
		c-1.2,0.1-2.1,1.2-2,2.4c0.1,1.2,1.2,2.1,2.4,2l1.2-0.1c3,0,5.4,2.4,5.4,5.4l-0.2,1.4C-215.1-57.7-214.4-56.5-213.2-56.2z"/>
	<path d="M-211.4-44.4c5.7-3,9.5-9,9.5-15.9c0-10-8.1-18.1-18.1-18.1c-6.7,0-12.5,3.6-15.6,9c-0.6,1-0.3,2.4,0.8,3
		c1,0.6,2.4,0.3,3-0.8c2.4-4.1,6.8-6.8,11.9-6.8c7.6,0,13.7,6.2,13.7,13.7c0,5.2-2.9,9.8-7.2,12.1c-1.1,0.6-1.5,1.9-0.9,2.9
		C-213.8-44.2-212.5-43.8-211.4-44.4z"/>
	<path d="M-220-86.5c-11.4,0-21.2,7.3-24.8,17.5c-0.4,1.1,0.2,2.4,1.3,2.8s2.4-0.2,2.8-1.3c3-8.5,11.1-14.6,20.7-14.6
		c12.1,0,21.9,9.8,21.9,21.9c0,9.7-6.3,17.9-15.1,20.8c-1.1,0.4-1.8,1.6-1.4,2.7c0.4,1.1,1.6,1.8,2.7,1.4c10.5-3.4,18-13.3,18.1-25
		C-193.7-74.8-205.5-86.5-220-86.5z"/>
</g>
<path d="M-213.6-82.4h-49.6c-4.4,0-8,3.6-8,8V-46c0,4.4,3.6,8,8,8h17.2c-0.5,0.6-1.1,1.2-1.7,1.7l-1.4,1.1l-0.4,0.2h-5.4
	c-1.2,0-2.2,1-2.2,2.2s1,2.2,2.2,2.2h33c1.2,0,2.2-1,2.2-2.2s-1-2.2-2.2-2.2h-5.3l-1.2-0.8c-0.8-0.6-1.6-1.4-2.4-2.2h17.1
	c4.4,0,8-3.6,8-8v-28.4C-205.6-78.9-209.2-82.4-213.6-82.4z M-235.8-37.2c0.3,0.3,1,1.1,1.9,2h-8.9c0.9-1,1.6-1.7,1.8-2
	c0.7-0.6,1.6-0.9,2.6-0.9C-237.4-38.1-236.5-37.8-235.8-37.2z M-209.9-46.1c0,2-1.6,3.6-3.6,3.6h-49.6c-2,0-3.6-1.6-3.6-3.6v-28.4
	c0-2,1.6-3.6,3.6-3.6h49.6c2,0,3.6,1.6,3.6,3.6V-46.1L-209.9-46.1z"/>
<g>
	<path d="M-204.6-36.2h-67.5c-1.2,0-2.2,1-2.2,2.2s1,2.2,2.2,2.2h67.5c1.2,0,2.2-1,2.2-2.2C-202.5-35.3-203.4-36.2-204.6-36.2z"/>
	<path d="M-261.2-38.8h45.7c4.4,0,8-3.6,8-8v-26.6c0-4.4-3.6-8-8-8h-45.7c-4.4,0-8,3.6-8,8v26.6C-269.2-42.3-265.6-38.8-261.2-38.8z
		 M-264.8-73.4c0-2,1.6-3.6,3.6-3.6h45.7c2,0,3.6,1.6,3.6,3.6v26.6c0,2-1.6,3.6-3.6,3.6h-45.7c-2,0-3.6-1.6-3.6-3.6V-73.4z"/>
	<circle cx="-238.4" cy="-73.2" r="2.2"/>
</g>
<g>
	<path d="M-222.6-74H-245c-0.4-2.3-2.3-4.1-4.8-4.1h-1.9c-2.5,0-4.5,1.9-4.8,4.4c-5.7,1.1-10,6.1-10,12.1v14.2
		c0,6.8,5.5,12.3,12.3,12.3h31.5c6.8,0,12.3-5.5,12.3-12.3v-14.2C-210.3-68.4-215.8-74-222.6-74z M-214.6-47.5c0,4.4-3.6,8-8,8
		h-31.5c-4.4,0-8-3.6-8-8v-14.2c0-4.4,3.6-8,8-8h31.5c4.4,0,8,3.6,8,8V-47.5L-214.6-47.5z"/>
	<path d="M-238.4-66.7c-6.7,0-12.1,5.4-12.1,12.1s5.4,12.1,12.1,12.1c6.7,0,12.1-5.4,12.1-12.1C-226.3-61.2-231.7-66.7-238.4-66.7z
		 M-238.4-46.8c-4.3,0-7.7-3.5-7.8-7.8c0-4.3,3.5-7.7,7.8-7.8c4.3,0,7.7,3.5,7.8,7.8C-230.6-50.3-234.1-46.8-238.4-46.8z"/>
	<circle cx="-220.6" cy="-65.2" r="2.3"/>
</g>
<g>
	<path d="M-224.5-71.7h-18.8c-0.7-1.5-2.1-2.5-3.9-2.5h-0.4c-1.7,0-3.2,1-3.9,2.5h-0.4c-4.4,0-8,3.6-8,8v14.2c0,4.4,3.6,8,8,8h27.2
		c4.4,0,8-3.6,8-8v-14.2C-216.6-68.1-220.1-71.7-224.5-71.7z M-220.9-49.5c0,2-1.6,3.6-3.6,3.6h-27.2c-2,0-3.6-1.6-3.6-3.6v-14.2
		c0-2,1.6-3.6,3.6-3.6h27.2c2,0,3.6,1.6,3.6,3.6V-49.5z"/>
	<path d="M-238.1-65c-4.6,0-8.4,3.8-8.4,8.4s3.8,8.4,8.4,8.4c4.6,0,8.4-3.8,8.4-8.4C-229.7-61.3-233.5-65-238.1-65z M-238.1-52.5
		c-2.2,0-4.1-1.8-4.1-4.1c0-2.2,1.8-4.1,4.1-4.1c2.2,0,4.1,1.8,4.1,4.1C-234.1-54.4-235.9-52.6-238.1-52.5z"/>
	<path d="M-205.3-56.6c0-4.5-1.7-8.9-5.1-12.3c-0.8-0.8-2.2-0.8-3.1,0c-0.9,0.8-0.8,2.2,0,3.1c2.6,2.6,3.8,5.9,3.8,9.3
		c0,3.4-1.3,6.7-3.8,9.3c-0.9,0.8-0.9,2.2,0,3.1c0.8,0.8,2.2,0.8,3.1,0l0,0C-207-47.7-205.3-52.2-205.3-56.6z"/>
	<path d="M-205.2-74.8c-0.8-0.8-2.2-0.8-3.1,0s-0.8,2.2,0,3.1c4.2,4.2,6.3,9.6,6.3,15.1s-2.1,10.9-6.3,15.1c-0.8,0.8-0.8,2.2,0,3.1
		s2.2,0.8,3.1,0c5-5,7.5-11.6,7.5-18.2C-197.7-63.2-200.2-69.8-205.2-74.8z"/>
	<path d="M-263.3-69c-0.8-0.8-2.2-0.8-3.1,0c-3.4,3.4-5.1,7.9-5.1,12.3c0,4.5,1.7,8.9,5.1,12.3c0.8,0.8,2.2,0.8,3.1,0s0.8-2.2,0-3.1
		c-2.6-2.6-3.8-5.9-3.8-9.3c0-3.4,1.3-6.7,3.8-9.3C-262.4-66.7-262.4-68.1-263.3-69z"/>
	<path d="M-268.4-41.5c-4.2-4.2-6.3-9.6-6.3-15.1s2.1-10.9,6.3-15.1c0.8-0.8,0.8-2.2,0-3.1s-2.2-0.8-3.1,0c-5,5-7.5,11.6-7.5,18.2
		s2.5,13.2,7.5,18.2c0.8,0.8,2.2,0.8,3.1,0C-267.6-39.3-267.6-40.6-268.4-41.5L-268.4-41.5z"/>
</g>
<g>
	<path d="M-202.2-75.1c-1.8-1.8-4.2-2.7-6.8-2.7c-1,0-2.1,0.1-3.1,0.4l0,0c-8.6,2-17.4,3-26.2,3s-17.6-1-26.2-3l0,0
		c-1.1-0.3-2.1-0.4-3.1-0.4c-2.6,0-5.1,0.9-6.8,2.7c-1.8,1.8-2.7,4.3-2.7,7.2c0,7.5,0,15.1,0,22.6c0,2.9,1,5.4,2.7,7.2
		c1.8,1.8,4.2,2.7,6.8,2.7c1,0,2.1-0.1,3.1-0.4l0,0c8.6-2,17.4-3,26.2-3s17.5,1,26.1,3l0,0c1.1,0.3,2.1,0.4,3.1,0.4
		c2.6,0,5.1-0.9,6.8-2.7c1.8-1.8,2.7-4.3,2.7-7.2c0-7.5,0-15.1,0-22.6C-199.5-70.8-200.5-73.3-202.2-75.1z M-203.9-45.3
		c0,1.9-0.6,3.3-1.5,4.1c-0.9,0.9-2.1,1.4-3.7,1.4c-0.6,0-1.3-0.1-2.1-0.3l0,0c-8.9-2.1-18-3.1-27.1-3.1s-18.3,1-27.2,3.1l0,0
		c-0.7,0.2-1.4,0.3-2.1,0.3c-1.6,0-2.9-0.5-3.7-1.4c-0.9-0.9-1.5-2.2-1.5-4.1c0-7.5,0-15.1,0-22.6c0-1.9,0.6-3.3,1.5-4.1
		c0.9-0.9,2.1-1.4,3.7-1.4c0.6,0,1.3,0.1,2.1,0.3l0,0c8.9,2.1,18.1,3.1,27.2,3.1c9.1,0,18.2-1,27.2-3.1l0,0c0.7-0.2,1.4-0.3,2.1-0.3
		c1.6,0,2.9,0.5,3.7,1.4c0.9,0.9,1.5,2.2,1.5,4.1C-203.9-60.4-203.9-52.8-203.9-45.3z"/>
	<path d="M-249.3-56.8c1.2-0.4,2.1-1.3,2.1-2.7c0-1.9-1.6-3.4-4.3-3.4c-2.8,0-4.5,1.7-4.6,3.9h2.5c0.1-1.2,0.9-1.9,2.1-1.9
		c1.1,0,1.7,0.7,1.7,1.5c0,1.1-0.6,1.7-1.9,1.7h-0.9v1.9h1c1.3,0,2,0.6,2,1.8c0,1.1-0.7,1.8-2.1,1.8c-1.5,0-2.1-0.9-2.2-2.1h-2.5
		c0.1,2.5,1.7,4.1,4.9,4.1c3,0,4.8-1.5,4.8-3.8C-246.9-55.5-247.9-56.5-249.3-56.8z"/>
	<path d="M-239.5-58.4c-1.5,0-2.4,0.6-3,1.5c0.1-2.6,1-3.9,2.6-3.9c1.1,0,1.5,0.5,1.7,1.3h2.6c-0.3-2.3-1.8-3.4-4.3-3.4
		c-3,0-5.3,2.3-5.3,6.6v0.3c0,3.4,1.4,5.9,5.1,5.9c3,0,4.8-1.7,4.8-4.3C-235.4-56.9-237.2-58.4-239.5-58.4z M-240.3-52.1
		c-1.3,0-2.1-0.9-2.1-2.3c0-1.2,0.9-2.1,2.1-2.1c1.3,0,2.1,0.9,2.1,2.2C-238.2-53-239-52.1-240.3-52.1z"/>
	<path d="M-228.6-62.9c-3.2,0-5.4,2.3-5.4,6.1v0.6c0,3.8,2.1,6.1,5.4,6.1c3.4,0,5.4-2.4,5.4-6.2v-0.6
		C-223.2-60.7-225.4-62.9-228.6-62.9z M-226-56.3c0,2.6-0.8,3.9-2.6,3.9c-1.7,0-2.7-1.3-2.7-3.9v-0.6c0-2.6,0.9-3.9,2.6-3.9
		c1.7,0,2.6,1.4,2.6,3.9L-226-56.3L-226-56.3z"/>
	<path d="M-218.6-62.9c-1.7,0-3,1.3-3,2.9c0,1.6,1.3,2.9,3,2.9s3-1.3,3-2.9C-215.7-61.6-217-62.9-218.6-62.9z M-218.6-58.2
		c-0.9,0-1.6-0.8-1.6-1.7c0-1,0.7-1.8,1.6-1.8c0.9,0,1.6,0.8,1.6,1.8C-217.1-59-217.7-58.2-218.6-58.2z"/>
</g>
<g>
	<path d="M-226.9-49.7l1.5-0.6l0.6-1.5v-16.8c0-4.4-3.6-8-8-8h-24.5c-4.4,0-8,3.6-8,8v11c0,4.4,3.6,8,8,8
		C-257.2-49.7-226.9-49.7-226.9-49.7z M-260.8-57.6v-11c0-2,1.6-3.6,3.6-3.6h24.5c2,0,3.6,1.6,3.6,3.6V-54h-28.1
		C-259.1-54-260.8-55.7-260.8-57.6z"/>
	<path d="M-218.8-43.8l0.6-1.5v-22.6c0-1.2-1-2.2-2.2-2.2s-2.2,1-2.2,2.2v20.4h-33.9c-1.2,0-2.2,1-2.2,2.2s1,2.2,2.2,2.2h36.1
		L-218.8-43.8z"/>
	<path d="M-213.8-63.6c-1.2,0-2.2,1-2.2,2.2V-41h-33.9c-1.2,0-2.2,1-2.2,2.2s1,2.2,2.2,2.2h36.1l1.5-0.6l0.6-1.5v-22.6
		C-211.6-62.6-212.6-63.6-213.8-63.6z"/>
</g>
<path d="M-207.3-79.3l-1.5-0.6H-248c-4.1,0-7.4,3.2-7.7,7.2c-3.8,0.3-6.8,3.3-7.1,7.1c-4,0.4-7.2,3.7-7.2,7.8v22.3l0.6,1.5l1.5,0.6
	h39.1c4.1,0,7.4-3.2,7.8-7.2c3.8-0.3,6.8-3.3,7.1-7.1c4-0.3,7.2-3.6,7.2-7.7v-22.4L-207.3-79.3z M-225.2-41.3c0,2-1.6,3.6-3.6,3.6
	h-36.9v-20.1c0-2,1.6-3.6,3.6-3.6h1.3h35.6v18.8L-225.2-41.3L-225.2-41.3z M-218.1-48.3c0,1.7-1.2,3-2.8,3.4v-18.6l-0.6-1.5
	l-1.5-0.6h-35.4c0.4-1.5,1.7-2.7,3.4-2.8h1.4h35.6v18.8L-218.1-48.3L-218.1-48.3z M-211-55.4c0,1.7-1.2,3-2.8,3.4v-18.6l-0.6-1.5
	l-1.5-0.6h-35.4c0.4-1.5,1.7-2.7,3.4-2.8h37L-211-55.4L-211-55.4z"/>
<path d="M-207.5-58.9h-5.6v-6.4c0-4.4-3.6-8-8-8H-236v-6.2c0-1.2-1-2.2-2.2-2.2s-2.2,1-2.2,2.2v6.2h-14.9c-4.4,0-8,3.6-8,8v6.4h-6
	c-1.2,0-2.2,1-2.2,2.2s1,2.2,2.2,2.2h6v6.4c0,4.4,3.6,8,8,8h14.9v6.4c0,1.2,1,2.2,2.2,2.2s2.2-1,2.2-2.2v-6.4h14.9c4.4,0,8-3.6,8-8
	v-6.4h5.6c1.2,0,2.2-1,2.2-2.2S-206.3-58.9-207.5-58.9z M-217.5-48.2c0,2-1.6,3.6-3.6,3.6H-236V-48c0-1.2-1-2.2-2.2-2.2
	s-2.2,1-2.2,2.2v3.4h-14.9c-2,0-3.6-1.6-3.6-3.6v-6.4h3.8c1.2,0,2.2-1,2.2-2.2s-1-2.2-2.2-2.2h-3.8v-6.4c0-2,1.6-3.6,3.6-3.6h14.9
	v3.5c0,1.2,1,2.2,2.2,2.2s2.2-1,2.2-2.2V-69h14.9c2,0,3.6,1.6,3.6,3.6v6.4h-4.1c-1.2,0-2.2,1-2.2,2.2s1,2.2,2.2,2.2h4.1V-48.2z"/>
<g>
	<polygon points="-251.4,-39.3 -257.8,-39.3 -257.8,-45.8 -261.5,-45.8 -261.5,-29.8 -257.8,-29.8 -257.8,-36.4 -251.4,-36.4 
		-251.4,-29.8 -247.8,-29.8 -247.8,-45.8 -251.4,-45.8 	"/>
	<path d="M-239.1-45.8h-5.2v16h5.2c5.6,0,8.4-3.2,8.4-8V-38C-230.7-42.8-233.5-45.8-239.1-45.8z M-234.5-37.8c0,3.3-1.5,5.1-4.7,5.1
		h-1.5V-43h1.4c3.4,0,4.8,1.8,4.8,5.1V-37.8z"/>
	<path d="M-219.5-36.6c1.9-0.6,3.3-1.8,3.3-4.3V-41c0-3.3-2.4-4.9-6.2-4.9h-5.7v16h3.6V-36h1.6l3.8,6.2h3.8L-219.5-36.6z
		 M-219.8-40.7c0,1.5-0.9,2.3-2.7,2.3h-2V-43h2C-220.8-43-219.8-42.5-219.8-40.7L-219.8-40.7z"/>
	<path d="M-239-52.4c8.6,0,15.5-6.9,15.5-15.5s-6.9-15.5-15.5-15.5s-15.5,6.9-15.5,15.5S-247.6-52.4-239-52.4z M-239-79.1
		c6.2,0,11.2,5,11.2,11.2s-5,11.2-11.2,11.2s-11.2-5-11.2-11.2S-245.2-79.1-239-79.1z"/>
	<path d="M-244.4-65.7h3.2v3.2c0,1.2,1,2.2,2.2,2.2s2.2-1,2.2-2.2v-3.2h3.2c1.2,0,2.2-1,2.2-2.2s-1-2.2-2.2-2.2h-3.2v-3.2
		c0-1.2-1-2.2-2.2-2.2s-2.2,1-2.2,2.2v3.2h-3.2c-1.2,0-2.2,1-2.2,2.2S-245.6-65.7-244.4-65.7z"/>
</g>
<g>
	<path d="M-238.4-67c-5.8,0-10.4,4.7-10.4,10.4c0,5.8,4.7,10.4,10.4,10.4c5.8,0,10.4-4.7,10.4-10.4C-227.9-62.4-232.6-67-238.4-67z
		 M-244.5-56.6c0-3.4,2.7-6.1,6.1-6.1v12.2C-241.7-50.5-244.5-53.3-244.5-56.6z"/>
	<path d="M-238.4-72c1.2,0,2.2-1,2.2-2.2v-8.3c0-1.2-1-2.2-2.2-2.2s-2.2,1-2.2,2.2v8.3C-240.6-73-239.6-72-238.4-72z"/>
	<path d="M-252.3-67.5c0.8,0.8,2.2,0.8,3.1,0s0.8-2.2,0-3.1l-5.9-5.9c-0.8-0.8-2.2-0.8-3.1,0s-0.8,2.2,0,3.1L-252.3-67.5z"/>
	<path d="M-253.8-56.6c0-1.2-1-2.2-2.2-2.2h-8.3c-1.2,0-2.2,1-2.2,2.2s1,2.2,2.2,2.2h8.3C-254.7-54.4-253.8-55.4-253.8-56.6z"/>
	<path d="M-252.3-45.7l-5.9,5.9c-0.8,0.8-0.8,2.2,0,3.1c0.9,0.8,2.2,0.8,3.1,0l5.9-5.9c0.8-0.8,0.8-2.2,0-3.1
		C-250.1-46.6-251.5-46.6-252.3-45.7z"/>
	<path d="M-238.4-41.2c-1.2,0-2.2,1-2.2,2.2v8.3c0,1.2,1,2.2,2.2,2.2s2.2-1,2.2-2.2V-39C-236.2-40.2-237.2-41.2-238.4-41.2z"/>
	<path d="M-224.4-45.7c-0.8-0.8-2.2-0.8-3.1,0c-0.8,0.8-0.8,2.2,0,3.1l5.9,5.9c0.8,0.8,2.2,0.8,3.1,0s0.8-2.2,0-3.1L-224.4-45.7z"/>
	<path d="M-212.5-58.8h-8.3c-1.2,0-2.2,1-2.2,2.2s1,2.2,2.2,2.2h8.3c1.2,0,2.2-1,2.2-2.2S-211.3-58.8-212.5-58.8z"/>
	<path d="M-224.4-67.5l5.9-5.9c0.8-0.8,0.8-2.2,0-3.1c-0.9-0.8-2.2-0.8-3.1,0l-5.9,5.9c-0.8,0.8-0.8,2.2,0,3.1
		C-226.6-66.6-225.3-66.6-224.4-67.5z"/>
</g>
<g>
	<path d="M-238.4-69.1c-6.9,0-12.4,5.6-12.4,12.4c0,6.9,5.6,12.4,12.4,12.4c6.9,0,12.4-5.6,12.4-12.4
		C-225.9-63.5-231.5-69-238.4-69.1z M-238.4-48.5c-4.5,0-8.1-3.6-8.1-8.1s3.6-8.1,8.1-8.1s8.1,3.6,8.1,8.1
		C-230.3-52.1-233.9-48.5-238.4-48.5z"/>
	<path d="M-238.4-73.5c1.2,0,2.2-1,2.2-2.2v-6.9c0-1.2-1-2.2-2.2-2.2s-2.2,1-2.2,2.2v6.9C-240.6-74.4-239.6-73.5-238.4-73.5z"/>
	<path d="M-253.4-68.5c0.8,0.8,2.2,0.8,3.1,0s0.8-2.2,0-3.1l-4.9-4.9c-0.8-0.8-2.2-0.8-3.1,0s-0.9,2.2,0,3.1L-253.4-68.5z"/>
	<path d="M-255.2-56.6c0-1.2-1-2.2-2.2-2.2h-6.9c-1.2,0-2.2,1-2.2,2.2s1,2.2,2.2,2.2h6.9C-256.2-54.4-255.2-55.4-255.2-56.6z"/>
	<path d="M-253.4-44.7l-4.9,4.9c-0.9,0.8-0.9,2.2,0,3.1c0.8,0.8,2.2,0.8,3.1,0l4.9-4.9c0.8-0.8,0.8-2.2,0-3.1
		S-252.5-45.6-253.4-44.7z"/>
	<path d="M-238.4-39.8c-1.2,0-2.2,1-2.2,2.2v6.9c0,1.2,1,2.2,2.2,2.2s2.2-1,2.2-2.2v-6.9C-236.2-38.8-237.2-39.8-238.4-39.8z"/>
	<path d="M-223.4-44.7c-0.8-0.8-2.2-0.8-3.1,0s-0.8,2.2,0,3.1l4.9,4.9c0.8,0.8,2.2,0.8,3.1,0c0.8-0.8,0.8-2.2,0-3.1L-223.4-44.7z"/>
	<path d="M-212.5-58.8h-6.9c-1.2,0-2.2,1-2.2,2.2s1,2.2,2.2,2.2h6.9c1.2,0,2.2-1,2.2-2.2S-211.3-58.8-212.5-58.8z"/>
	<path d="M-223.4-68.5l4.9-4.9c0.8-0.8,0.8-2.2,0-3.1c-0.9-0.8-2.2-0.8-3.1,0l-4.9,4.9c-0.8,0.8-0.8,2.2,0,3.1
		S-224.2-67.7-223.4-68.5z"/>
</g>
<g>
	<path d="M-228.8-84.4c-0.6,0-1.1,0.2-1.5,0.6s-0.6,0.9-0.6,1.5c0,0,0,10.5,0,21.7c0,4.2,0,8,0,11.2c-2-1.6-4.4-2.6-7.1-2.6
		c-6.3,0-11.5,5.1-11.5,11.5c0,6.3,5.1,11.5,11.5,11.5c6.3,0,11.5-5.1,11.5-11.5c0,0,0-9,0-20.2c0-8,0-15.6,0-19.3
		c7,1.1,12.5,7.1,12.5,14.4c0,1.2,1,2.2,2.2,2.2s2.2-1,2.2-2.2C-209.8-75.8-218.3-84.4-228.8-84.4z M-238.1-33.2
		c-3.9,0-7.1-3.2-7.1-7.1s3.2-7.1,7.1-7.1c3.9,0,7.1,3.2,7.1,7.1S-234.2-33.2-238.1-33.2z"/>
	<path d="M-238.1-56.2c1.2,0,2.2-1,2.2-2.2s-1-2.2-2.2-2.2c-11.1,0-20.2,9-20.2,20.2c0,1.2,1,2.2,2.2,2.2c1.2,0,2.2-1,2.2-2.2l0,0
		C-254-49.1-246.9-56.2-238.1-56.2z"/>
	<path d="M-238.1-64.8c1.2,0,2.2-1,2.2-2.2s-1-2.2-2.2-2.2c-15.9,0-28.8,12.9-28.8,28.8c0,1.2,1,2.2,2.2,2.2s2.2-1,2.2-2.2
		C-262.6-53.9-251.6-64.8-238.1-64.8z"/>
</g>
<path d="M-237.5-84.4c-0.6,0-1.1,0.2-1.5,0.6s-0.6,0.9-0.6,1.5c0,0,0,10.5,0,21.7c0,4.2,0,8,0,11.2c-2-1.6-4.4-2.6-7.1-2.6
	c-6.3,0-11.5,5.1-11.5,11.5c0,6.3,5.1,11.5,11.5,11.5c6.3,0,11.5-5.1,11.5-11.5c0,0,0-9,0-20.2c0-8,0-15.6,0-19.3
	c7,1.1,12.5,7.1,12.5,14.4c0,1.2,1,2.2,2.2,2.2s2.2-1,2.2-2.2C-218.5-75.8-227-84.4-237.5-84.4z M-246.8-33.2
	c-3.9,0-7.1-3.2-7.1-7.1s3.2-7.1,7.1-7.1c3.9,0,7.1,3.2,7.1,7.1S-242.8-33.2-246.8-33.2z"/>
<path d="M-227.5-83.7l-1.5-0.6l-1.5,0.6l-0.6,1.5c0,0,0,10.5,0,21.7c0,4.2,0,8,0,11.2c-2-1.6-4.4-2.6-7.1-2.6
	c-6.3,0-11.5,5.1-11.5,11.5c0,6.3,5.1,11.5,11.5,11.5c6.3,0,11.5-5.1,11.5-11.5c0,0,0-9,0-20.2s0-21.6,0-21.7L-227.5-83.7z
	 M-238.4-33.2c-3.9,0-7.1-3.2-7.1-7.1s3.2-7.1,7.1-7.1c3.9,0,7.1,3.2,7.1,7.1C-231.2-36.4-234.4-33.2-238.4-33.2z"/>
<path d="M-210.4-86c0-0.1,0.1-0.2,0-0.2c0-0.2-0.2-0.3-0.4-0.5l-0.2-0.6l-0.2-0.1c-0.2-0.2-0.5-0.2-0.7-0.3l-0.6-0.2l-0.2,0.1
	c-0.1,0-0.2-0.1-0.2,0l-33.2,7.3c-0.2,0-0.3,0.2-0.5,0.4l-0.6,0.2l-0.1,0.2c-0.2,0.2-0.2,0.5-0.3,0.7l-0.2,0.6c0,0,0,10.5,0,21.7
	c0,4.2,0,8,0,11.2c-2-1.6-4.4-2.6-7.1-2.6c-6.3,0-11.5,5.1-11.5,11.5c0,6.3,5.1,11.5,11.5,11.5c6.3,0,11.5-5.1,11.5-11.5
	c0,0,0-9,0-20.2c0-3.6,0-7.1,0-10.2l28.8-6.3c0,2.9,0,6,0,9.3c0,4.2,0,8,0,11.2c-2-1.6-4.4-2.6-7.1-2.6c-6.3,0-11.5,5.1-11.5,11.5
	c0,6.3,5.1,11.5,11.5,11.5c6.3,0,11.5-5.1,11.5-11.5c0,0,0-9,0-20.2s0-21.6,0-21.7L-210.4-86z M-255-29.6c-3.9,0-7.1-3.2-7.1-7.1
	s3.2-7.1,7.1-7.1s7.1,3.2,7.1,7.1C-247.8-32.8-251-29.6-255-29.6z M-243.5-71.6c0-2.2,0-4,0-5.2l28.8-6.3c0,1.3,0,3.1,0,5.2
	L-243.5-71.6z M-221.8-36.8c-3.9,0-7.1-3.2-7.1-7.1s3.2-7.1,7.1-7.1c3.9,0,7.1,3.2,7.1,7.1C-214.6-40-217.8-36.9-221.8-36.8z"/>
<path d="M-209.4-79.6c0-1.1-0.9-2.1-2-2.2h-0.3c-1,0-1.8,0.3-2.9,0.6c-3.6,1.3-9.4,4.3-15.1,8c-5.7,3.7-11.3,8.1-14.5,12.2
	c-2.7,3.7-4.3,7.8-4.3,12.2c0,3.1,0.8,6.3,2.5,9.4c-1.4,0.3-3,0.5-4.5,0.5c-2.3,0-4.6-0.4-6.5-1.4c-1.9-0.9-3.3-2.3-4.2-4.3
	c-0.7-1.6-1-3.3-1-5.1c-0.1-5.8,3.6-12.3,6.8-16.8l1.3,5.7c0.3,1.2,1.4,1.9,2.6,1.6c1.2-0.3,1.9-1.4,1.6-2.6l-2.5-10.8
	c-0.3-1.2-1.4-1.9-2.6-1.6l-10.8,2.5c-1.2,0.3-1.9,1.4-1.6,2.6s1.4,1.9,2.6,1.6l5.7-1.3c-3.4,4.8-7.4,11.7-7.5,19.1
	c0,2.3,0.4,4.6,1.4,6.8c1.3,3.1,3.6,5.2,6.2,6.5s5.6,1.8,8.4,1.8c4.2,0,8.3-1.1,11.3-2.8c0.1,0,0.1-0.1,0.2-0.1c0,0,0.1,0,0.1-0.1
	c0,0,0,0,0-0.1c0.7-0.4,1.4-0.9,2.1-1.5c4.5-3.9,9.4-11.4,11.9-15.3c0.6-1,0.4-2.4-0.7-3c-1-0.6-2.4-0.3-3,0.7
	c-1.7,2.6-4.4,6.7-7.1,10.1c-1.4,1.7-2.8,3.2-4,4.2s-2.1,1.4-2.3,1.3l-0.2-0.2c-1.4-2.6-2-5.1-2-7.6c0-3.3,1.2-6.5,3.4-9.6
	c2.8-3.8,9.4-8.8,15.7-12.6c3.1-1.9,6.2-3.6,8.7-4.8c1-0.5,1.8-0.8,2.5-1.1c0,2.2,0,4.5,0,6.6c0,10.8-0.7,20.2-4.8,25.7
	c-3.2,4.5-9.8,8.6-15.1,8.7c-1.2,0-2.2,1-2.1,2.2c0,1.2,1,2.2,2.2,2.1l0,0c7.2-0.2,14.4-5,18.5-10.4c5.2-7.2,5.6-17.3,5.7-28.3
	C-209.4-73.2-209.4-76.4-209.4-79.6z"/>
<g>
	<path d="M-210.8-65.1c-7.6-7.6-17.6-11.4-27.5-11.4c-10,0-19.9,3.8-27.5,11.4c-0.8,0.8-0.8,2.2,0,3.1s2.2,0.8,3.1,0
		c6.8-6.8,15.6-10.1,24.5-10.1s17.7,3.4,24.5,10.1c0.8,0.8,2.2,0.8,3.1,0C-210-62.8-210-64.2-210.8-65.1z"/>
	<path d="M-238.4-64.7c-7,0-13.9,2.7-19.2,8c-0.8,0.8-0.8,2.2,0,3.1s2.2,0.8,3.1,0l0,0c4.5-4.5,10.3-6.7,16.2-6.7s11.7,2.2,16.2,6.7
		c0.8,0.8,2.2,0.8,3.1,0s0.8-2.2,0-3.1C-224.4-62.1-231.4-64.7-238.4-64.7z"/>
	<path d="M-227.4-48.5c-3-3-7-4.6-11-4.5c-4,0-8,1.5-11,4.5c-0.8,0.8-0.8,2.2,0,3.1s2.2,0.8,3.1,0c2.2-2.2,5-3.3,7.9-3.3
		s5.7,1.1,7.9,3.3c0.8,0.8,2.2,0.8,3.1,0C-226.5-46.3-226.5-47.7-227.4-48.5L-227.4-48.5z"/>
	<circle cx="-238.4" cy="-39.6" r="2.8"/>
</g>
<g>
	<path d="M-229.2-77.6c-0.7-0.4-1.6-0.3-2.2,0.1l-15.3,10.3h-10.9l-1.5,0.6l-0.6,1.5v16.8l0.6,1.5l1.5,0.6h10.9l15.3,10.3
		c0.7,0.4,1.5,0.5,2.2,0.1s1.2-1.1,1.2-1.9v-38.1C-228.1-76.5-228.5-77.2-229.2-77.6z M-232.4-41.6l-12.5-8.4l-1.2-0.4h-9.4v-12.4
		h9.4l1.2-0.4l12.5-8.4V-41.6z"/>
	<path d="M-216.9-56.3c0-3.1-1.2-6.2-3.5-8.5c-0.8-0.8-2.2-0.8-3.1,0s-0.8,2.2,0,3.1c1.5,1.5,2.2,3.4,2.2,5.4s-0.7,3.9-2.2,5.4
		c-0.9,0.8-0.9,2.2,0,3.1c0.8,0.8,2.2,0.8,3.1,0l0,0C-218-50.2-216.9-53.2-216.9-56.3z"/>
</g>
<g>
	<path d="M-233.5-77.6c-0.7-0.4-1.6-0.3-2.2,0.1L-251-67.2h-11l-1.5,0.6l-0.6,1.5v16.8l0.6,1.5l1.5,0.6h10.9l15.3,10.3
		c0.7,0.5,1.5,0.5,2.2,0.1s1.2-1.1,1.2-1.9v-38.1C-232.4-76.5-232.8-77.2-233.5-77.6z M-236.7-41.6l-12.5-8.4l-1.2-0.4h-9.4v-12.4
		h9.4l1.2-0.4l12.5-8.4V-41.6L-236.7-41.6z"/>
	<path d="M-218.6-70.9c-0.8-0.8-2.2-0.8-3.1,0s-0.8,2.2,0,3.1l0,0c3.2,3.2,4.8,7.3,4.8,11.5s-1.6,8.3-4.8,11.5
		c-0.9,0.8-0.8,2.2,0,3.1s2.2,0.8,3.1,0c4-4,6-9.3,6-14.6S-214.6-66.9-218.6-70.9z"/>
	<path d="M-224.7-64.8c-0.9-0.8-2.2-0.8-3.1,0s-0.8,2.2,0,3.1c1.5,1.5,2.2,3.4,2.2,5.4s-0.7,3.9-2.2,5.4c-0.8,0.8-0.8,2.2,0,3.1
		s2.2,0.8,3.1,0c2.3-2.3,3.5-5.4,3.5-8.5S-222.3-62.5-224.7-64.8z"/>
</g>
<g>
	<path d="M-237.8-77.8c-0.7-0.4-1.6-0.3-2.2,0.1l-15.3,10.3h-10.9l-1.5,0.6l-0.6,1.5v16.8l0.6,1.5l1.5,0.6h10.9l15.3,10.3
		c0.7,0.5,1.5,0.5,2.2,0.1s1.2-1.1,1.2-1.9V-76C-236.7-76.7-237.1-77.4-237.8-77.8z M-241-41.8l-12.5-8.4l-1.2-0.4h-9.4V-63h9.4
		l1.2-0.4l12.5-8.4L-241-41.8L-241-41.8z"/>
	<path d="M-216.8-77.2c-0.8-0.8-2.2-0.8-3.1,0c-0.8,0.8-0.8,2.2,0,3.1c4.9,4.9,7.3,11.2,7.3,17.6s-2.4,12.7-7.3,17.6
		c-0.8,0.8-0.8,2.2,0,3.1s2.2,0.8,3.1,0c5.7-5.7,8.6-13.2,8.6-20.7C-208.3-64-211.1-71.5-216.8-77.2z"/>
	<path d="M-222.9-71.1c-0.8-0.8-2.2-0.8-3.1,0s-0.8,2.2,0,3.1l0,0c3.2,3.2,4.8,7.3,4.8,11.5s-1.6,8.3-4.8,11.5
		c-0.8,0.8-0.8,2.2,0,3.1s2.2,0.8,3.1,0c4-4,6-9.3,6-14.6S-218.9-67-222.9-71.1z"/>
	<path d="M-225.5-56.5c0-3.1-1.2-6.1-3.5-8.5c-0.8-0.8-2.2-0.8-3.1,0s-0.8,2.2,0,3.1c1.5,1.5,2.2,3.4,2.2,5.4s-0.7,3.9-2.2,5.4
		c-0.9,0.8-0.8,2.2,0,3.1s2.2,0.8,3.1,0l0,0C-226.7-50.3-225.5-53.4-225.5-56.5z"/>
</g>
<g>
	<path d="M-228.2-76.7h-20.3c-4.4,0-8,3.6-8,8v48.9c0,4.4,3.6,8,8,8h20.3c4.4,0,8-3.6,8-8v-48.9C-220.2-73.1-223.8-76.7-228.2-76.7z
		 M-252.1-63.7h27.6v34.9h-27.6V-63.7z M-248.5-72.3h20.3c2,0,3.6,1.6,3.6,3.6v0.7h-27.6v-0.7C-252.1-70.7-250.5-72.3-248.5-72.3z
		 M-228.2-16.2h-20.3c-2,0-3.6-1.6-3.6-3.6v-4.6h27.6v4.6C-224.6-17.8-226.2-16.2-228.2-16.2z"/>
	<path d="M-234-22.4h-8.7c-1.2,0-2.2,1-2.2,2.2s1,2.2,2.2,2.2h8.7c1.2,0,2.2-1,2.2-2.2S-232.8-22.4-234-22.4z"/>
	<path d="M-244.7-82.2c-0.9,0.8-1.1,2.1-0.3,3.1c0.8,0.9,2.1,1.1,3.1,0.3l0,0c1-0.8,2.2-1.3,3.6-1.3c1.4,0,2.6,0.5,3.6,1.3
		c0.9,0.8,2.3,0.6,3.1-0.3s0.6-2.3-0.3-3.1c-1.7-1.4-4-2.3-6.4-2.3C-240.8-84.5-243-83.7-244.7-82.2z"/>
	<path d="M-224.7-78.2c0.3,1.2,1.5,1.8,2.7,1.5s1.8-1.5,1.5-2.7c-2.1-7.9-9.3-13.7-17.9-13.7c-8.6,0-15.8,5.8-17.9,13.7
		c-0.3,1.2,0.4,2.4,1.5,2.7c1.2,0.3,2.4-0.4,2.7-1.5c1.6-6,7.1-10.5,13.7-10.5S-226.3-84.2-224.7-78.2z"/>
	<path d="M-238.4-101.4c-14.9,0-26.9,12-26.9,26.9c0,4.5,1.1,8.7,3,12.4c0.6,1.1,1.9,1.5,2.9,0.9c1.1-0.6,1.5-1.9,0.9-2.9
		c-1.6-3.1-2.5-6.6-2.5-10.4c0-12.4,10.1-22.5,22.5-22.5S-216-86.9-216-74.5c0,3.8-0.9,7.4-2.6,10.5c-0.6,1.1-0.2,2.4,0.9,2.9
		c1.1,0.6,2.4,0.2,2.9-0.9c2-3.7,3.1-8,3.1-12.5C-211.5-89.3-223.5-101.4-238.4-101.4z"/>
</g>
<path d="M-215.5-61c-0.5,0-1,0.2-1.5,0.2c-2-10-10.7-17.5-21.2-17.5c-7.5,0-14,3.9-17.9,9.7c-0.4,0-0.9-0.1-1.3-0.1
	c-9.3,0-16.9,7.6-16.9,16.9s7.6,16.9,16.9,16.9h42c7.2,0,13.1-5.9,13.1-13.1C-202.4-55.2-208.2-61-215.5-61z M-215.5-39.2h-42
	c-6.9,0-12.5-5.6-12.6-12.6c0-6.9,5.6-12.5,12.6-12.6c0.7,0,1.3,0.1,2,0.2c0.9,0.1,1.8-0.3,2.2-1.1c3-5.2,8.6-8.7,15-8.7
	c9.1,0,16.5,7,17.3,15.8c0.1,0.7,0.4,1.3,1,1.6l1.9,0.3c0.8-0.3,1.7-0.4,2.6-0.4c4.8,0,8.7,3.9,8.7,8.7
	C-206.7-43.1-210.6-39.3-215.5-39.2z"/>
<path d="M-212.1-57.2c-0.4,0-0.8,0.1-1.1,0.2c-1.8-8.8-9.5-15.4-18.9-15.4c-0.5,0-1,0.2-1.5,0.2c-1.2-0.4-2.5-0.6-3.9-0.6h-0.2h-0.5
	c-2.8-4-7.5-6.7-12.8-6.7c-7.5,0-13.7,5.2-15.3,12.1c-0.2,0-0.4-0.1-0.5-0.1c-5.4,0-9.8,4.4-9.8,9.8s4.4,9.8,9.8,9.8h2.6
	c0.4,8,7,14.3,15,14.3h36.9c6.5,0,11.8-5.3,11.8-11.8C-200.3-51.9-205.6-57.2-212.1-57.2z M-272.1-57.7c0-3,2.4-5.4,5.4-5.4l1.6,0.2
	l1.9-0.3c0.5-0.4,0.9-1,1-1.6c0.5-5.8,5.4-10.4,11.4-10.4c4,0,7.5,2.1,9.5,5.2c-2.7,1.5-4.9,3.6-6.7,6.1c-0.3,0-0.7-0.1-1-0.1
	c-7.1,0-13.1,5-14.7,11.6h-3C-269.7-52.3-272.1-54.7-272.1-57.7z M-212.1-38H-249c-5.9,0-10.8-4.8-10.8-10.8s4.8-10.8,10.8-10.8
	l1.7,0.1c0.9,0.1,1.8-0.3,2.2-1.1c2.6-4.5,7.4-7.5,13-7.5c7.8,0,14.3,6,14.9,13.7c0.1,0.7,0.4,1.3,1,1.6l1.9,0.3
	c0.7-0.2,1.5-0.3,2.2-0.3c4.1,0,7.4,3.3,7.4,7.4C-204.7-41.3-208-38-212.1-38z"/>
<g>
	<path d="M-250.7-72.7c1.2,0,2.2-1,2.2-2.2V-80c0-1.2-1-2.2-2.2-2.2s-2.2,1-2.2,2.2v5.1C-252.8-73.7-251.9-72.7-250.7-72.7z"/>
	<path d="M-262.2-69.2c0.8,0.8,2.2,0.8,3.1,0s0.8-2.2,0-3.1l-3.6-3.6c-0.8-0.8-2.2-0.8-3.1,0s-0.9,2.2,0,3.1L-262.2-69.2z"/>
	<path d="M-262.6-60.7c0-1.2-1-2.2-2.2-2.2h-5.1c-1.2,0-2.2,1-2.2,2.2s1,2.2,2.2,2.2h5.1C-263.6-58.6-262.6-59.5-262.6-60.7z"/>
	<path d="M-239.1-69.2l3.6-3.6c0.8-0.8,0.8-2.2,0-3.1s-2.2-0.8-3.1,0l-3.6,3.6c-0.9,0.8-0.9,2.2,0,3.1
		C-241.4-68.3-240-68.3-239.1-69.2z"/>
	<path d="M-215.6-52.9c-0.3,0-0.6,0.1-0.9,0.1c-1.8-8-8.8-14-17.4-14c-2.9,0-5.6,0.8-8,2c-1.5-3.4-4.9-5.8-8.9-5.8
		c-5.4,0-9.8,4.4-9.8,9.8c0,2,0.6,3.9,1.7,5.4c-0.8,0.8-1.5,1.6-2.2,2.5c-0.5,0.1-0.9,0.2-1.3,0.5l-3.6,3.6c-0.9,0.8-0.9,2.2,0,3.1
		c0.7,0.7,1.8,0.7,2.6,0.2c0,0.1,0,0.2,0,0.3c0,7.7,6.3,14,14,14h33.7c6,0,10.9-4.9,10.9-10.9C-204.6-48-209.5-52.9-215.6-52.9z
		 M-256.1-60.7c0-3,2.4-5.5,5.5-5.5c2.5,0,4.5,1.7,5.1,3.9c-1.1,1-2.1,2.1-2.9,3.3l-0.7-0.1h-0.2c-2.1,0-4.1,0.5-5.8,1.3
		C-255.7-58.6-256.1-59.6-256.1-60.7z M-215.6-35.4h-33.7c-5.3,0-9.6-4.3-9.6-9.7c0-5.3,4.3-9.6,9.6-9.6l1.7,0.1
		c0.8,0.1,1.6-0.4,2.1-1.1c2.3-4,6.7-6.8,11.7-6.8c7.1,0,12.9,5.4,13.4,12.3c0.1,0.7,0.4,1.3,1,1.6l1.9,0.3c0.6-0.2,1.3-0.3,2-0.3
		c3.6,0,6.6,2.9,6.6,6.6C-209-38.3-211.9-35.4-215.6-35.4z"/>
</g>
<g>
	<path d="M-215-46.9c-3.3,1.7-7.1,2.7-11,2.7c-13.1,0-23.7-10.6-23.7-23.7c0-4,1-7.7,2.7-11c0.4-0.8,0.3-1.9-0.4-2.6
		s-1.7-0.8-2.6-0.4c-8.9,4.7-15,14.1-15,24.8c0,15.5,12.6,28.1,28.1,28.1c10.8,0,20.2-6.1,24.9-15c0.4-0.8,0.3-1.9-0.4-2.6
		C-213.1-47.2-214.2-47.3-215-46.9z M-260.7-57c0-6.7,2.8-12.7,7.2-17c-0.4,2-0.7,4-0.7,6.1c0,15.5,12.6,28.1,28.1,28.1
		c2.1,0,4.2-0.3,6.1-0.7c-4.3,4.5-10.3,7.2-17,7.2C-250-33.3-260.7-43.9-260.7-57z"/>
	<polygon points="-234.4,-68.4 -230.9,-70.2 -227.5,-68.4 -228.2,-72.3 -225.4,-75 -229.2,-75.5 -230.9,-79 -232.7,-75.5 
		-236.5,-75 -233.7,-72.3 	"/>
	<polygon points="-220.7,-73.7 -217.3,-75.5 -213.8,-73.7 -214.5,-77.5 -211.7,-80.2 -215.6,-80.8 -217.3,-84.3 -219,-80.8 
		-222.8,-80.2 -220.1,-77.5 	"/>
	<polygon points="-222.4,-59.2 -219,-61 -215.6,-59.2 -216.2,-63 -213.5,-65.7 -217.3,-66.2 -219,-69.7 -220.7,-66.2 -224.6,-65.7 
		-221.8,-63 	"/>
</g>
<path d="M-232.9-76c-1-9.6-9-17.1-18.9-17.1h-6.1c-1.2,0-2.2,1-2.2,2.2s1,2.2,2.2,2.2h6.1c7.5,0,13.6,5.6,14.6,12.8
	c-8.9,1.2-15.8,8.8-15.8,18v19.7c0,10,8.2,18.2,18.2,18.2s18.2-8.2,18.2-18.2V-58C-216.7-67.4-223.8-75-232.9-76z M-221-58v0.3
	h-11.7v-13.9C-226.1-70.6-221-64.9-221-58z M-237-71.7v13.9h-11.7V-58C-248.7-64.9-243.6-70.6-237-71.7z M-234.9-24.4
	c-7.6,0-13.9-6.3-13.9-13.9v-15.1h27.7v15.1C-221-30.7-227.3-24.4-234.9-24.4z"/>
<g>
	<path d="M-229.6-49.8V-76c0-4.8-3.9-8.7-8.7-8.7s-8.7,3.9-8.7,8.7v26.2c-2.3,2.3-3.7,5.4-3.7,8.8c0,6.9,5.6,12.5,12.5,12.5
		s12.5-5.6,12.5-12.5C-225.9-44.5-227.4-47.6-229.6-49.8z M-238.4-32.9c-4.5,0-8.1-3.6-8.1-8.1c0-2.5,1.1-4.8,3-6.3l0.8-1.7v-27
		c0-2.4,2-4.4,4.4-4.4s4.4,2,4.4,4.4v27l0.8,1.7c1.8,1.5,3,3.7,3,6.3C-230.3-36.5-233.9-32.9-238.4-32.9z"/>
	<path d="M-236.2-47.2v-15.5c0-1.2-1-2.2-2.2-2.2s-2.2,1-2.2,2.2v15.8c0,0.8-0.4,1.5-1,2.1c-1.3,1.1-2.1,3-1.6,4.9
		c0.4,1.8,1.9,3.3,3.7,3.7c3.3,0.7,6.1-1.7,6.1-4.8c0-1.5-0.7-2.9-1.8-3.8C-235.9-45.4-236.2-46.3-236.2-47.2z"/>
</g>
<g>
	<path d="M-214.5-87.7h-47.7c-6.8,0-12.3,5.5-12.3,12.3v37.5c0,6.8,5.5,12.3,12.3,12.3h47.7c6.8,0,12.3-5.5,12.3-12.3v-37.5
		C-202.2-82.2-207.7-87.7-214.5-87.7z M-206.6-37.8c0,4.4-3.6,8-8,8h-47.7c-4.4,0-8-3.6-8-8v-37.5c0-4.4,3.6-8,8-8h47.7
		c4.4,0,8,3.6,8,8L-206.6-37.8L-206.6-37.8z"/>
	<path d="M-215.8-80.8h-45.1c-3.7,0-6.8,3-6.8,6.8v34.9c0,3.7,3,6.8,6.8,6.8h45.1c3.7,0,6.8-3,6.8-6.8V-74
		C-209.1-77.8-212.1-80.8-215.8-80.8z M-213.4-39.2c0,1.3-1.1,2.4-2.4,2.4h-45.1c-1.3,0-2.4-1.1-2.4-2.4v-34.9
		c0-1.3,1.1-2.4,2.4-2.4h18.3l9.7,9.7c0.8,0.8,2.2,0.8,3.1,0s0.8-2.2,0-3.1l-6.6-6.6h3.6l9.7,9.7c0.8,0.8,2.2,0.8,3.1,0
		s0.8-2.2,0-3.1l-6.6-6.6h10.9c1.3,0,2.4,1.1,2.4,2.4L-213.4-39.2L-213.4-39.2z"/>
</g>
<g>
	<path d="M-212.4-58.9h-5.9c-1-9.5-8.4-17-17.9-18v-5.9c0-1.2-1-2.2-2.2-2.2s-2.2,1-2.2,2.2v5.9c-9.5,1-16.9,8.5-17.9,18h-5.9
		c-1.2,0-2.2,1-2.2,2.2s1,2.2,2.2,2.2h5.9c1,9.4,8.5,16.8,17.9,17.8v6.2c0,1.2,1,2.2,2.2,2.2s2.2-1,2.2-2.2v-6.2
		c9.4-1,16.9-8.4,17.9-17.8h5.9c1.2,0,2.2-1,2.2-2.2C-210.3-57.9-211.2-58.9-212.4-58.9z M-238.4-40.8c-8.8,0-15.9-7.1-16-16
		c0-8.8,7.1-15.9,16-16c8.8,0,15.9,7.1,16,16C-222.4-48-229.6-40.9-238.4-40.8z"/>
	<circle cx="-238.4" cy="-56.8" r="3.3"/>
</g>
<g>
	<path d="M-238.4-45.1c6.8,0,12.3-5.5,12.3-12.3v-17.1c0-6.8-5.5-12.3-12.3-12.3s-12.3,5.5-12.3,12.3v17.1
		C-250.7-50.6-245.2-45.1-238.4-45.1z M-246.4-74.5c0-4.4,3.6-8,8-8s8,3.6,8,8v17.1c0,4.4-3.6,8-8,8s-8-3.6-8-8V-74.5z"/>
	<path d="M-218.1-57c0-1.2-1-2.2-2.2-2.2s-2.2,1-2.2,2.2c0,8.8-7.1,15.9-16,16c-8.8,0-15.9-7.1-16-16c0-1.2-1-2.2-2.2-2.2
		s-2.2,1-2.2,2.2c0,10.5,8,19,18.1,20.1v8.4c0,1.2,1,2.2,2.2,2.2s2.2-1,2.2-2.2V-37C-226-38.1-218.1-46.6-218.1-57z"/>
</g>
<g>
	<path d="M-242.2-50.3c-0.7-3.8-3.9-6.4-7.7-6.4l-1.3,0.1c-3.8,0.7-6.4,4-6.4,7.7l0.1,1.3l2.2,12.7c0.7,3.8,3.9,6.4,7.7,6.4l1.3-0.1
		c3.8-0.7,6.4-3.9,6.4-7.7l-0.1-1.3L-242.2-50.3z M-247-33l-0.6,0.1c-1.6,0-3.1-1.2-3.4-2.8l-2.2-12.7l-0.1-0.6
		c0-1.6,1.2-3.1,2.8-3.4l-0.4-2.1l0.4,2.1l0.6-0.1c1.6,0,3.1,1.2,3.4,2.8l2.2,12.7l0.1,0.6C-244.2-34.7-245.4-33.2-247-33z"/>
	<path d="M-225.6-56.6l-1.3-0.1c-3.7,0-7,2.7-7.7,6.4l-2.2,12.7l-0.1,1.3c0,3.7,2.7,7,6.4,7.7l1.3,0.1c3.7,0,7-2.7,7.7-6.4l2.2-12.7
		l0.1-1.3C-219.2-52.7-221.9-56-225.6-56.6z M-223.6-48.4l-2.2,12.7c-0.3,1.6-1.8,2.8-3.4,2.8l-0.6-0.1c-1.6-0.3-2.8-1.8-2.8-3.4
		l0.1-0.6l2.2-12.7c0.3-1.6,1.8-2.8,3.4-2.8l0.6,0.1l0.4-2.1l-0.4,2.1c1.6,0.3,2.8,1.8,2.8,3.4L-223.6-48.4z"/>
	<path d="M-225.8-81.6c-3.8-2-8-3.1-12.6-3.1c-4.5,0-8.8,1.1-12.6,3.1c-8.8,4.7-13.9,13.9-13.9,23.6c0,1.7,0.2,3.4,0.5,5.1l2.3,12.5
		c0.2,1.2,1.4,2,2.5,1.7c1.2-0.2,2-1.4,1.7-2.5l-2.3-12.5c-0.3-1.4-0.4-2.8-0.4-4.3c0-8.2,4.3-15.9,11.6-19.7
		c3.1-1.7,6.7-2.6,10.5-2.6s7.4,0.9,10.5,2.6c7.3,3.9,11.6,11.6,11.6,19.7c0,1.4-0.1,2.8-0.4,4.3l-2.3,12.5
		c-0.2,1.2,0.6,2.3,1.7,2.5c1.2,0.2,2.3-0.6,2.5-1.7l2.3-12.5c0.3-1.7,0.5-3.4,0.5-5.1C-211.9-67.7-217-76.9-225.8-81.6z"/>
</g>
<g>
	<path d="M-222.6-79.8h-31.5c-6.8,0-12.3,5.5-12.3,12.3v21.8c0,4.6,2.6,8.6,6.3,10.7c0,0,0,0.1,0.1,0.1c0,0,0.1,0,0.2,0
		c1.7,0.9,3.7,1.5,5.8,1.5h31.5c2.1,0,4.1-0.6,5.8-1.5c0,0,0.1,0,0.2,0c0,0,0-0.1,0.1-0.1c3.7-2.1,6.3-6.1,6.3-10.7v-21.8
		C-210.3-74.3-215.8-79.8-222.6-79.8z M-254.1-37.7c-0.6,0-1.1-0.2-1.6-0.3l11.1-19.2l8,13.9c0.4,0.7,1.1,1.1,1.9,1.1
		c0.8,0,1.5-0.4,1.9-1.1l4.4-7.6l7.5,12.9c-0.5,0.1-1,0.3-1.6,0.3H-254.1z M-214.6-45.7c0,2.2-1,4.2-2.5,5.7l-9.5-16.4
		c-0.4-0.7-1.1-1.1-1.9-1.1c-0.8,0-1.5,0.4-1.9,1.1l-4.4,7.6l-8-13.9c-0.4-0.7-1.1-1.1-1.9-1.1s-1.5,0.4-1.9,1.1l-13,22.7
		c-1.5-1.5-2.5-3.5-2.5-5.7v-21.8c0-4.4,3.6-8,8-8h31.5c4.4,0,8,3.6,8,8V-45.7z"/>
	<path d="M-223.4-71.8c-2.7,0-5,2.2-5,5c0,2.7,2.2,5,5,5c2.7,0,5-2.2,5-5C-218.5-69.5-220.7-71.7-223.4-71.8z M-223.4-64.7
		c-1.1,0-2.1-0.9-2.1-2.1c0-1.1,0.9-2.1,2.1-2.1c1.1,0,2.1,0.9,2.1,2.1C-221.4-65.6-222.3-64.7-223.4-64.7z"/>
</g>
<g>
	<path d="M-220.5-69.2c-0.3,0-0.5,0.1-0.8,0.1c-1.7-7.8-8.6-13.7-17-13.7c-5.9,0-11.1,3-14.2,7.6l-0.7-0.1h-0.2
		c-7.6,0-13.7,6.1-13.7,13.7s6.1,13.7,13.7,13.7h32.9c5.9,0,10.7-4.8,10.7-10.7C-209.8-64.4-214.5-69.2-220.5-69.2z M-220.5-52.2
		h-32.9c-5.2,0-9.3-4.2-9.3-9.3c0-5.2,4.2-9.3,9.3-9.3l1.7,0.1c0.8,0.1,1.6-0.4,2.1-1.1c2.3-3.9,6.5-6.6,11.4-6.6
		c6.9,0,12.5,5.3,13,11.9c0.1,0.7,0.4,1.3,1,1.6l1.9,0.3c0.6-0.2,1.2-0.3,1.9-0.3c3.5,0,6.3,2.8,6.3,6.3
		C-214.1-55-217-52.2-220.5-52.2z"/>
	<circle cx="-222.5" cy="-42.6" r="2.4"/>
	<circle cx="-238.4" cy="-42.6" r="2.4"/>
	<circle cx="-254.3" cy="-42.6" r="2.4"/>
	<circle cx="-229" cy="-32.9" r="2.4"/>
	<circle cx="-244.8" cy="-32.9" r="2.4"/>
	<circle cx="-260.7" cy="-32.9" r="2.4"/>
</g>
<path d="M50.5,59.7l14.1-13.6l0.6-1.4l-0.6-1.4l-15.5-15c-0.5-0.5-1.4-0.7-2.1-0.3C46.4,28.3,46,29,46,29.7v25.1L34.3,43.5
	c-0.8-0.7-1.9-0.7-2.7,0.1c-0.7,0.8-0.7,1.9,0.1,2.7l0,0l14.1,13.6L31.8,73.5c-0.8,0.7-0.8,1.9-0.1,2.7s1.9,0.8,2.7,0.1L46,64.9
	v24.7c0,0.8,0.4,1.5,1.1,1.7s1.5,0.2,2.1-0.3l15.5-15l0.6-1.4l-0.6-1.4L50.5,59.7z M49.7,34.1l11,10.6l-11,10.6V34.1z M49.7,64.1
	l11,10.6l-11,10.6V64.1z"/>
</svg>
