<?xml version="1.0" encoding="utf-8"?>
<!-- Generator: Adobe Illustrator 21.0.0, SVG Export Plug-In . SVG Version: 6.00 Build 0)  -->
<svg version="1.1" id="Layer_1" xmlns="http://www.w3.org/2000/svg" xmlns:xlink="http://www.w3.org/1999/xlink" x="0px" y="0px"
	 viewBox="0 0 90 112.5" style="enable-background:new 0 0 90 112.5;" xml:space="preserve">
<title>DYO Neon Icons</title>
<path d="M44.9,56.7c-14.9,0-27-12.1-27-27s12.1-27,27-27s27,12.1,27,27S59.8,56.7,44.9,56.7L44.9,56.7z M44.9,5.7
	c-13.3,0-24,10.7-24,24s10.7,24,24,24s24-10.7,24-24C68.9,16.5,58.1,5.7,44.9,5.7L44.9,5.7z"/>
<path d="M61.6,84.6c-14.9,0-27-12.1-27-27s12.1-27,27-27s27,12.1,27,27v0C88.6,72.5,76.5,84.6,61.6,84.6z M61.6,33.6
	c-13.3,0-24,10.7-24,24s10.7,24,24,24s24-10.7,24-24l0,0C85.6,44.4,74.9,33.6,61.6,33.6L61.6,33.6z"/>
<path d="M28.2,84.6L28.2,84.6c-14.9,0-27-12.1-27-27c0-14.9,12.1-27,27-27c14.9,0,27,12.1,27,27c0,7.2-2.8,14-7.9,19.1
	C42.2,81.8,35.3,84.6,28.2,84.6z M28.2,33.6c-13.3,0-24,10.7-24,24s10.7,24,24,24l0,0c13.3,0,24-10.7,24-24S41.4,33.6,28.2,33.6z"/>
</svg>
