<?xml version="1.0" encoding="utf-8"?>
<!-- Generator: Adobe Illustrator 21.0.0, SVG Export Plug-In . SVG Version: 6.00 Build 0)  -->
<svg version="1.1" id="Layer_1" xmlns="http://www.w3.org/2000/svg" xmlns:xlink="http://www.w3.org/1999/xlink" x="0px" y="0px"
	 viewBox="0 0 32 40" style="enable-background:new 0 0 32 40;" xml:space="preserve">
<g>
	<path d="M17.9,4.9V4.2h0.8c0.3,0,0.5-0.2,0.5-0.5V1.3c0-0.3-0.2-0.5-0.5-0.5h-5.4c-0.3,0-0.5,0.2-0.5,0.5v2.4
		c0,0.3,0.2,0.5,0.5,0.5h0.8v0.7C7.7,5.8,2.8,11.3,2.8,18c0,7.3,5.9,13.2,13.2,13.2c7.3,0,13.2-5.9,13.2-13.2
		C29.2,11.3,24.3,5.8,17.9,4.9z M13.8,3.2V1.8h4.4v1.4h-0.8h-2.9H13.8z M16.9,4.2v0.5c-0.3,0-0.6,0-0.9,0c-0.3,0-0.6,0-0.9,0V4.2
		H16.9z M16,30.2C9.3,30.2,3.8,24.7,3.8,18S9.3,5.7,16,5.7S28.2,11.2,28.2,18S22.7,30.2,16,30.2z"/>
	<path d="M27.3,18c0-6.2-5-11.3-11.3-11.3S4.7,11.8,4.7,18c0,0,0,0.1,0,0.1c0,0,0,0,0,0c0,0,0,0,0,0.1c0.1,6.1,5.1,11,11.2,11
		c6.1,0,11.1-4.9,11.2-11c0,0,0,0,0-0.1c0,0,0,0,0,0C27.2,18.1,27.3,18,27.3,18z M23.8,18.7h2.4c-0.4,5.2-4.5,9.3-9.7,9.5v-2.4
		c0-0.3-0.2-0.5-0.5-0.5s-0.5,0.2-0.5,0.5v2.4c-5.2-0.3-9.4-4.4-9.7-9.6h2.4c0.3,0,0.5-0.2,0.5-0.5s-0.2-0.5-0.5-0.5H5.8
		c0.2-5.3,4.4-9.6,9.7-9.9v2.4c0,0.3,0.2,0.5,0.5,0.5c0.3,0,0.5-0.2,0.5-0.5V7.7c5.3,0.3,9.6,4.6,9.7,10h-2.4
		c-0.3,0-0.5,0.2-0.5,0.5S23.5,18.7,23.8,18.7z"/>
	<path d="M19,18.5c0.2-0.9-0.1-2-0.8-2.7c-0.7-0.7-1.7-1-2.6-0.8l-5-3.3c-0.2-0.1-0.5-0.1-0.6,0.1c-0.2,0.2-0.2,0.4-0.1,0.6l3.3,5
		c-0.2,0.9,0.1,1.9,0.8,2.7c0.6,0.6,1.3,0.9,2.1,0.9c0.2,0,0.4,0,0.5-0.1l5,3.3c0.1,0.1,0.2,0.1,0.3,0.1c0.1,0,0.3,0,0.4-0.1
		c0.2-0.2,0.2-0.4,0.1-0.6L19,18.5z M13.5,16.3l-1.6-2.4l2.4,1.6c-0.2,0.1-0.3,0.2-0.5,0.4C13.7,16,13.6,16.1,13.5,16.3z M14.6,19.4
		c-0.8-0.8-0.8-2.1,0-2.9c0.4-0.4,0.9-0.6,1.4-0.6s1.1,0.2,1.4,0.6c0.8,0.8,0.8,2.1,0,2.9C16.7,20.2,15.3,20.2,14.6,19.4z
		 M17.7,20.5c0.2-0.1,0.3-0.2,0.5-0.4c0.1-0.1,0.3-0.3,0.4-0.5l1.6,2.4L17.7,20.5z"/>
</g>
</svg>
