<?xml version="1.0" encoding="utf-8"?>
<!-- Generator: Adobe Illustrator 21.0.0, SVG Export Plug-In . SVG Version: 6.00 Build 0)  -->
<svg version="1.1" id="Layer_1" xmlns="http://www.w3.org/2000/svg" xmlns:xlink="http://www.w3.org/1999/xlink" x="0px" y="0px"
	 viewBox="0 0 100 125" style="enable-background:new 0 0 100 125;" xml:space="preserve">
<g>
	<path d="M49.7,90.9C37.2,90.9,27,80.7,27,68.2V44.1c0-0.9,0.8-1.7,1.7-1.7h13c0.9,0,1.7,0.8,1.7,1.7v23.6c0,3.4,2.8,6.3,6.3,6.3
		c3.4,0,6.3-2.8,6.3-6.3V44.1c0-0.9,0.8-1.7,1.7-1.7h13c0.9,0,1.7,0.8,1.7,1.7v24.1C72.4,80.7,62.2,90.9,49.7,90.9z M30.4,45.8v22.4
		c0,10.6,8.6,19.3,19.3,19.3S69,78.8,69,68.2V45.8h-9.6v21.9c0,5.3-4.3,9.6-9.6,9.6s-9.6-4.3-9.6-9.6V48.4v-2.6H30.4z"/>
	<rect x="28.7" y="50.2" width="13" height="3.4"/>
	<rect x="57.6" y="50.2" width="12.6" height="3.4"/>
</g>
<path d="M49.7,48.1c-0.1,0-0.3,0-0.4,0c-0.8-0.2-1.3-0.9-1.3-1.7V33.3h-8.8c-0.6,0-1.1-0.3-1.4-0.8c-0.3-0.5-0.3-1.1-0.1-1.6
	L48.2,9.2c0.3-0.7,1.1-1.1,1.9-0.9c0.8,0.2,1.3,0.9,1.3,1.7v13h8.8c0.6,0,1.1,0.3,1.4,0.8c0.3,0.5,0.3,1.1,0.1,1.6L51.2,47.2
	C50.9,47.8,50.3,48.1,49.7,48.1z M41.9,29.9h7.8c0.9,0,1.7,0.8,1.7,1.7V39l6.1-12.6h-7.8c-0.9,0-1.7-0.8-1.7-1.7v-7.4L41.9,29.9z"/>
</svg>
