<?xml version="1.0" encoding="utf-8"?>
<!-- Generator: Adobe Illustrator 21.0.0, SVG Export Plug-In . SVG Version: 6.00 Build 0)  -->
<svg version="1.1" id="Layer_1" xmlns="http://www.w3.org/2000/svg" xmlns:xlink="http://www.w3.org/1999/xlink" x="0px" y="0px"
	 viewBox="0 0 100 95.2" style="enable-background:new 0 0 100 95.2;" xml:space="preserve">
<path d="M33.1,73.6c0-2.1-0.7-4-1.8-5.5l9.6-9.6c1.7,1.3,3.8,2.2,6,2.5v5.4c-3.3,0.7-5.8,3.6-5.8,7.2c0,4,3.3,7.3,7.3,7.3
	s7.3-3.3,7.3-7.3c0-3.5-2.5-6.5-5.8-7.2V61c5.5-0.7,10-5.1,10.6-10.6h4c0.4,5.5,5,9.9,10.6,9.9c5.9,0,10.6-4.8,10.6-10.6
	S81,39,75.1,39c-5.1,0-9.3,3.6-10.4,8.4h-4.2c-0.7-5.5-5.1-10-10.6-10.6v-5.3c3.3-0.7,5.8-3.6,5.8-7.2c0-4-3.3-7.3-7.3-7.3
	s-7.3,3.3-7.3,7.3c0,3.5,2.5,6.5,5.8,7.2v5.3c-2.5,0.3-4.8,1.4-6.6,3l-5.8-5.2c1.1-1.7,1.8-3.8,1.8-6c0-6-4.8-10.8-10.8-10.8
	s-10.8,4.8-10.8,10.8s4.8,10.8,10.8,10.8c2.7,0,5.1-1,7-2.6l5.8,5.2c-1.4,2-2.2,4.4-2.2,6.9c0,2.8,1,5.4,2.6,7.5L29.1,66
	c-1.6-1.1-3.5-1.8-5.5-1.8c-5.2,0-9.4,4.2-9.4,9.4s4.2,9.4,9.4,9.4C28.9,83,33.1,78.8,33.1,73.6z M75.1,42c4.2,0,7.6,3.4,7.6,7.6
	s-3.4,7.6-7.6,7.6s-7.6-3.4-7.6-7.6S70.9,42,75.1,42z M25.6,36.3c-4.3,0-7.8-3.5-7.8-7.8s3.5-7.8,7.8-7.8s7.8,3.5,7.8,7.8
	S29.9,36.3,25.6,36.3z M52.7,73.6c0,2.4-1.9,4.3-4.3,4.3s-4.3-1.9-4.3-4.3s1.9-4.3,4.3-4.3S52.7,71.2,52.7,73.6z M44.1,24.3
	c0-2.4,1.9-4.3,4.3-4.3s4.3,1.9,4.3,4.3s-1.9,4.3-4.3,4.3S44.1,26.7,44.1,24.3z M48.4,39.6c5.1,0,9.2,4.1,9.2,9.2S53.5,58,48.4,58
	s-9.2-4.1-9.2-9.2S43.3,39.6,48.4,39.6z M17.2,73.6c0-3.5,2.9-6.4,6.4-6.4s6.4,2.9,6.4,6.4S27.2,80,23.7,80S17.2,77.1,17.2,73.6z"/>
</svg>
