<?xml version="1.0" encoding="utf-8"?>
<!-- Generator: Adobe Illustrator 21.0.0, SVG Export Plug-In . SVG Version: 6.00 Build 0)  -->
<svg version="1.1" id="Layer_1" xmlns="http://www.w3.org/2000/svg" xmlns:xlink="http://www.w3.org/1999/xlink" x="0px" y="0px"
	 viewBox="0 0 100 125" style="enable-background:new 0 0 100 125;" xml:space="preserve">
<path d="M94,52c-1.1,0-2-0.9-2-2s0.9-2,2-2c1.1,0,2,0.9,2,2S95.1,52,94,52z M90,51h-2c-0.6,0-1-0.4-1-1c0-0.6,0.4-1,1-1h2
	c0.6,0,1,0.4,1,1C91,50.6,90.6,51,90,51z M50,85c-19.3,0-35-15.7-35-35s15.7-35,35-35s35,15.7,35,35S69.3,85,50,85z M50,17
	C32.1,17,17,32,17,50s15.1,33,33,33s33-15.1,33-33S68,17,50,17z M51,81c-3.5,0-6.2-9.8-6.8-24.2C29.8,56.2,20,53.5,20,50
	c0-3.5,9.8-6.2,24.2-6.8C44.8,28.8,47.5,19,51,19s6.2,9.8,6.8,24.2C72.2,43.8,82,46.5,82,50c0,3.5-9.8,6.2-24.2,6.8
	C57.2,71.2,54.5,81,51,81z M51,79c1.7,0,4.1-9.4,4.8-22.1C54.3,57,52.7,57,51,57c-1.7,0-3.2,0-4.8-0.1C46.9,69.6,49.3,79,51,79z
	 M56,50c0-1.7,0-3.3-0.1-4.9C54.3,45,52.7,45,51,45s-3.3,0-4.9,0.1C46,46.7,46,48.3,46,50s0,3.3,0.1,4.9c1.6,0.1,3.2,0.1,4.9,0.1
	c1.7,0,3.3,0,4.9-0.1C56,53.3,56,51.7,56,50z M22,50c0,1.7,9.4,4.1,22.1,4.8c0-1.6-0.1-3.2-0.1-4.8s0-3.2,0.1-4.8
	C31.4,45.9,22,48.3,22,50z M51,21c-1.7,0-4.1,9.4-4.8,22.1c1.6,0,3.2-0.1,4.8-0.1s3.2,0,4.8,0.1C55.1,30.4,52.7,21,51,21z M80,50
	c0-1.7-9.4-4.1-22.1-4.8c0,1.6,0.1,3.2,0.1,4.8c0,1.7,0,3.2-0.1,4.8C70.6,54.1,80,51.7,80,50z M49,50c0-1.1,0.9-2,2-2s2,0.9,2,2
	s-0.9,2-2,2S49,51.1,49,50z M52,10v2c0,0.6-0.4,1-1,1c-0.6,0-1-0.4-1-1v-2c0-0.6,0.4-1,1-1C51.6,9,52,9.4,52,10z M51,8
	c-1.1,0-2-0.9-2-2s0.9-2,2-2s2,0.9,2,2S52.1,8,51,8z M12,51h-2c-0.6,0-1-0.4-1-1c0-0.6,0.4-1,1-1h2c0.6,0,1,0.4,1,1
	C13,50.6,12.6,51,12,51z M6,52c-1.1,0-2-0.9-2-2s0.9-2,2-2s2,0.9,2,2S7.1,52,6,52z M50,90v-2c0-0.6,0.4-1,1-1c0.6,0,1,0.4,1,1v2
	c0,0.6-0.4,1-1,1C50.4,91,50,90.6,50,90z M51,92c1.1,0,2,0.9,2,2s-0.9,2-2,2s-2-0.9-2-2S49.9,92,51,92z"/>
</svg>
