<?xml version="1.0" encoding="utf-8"?>
<!-- Generator: Adobe Illustrator 21.0.0, SVG Export Plug-In . SVG Version: 6.00 Build 0)  -->
<svg version="1.1" id="Layer_1" xmlns="http://www.w3.org/2000/svg" xmlns:xlink="http://www.w3.org/1999/xlink" x="0px" y="0px"
	 viewBox="0 0 100 110.1" style="enable-background:new 0 0 100 110.1;" xml:space="preserve">
<g>
	<path d="M29.4,33.8c0-7,1.8-13.9,5.2-19.3c0.7-1.2,0.6-2.9-0.3-3.9c-0.9-1-2.2-0.8-2.9,0.4c-3.9,6.4-6.1,14.5-6.1,22.8
		c0,8.4,2.2,16.5,6.2,23c3.4,5.4,5.2,12.3,5.2,19.4c0,7-1.8,13.9-5.2,19.3c-0.7,1.2-0.6,2.9,0.3,3.9c0.4,0.4,0.8,0.6,1.3,0.6
		c0.6,0,1.2-0.3,1.6-1c3.9-6.4,6.1-14.5,6.1-22.8c0-8.4-2.2-16.5-6.2-23C31.3,47.8,29.4,40.9,29.4,33.8z"/>
	<path d="M46.3,33.8c0-7,1.8-13.9,5.2-19.3c0.7-1.2,0.6-2.9-0.3-3.9c-0.9-1-2.2-0.8-2.9,0.4c-3.9,6.4-6.1,14.5-6.1,22.8
		c0,8.4,2.2,16.5,6.2,23c3.4,5.4,5.2,12.3,5.2,19.4c0,7-1.8,13.9-5.2,19.3c-0.7,1.2-0.6,2.9,0.3,3.9c0.4,0.4,0.8,0.6,1.3,0.6
		c0.6,0,1.2-0.3,1.6-1c3.9-6.4,6.1-14.5,6.1-22.8c0-8.4-2.2-16.5-6.2-23C48.2,47.8,46.3,40.9,46.3,33.8z"/>
	<path d="M68.5,53.3c-3.4-5.4-5.2-12.3-5.2-19.4c0-7,1.8-13.9,5.2-19.3c0.7-1.2,0.6-2.9-0.3-3.9c-0.9-1-2.2-0.8-2.9,0.4
		c-3.9,6.4-6.1,14.5-6.1,22.8c0,8.4,2.2,16.5,6.2,23c3.4,5.4,5.2,12.3,5.2,19.4c0,7-1.8,13.9-5.2,19.3c-0.7,1.2-0.6,2.9,0.3,3.9
		c0.4,0.4,0.8,0.6,1.3,0.6c0.6,0,1.2-0.3,1.6-1c3.9-6.4,6.1-14.5,6.1-22.8C74.7,67.9,72.5,59.7,68.5,53.3z"/>
</g>
</svg>
