<?xml version="1.0" encoding="utf-8"?>
<!-- Generator: Adobe Illustrator 21.0.0, SVG Export Plug-In . SVG Version: 6.00 Build 0)  -->
<svg version="1.1"
	 id="Layer_1" xmlns:cc="http://creativecommons.org/ns#" xmlns:dc="http://purl.org/dc/elements/1.1/" xmlns:inkscape="http://www.inkscape.org/namespaces/inkscape" xmlns:rdf="http://www.w3.org/1999/02/22-rdf-syntax-ns#" xmlns:sodipodi="http://sodipodi.sourceforge.net/DTD/sodipodi-0.dtd" xmlns:svg="http://www.w3.org/2000/svg"
	 xmlns="http://www.w3.org/2000/svg" xmlns:xlink="http://www.w3.org/1999/xlink" x="0px" y="0px" viewBox="0 0 100 125"
	 style="enable-background:new 0 0 100 125;" xml:space="preserve">
<g transform="translate(0,-952.36218)">
	<path d="M50,961.4c-13.2,0-26,10.3-26,24.8c0,9.2,3.6,15,6.9,19.7c3.3,4.7,6.1,8.1,6.1,13.5v12c0,3.4,2.8,6,6,6h1c0,3.3,2.7,6,6,6
		s6-2.7,6-6h1c3.2,0,6-2.6,6-6v-12c0-5.4,2.8-8.8,6.1-13.5c3.3-4.7,6.9-10.5,6.9-19.7C76,971.6,63.2,961.4,50,961.4z M50,965.4
		c11.2,0,22,8.6,22,20.8c0,8.2-2.9,12.8-6.1,17.4c-2.9,4.1-6.1,8.1-6.8,13.8H40.9c-0.6-5.7-3.9-9.7-6.8-13.8
		c-3.2-4.5-6.1-9.2-6.1-17.4C28,974,38.8,965.4,50,965.4z M47.8,968.5c-9.4,1.1-16.8,9.2-16.8,18.9c0,1.9,0.3,3.8,0.8,5.6
		c0.2,1.1,1.5,1.8,2.5,1.5s1.7-1.6,1.3-2.7c-0.4-1.4-0.7-2.9-0.7-4.4c0-7.7,5.8-14,13.2-14.9c1-0.1,1.9-1.1,1.8-2.2
		C50,968.9,48.9,968.4,47.8,968.5z M41,1021.4h18v4H41V1021.4z M41,1029.4h18v2c0,1.2-1,2-2,2H43c-1,0-2-0.8-2-2V1029.4z M48,1037.4
		h4c0,1.1-0.9,2-2,2S48,1038.5,48,1037.4z"/>
</g>
</svg>
