<?xml version="1.0" encoding="utf-8"?>
<!-- Generator: Adobe Illustrator 21.0.0, SVG Export Plug-In . SVG Version: 6.00 Build 0)  -->
<svg version="1.1"
	 id="Layer_1" xmlns:cc="http://creativecommons.org/ns#" xmlns:dc="http://purl.org/dc/elements/1.1/" xmlns:inkscape="http://www.inkscape.org/namespaces/inkscape" xmlns:rdf="http://www.w3.org/1999/02/22-rdf-syntax-ns#" xmlns:sodipodi="http://sodipodi.sourceforge.net/DTD/sodipodi-0.dtd" xmlns:svg="http://www.w3.org/2000/svg"
	 xmlns="http://www.w3.org/2000/svg" xmlns:xlink="http://www.w3.org/1999/xlink" x="0px" y="0px" viewBox="0 0 100 125"
	 style="enable-background:new 0 0 100 125;" xml:space="preserve">
<g transform="translate(0,-952.36218)">
	<path d="M47.9,976.7c-12.2,0-23.9,9.5-23.9,22.8c0,8.5,3.3,13.8,6.4,18.1s5.6,7.5,5.6,12.4v11c0,3.1,2.6,5.5,5.5,5.5h0.9
		c0,3,2.5,5.5,5.5,5.5s5.5-2.5,5.5-5.5h0.9c2.9,0,5.5-2.4,5.5-5.5v-11c0-5,2.6-8.1,5.6-12.4s6.4-9.7,6.4-18.1
		C71.9,986.1,60.1,976.7,47.9,976.7z M47.9,980.4c10.3,0,20.3,7.9,20.3,19.2c0,7.6-2.7,11.8-5.6,16c-2.7,3.8-5.6,7.5-6.3,12.7H39.6
		c-0.6-5.2-3.6-8.9-6.3-12.7c-2.9-4.1-5.6-8.5-5.6-16C27.7,988.3,37.6,980.4,47.9,980.4z M45.9,983.2c-8.7,1-15.5,8.5-15.5,17.4
		c0,1.7,0.3,3.5,0.7,5.2c0.2,1,1.4,1.7,2.3,1.4s1.6-1.5,1.2-2.5c-0.4-1.3-0.6-2.7-0.6-4.1c0-7.1,5.3-12.9,12.2-13.7
		c0.9-0.1,1.7-1,1.7-2C47.9,983.6,46.9,983.1,45.9,983.2z M39.7,1031.9h16.6v3.7H39.7V1031.9z M39.7,1039.3h16.6v1.8
		c0,1.1-0.9,1.8-1.8,1.8H41.5c-0.9,0-1.8-0.7-1.8-1.8V1039.3z M46.1,1046.7h3.7c0,1-0.8,1.8-1.8,1.8
		C46.9,1048.5,46.1,1047.7,46.1,1046.7z"/>
</g>
</svg>
