<?xml version="1.0" encoding="utf-8"?>
<!-- Generator: Adobe Illustrator 21.0.0, SVG Export Plug-In . SVG Version: 6.00 Build 0)  -->
<svg version="1.1" id="Layer_1" xmlns="http://www.w3.org/2000/svg" xmlns:xlink="http://www.w3.org/1999/xlink" x="0px" y="0px"
	 viewBox="0 0 100 125" style="enable-background:new 0 0 100 125;" xml:space="preserve">
<g>
	<path d="M34.3,35.4H6.6c-0.9,0-1.6-0.7-1.6-1.6s0.7-1.6,1.6-1.6h27.7c0.9,0,1.6,0.7,1.6,1.6S35.2,35.4,34.3,35.4z"/>
	<path d="M34.3,49.7h-19c-0.9,0-1.6-0.7-1.6-1.6c0-0.9,0.7-1.6,1.6-1.6h19c0.9,0,1.6,0.7,1.6,1.6C35.9,49,35.2,49.7,34.3,49.7z"/>
	<path d="M34.3,64H24.1c-0.9,0-1.6-0.7-1.6-1.6s0.7-1.6,1.6-1.6h10.2c0.9,0,1.6,0.7,1.6,1.6S35.2,64,34.3,64z"/>
	<path d="M68.7,76.3c-14.5,0-26.3-11.8-26.3-26.3s11.8-26.3,26.3-26.3S95,35.5,95,50S83.2,76.3,68.7,76.3z M68.7,28.2
		c-12,0-21.8,9.8-21.8,21.8s9.8,21.8,21.8,21.8S90.6,62,90.6,50S80.8,28.2,68.7,28.2z"/>
</g>
</svg>
