<?xml version="1.0" encoding="utf-8"?>
<!-- Generator: Adobe Illustrator 21.0.0, SVG Export Plug-In . SVG Version: 6.00 Build 0)  -->
<svg version="1.1" id="Layer_1" xmlns="http://www.w3.org/2000/svg" xmlns:xlink="http://www.w3.org/1999/xlink" x="0px" y="0px"
	 viewBox="0 0 100 125" style="enable-background:new 0 0 100 125;" xml:space="preserve">
<g>
	<path d="M34.1,41.1H6c-0.9,0-1.6-0.7-1.6-1.6S5,37.8,6,37.8h28.1c0.9,0,1.6,0.7,1.6,1.6S35,41.1,34.1,41.1z"/>
	<path d="M34.1,55.6H14.8c-0.9,0-1.6-0.7-1.6-1.6s0.7-1.6,1.6-1.6h19.3c0.9,0,1.6,0.7,1.6,1.6C35.7,54.9,35,55.6,34.1,55.6z"/>
	<path d="M34.1,70.1H23.7c-0.9,0-1.6-0.7-1.6-1.6c0-0.9,0.7-1.6,1.6-1.6h10.3c0.9,0,1.6,0.7,1.6,1.6C35.7,69.4,35,70.1,34.1,70.1z"
		/>
	<path d="M69,82.6c-14.7,0-26.7-12-26.7-26.7s12-26.7,26.7-26.7s26.7,12,26.7,26.7S83.7,82.6,69,82.6z M69,33.8
		c-12.2,0-22.1,9.9-22.1,22.1S56.8,78,69,78s22.2-9.9,22.2-22.1S81.3,33.8,69,33.8z"/>
</g>
</svg>
