<svg xmlns="http://www.w3.org/2000/svg" viewBox="-20 -20 140 70.7038853154662" xmlns:xlink="http://www.w3.org/1999/xlink" version="1.1"  ><rect width="100%" height="100%" x="-20" y="-20" fill="#000000" ></rect><g transform="translate(33.93912865399754 17.347695203238402) scale(0.15351942657733098)" id="horizontalContainerlessSvgTemplate"><g fill="#FFFFFF"><g transform="translate(-12.85714285714286 51.619047619047635) scale(3.306878306878307)" fill="#FFFFFF"><g id="line1" fill="#FFFFFF"><path d="M3.888-1.368C3.888-0.648 4.536 0 5.256 0L12.816 0C13.824 0 14.112-0.720 14.112-1.368L14.112-15.192C14.112-18.144 16.704-20.232 19.584-20.232C22.824-20.232 24.480-17.712 24.480-14.832L24.480-1.368C24.480-0.648 25.056 0 25.848 0L33.552 0C34.272 0 34.920-0.648 34.920-1.368L34.920-14.472C34.920-22.680 30.168-29.520 21.240-29.520C15.984-29.520 12.672-26.784 11.088-25.056L9.936-27.936C9.720-28.440 9.072-28.800 8.640-28.800L5.256-28.800C4.536-28.800 3.888-28.224 3.888-27.432Z"></path><path d="M40.255-14.400C40.255-6.192 44.359 0.720 52.927 0.720C58.471 0.720 60.775-1.872 62.647-3.672L63.727-1.008C63.943-0.504 64.447 0 65.095 0L68.479 0C69.199 0 69.847-0.648 69.847-1.368L69.847-27.432C69.847-28.224 69.199-28.800 68.479-28.800L61.135-28.800C60.415-28.800 59.623-28.584 59.623-27.432L59.623-13.680C59.623-11.232 58.111-8.568 55.303-8.568C52.351-8.568 50.695-11.160 50.695-14.112L50.695-27.432C50.695-28.224 50.047-28.800 49.327-28.800L41.623-28.800C40.903-28.800 40.255-28.224 40.255-27.432Z"></path><path d="M86.558 0C86.774 0.360 87.350 0.720 87.782 0.720L88.142 0.720C88.574 0.720 89.150 0.360 89.366 0L103.046-26.856C103.550-27.792 102.902-28.800 101.822-28.800L94.550-28.800C93.542-28.800 93.038-28.872 92.606-28.008L88.070-18.216C87.998-18.216 87.926-18.216 87.854-18.216L83.606-28.008C83.390-28.440 82.814-28.800 82.310-28.800L74.246-28.800C73.166-28.800 72.518-27.792 73.022-26.856Z"></path><path d="M104.062-14.472C104.062-6.192 110.830 0.720 119.038 0.720C127.246 0.720 134.014-6.192 134.014-14.472C134.014-22.608 127.246-29.520 119.038-29.520C110.830-29.520 104.062-22.608 104.062-14.472ZM113.350-14.472C113.350-17.640 115.870-20.232 119.038-20.232C122.206-20.232 124.726-17.640 124.726-14.472C124.726-11.232 122.206-8.568 119.038-8.568C115.870-8.568 113.350-11.232 113.350-14.472Z"></path></g></g><g transform="translate(-281.89525573269015 -159.19773768345027) scale(2.896444037740927)" id="logomark"><g fill="#FFFFFF"><path d="M80.978 85H69.559a2.53 2.53 0 0 1 0-5.058h7.126L52.361 36.04 27.839 79.941h7.381a2.53 2.53 0 0 1 0 5.058H23.529a2.527 2.527 0 0 1-2.208-3.762l28.84-51.634a2.53 2.53 0 0 1 2.208-1.296h.005c.918.002 1.762.5 2.207 1.304L83.19 81.245A2.53 2.53 0 0 1 80.978 85zM48.552 25.963a2.528 2.528 0 0 1-2.219-1.312l-2.721-4.952a2.529 2.529 0 1 1 4.434-2.436l2.721 4.952a2.529 2.529 0 0 1-2.215 3.748z"></path><path d="M60.916 84.857a2.53 2.53 0 0 1-2.529-2.529 6.14 6.14 0 0 0-6.133-6.133 6.14 6.14 0 0 0-6.133 6.133 2.53 2.53 0 0 1-5.058 0c0-6.171 5.02-11.192 11.192-11.192s11.192 5.02 11.192 11.192a2.532 2.532 0 0 1-2.531 2.529z"></path><g><path d="M57.207 25.963a2.529 2.529 0 0 1-2.214-3.748l2.721-4.952a2.525 2.525 0 0 1 3.435-.999 2.529 2.529 0 0 1 .999 3.435l-2.721 4.952a2.533 2.533 0 0 1-2.22 1.312z"></path></g></g></g></g></g></svg>