<?xml version="1.0" encoding="utf-8"?>
<!-- Generator: Adobe Illustrator 21.0.0, SVG Export Plug-In . SVG Version: 6.00 Build 0)  -->
<svg version="1.1"
	 id="Layer_1" xmlns:cc="http://creativecommons.org/ns#" xmlns:dc="http://purl.org/dc/elements/1.1/" xmlns:inkscape="http://www.inkscape.org/namespaces/inkscape" xmlns:rdf="http://www.w3.org/1999/02/22-rdf-syntax-ns#" xmlns:sodipodi="http://sodipodi.sourceforge.net/DTD/sodipodi-0.dtd" xmlns:svg="http://www.w3.org/2000/svg"
	 xmlns="http://www.w3.org/2000/svg" xmlns:xlink="http://www.w3.org/1999/xlink" x="0px" y="0px" viewBox="0 0 48 60"
	 style="enable-background:new 0 0 48 60;" xml:space="preserve">
<g transform="translate(0,-1004.3622)">
	<path d="M20,1008.4c-2.7,0-5,2.2-5,5c0,7.2,0,14.4,0,21.6c-2.5,2.1-3.6,5.5-2.6,8.7c1,3.4,4.1,5.7,7.6,5.7c3.5,0,6.6-2.3,7.6-5.7
		c1-3.2-0.1-6.6-2.6-8.7c0-7.2,0-14.4,0-21.6C25,1010.6,22.8,1008.4,20,1008.4z M20,1010.4c1.7,0,3,1.3,3,3c0,7.5,0,15,0,22.5
		l0.4,0.3c2.2,1.5,3.1,4.3,2.3,6.9c-0.8,2.6-3.1,4.3-5.7,4.3c-2.6,0-4.9-1.7-5.7-4.3c-0.8-2.6,0.1-5.4,2.3-6.9l0.4-0.3
		c0-7.5,0-15,0-22.5C17,1011.7,18.3,1010.4,20,1010.4L20,1010.4z"/>
	<path d="M20,1037.4c-2.2,0-4,1.8-4,4s1.8,4,4,4s4-1.8,4-4S22.2,1037.4,20,1037.4z M20,1039.4c1.1,0,2,0.9,2,2s-0.9,2-2,2
		s-2-0.9-2-2S18.9,1039.4,20,1039.4z"/>
	<path d="M20,1031.4c-0.6,0-1,0.5-1,1v6c0,0.6,0.4,1,1,1s1-0.4,1-1c0,0,0,0,0,0v-6C21,1031.8,20.6,1031.4,20,1031.4
		C20,1031.4,20,1031.4,20,1031.4z"/>
	<path d="M40,1013.4c-0.6,0-1,0.5-1,1c0,0,0,0,0,0v7c0,0.6,0.4,1,1,1s1-0.4,1-1c0,0,0,0,0,0v-7C41,1013.8,40.6,1013.4,40,1013.4
		C40,1013.4,40,1013.4,40,1013.4z"/>
	<path d="M37,1015.4c-0.6,0-1,0.5-1,1c0,0.4,0.2,0.7,0.6,0.9l6,3c0.5,0.3,1.1,0.1,1.4-0.4s0.1-1.1-0.4-1.4c0,0,0,0,0,0l-6-3
		C37.3,1015.4,37.1,1015.4,37,1015.4z"/>
	<path d="M43,1015.4c-0.2,0-0.3,0-0.5,0.1l-6,3c-0.5,0.2-0.7,0.8-0.5,1.3c0.2,0.5,0.8,0.7,1.3,0.5c0,0,0,0,0.1,0l6-3
		c0.5-0.2,0.7-0.8,0.5-1.3C43.7,1015.6,43.4,1015.4,43,1015.4z"/>
	<path d="M32,1007.4c-0.6,0-1,0.5-1,1c0,0,0,0,0,0v7c0,0.6,0.4,1,1,1c0.6,0,1-0.4,1-1c0,0,0,0,0,0v-7
		C33,1007.8,32.6,1007.4,32,1007.4C32,1007.4,32,1007.4,32,1007.4L32,1007.4z"/>
	<path d="M29,1009.4c-0.6,0-1,0.5-1,1c0,0.4,0.2,0.7,0.6,0.9l6,3c0.5,0.3,1.1,0.1,1.4-0.4c0.3-0.5,0.1-1.1-0.4-1.4c0,0,0,0,0,0l-6-3
		C29.3,1009.4,29.1,1009.4,29,1009.4z"/>
	<path d="M35,1009.4c-0.2,0-0.3,0-0.5,0.1l-6,3c-0.5,0.2-0.7,0.8-0.5,1.3c0.2,0.5,0.8,0.7,1.3,0.5c0,0,0,0,0.1,0l6-3
		c0.5-0.2,0.7-0.8,0.5-1.3C35.7,1009.6,35.4,1009.4,35,1009.4z"/>
	<path d="M6,1033.4c-0.6,0-1,0.4-1,1s0.4,1,1,1c0,0,0,0,0,0h5c0.6,0,1-0.4,1-1s-0.4-1-1-1c0,0,0,0,0,0H6z"/>
	<path d="M8,1021.4c-0.6,0-1,0.4-1,1c0,0.6,0.4,1,1,1c0,0,0,0,0,0h3c0.6,0,1-0.4,1-1c0-0.6-0.4-1-1-1c0,0,0,0,0,0
		C11,1021.4,8,1021.4,8,1021.4z"/>
	<path d="M6,1017.4c-0.6,0-1,0.4-1,1c0,0.6,0.4,1,1,1c0,0,0,0,0,0h5c0.6,0,1-0.4,1-1c0-0.6-0.4-1-1-1c0,0,0,0,0,0H6z"/>
	<path d="M8,1013.4c-0.6,0-1,0.4-1,1c0,0.6,0.4,1,1,1c0,0,0,0,0,0h3c0.6,0,1-0.4,1-1c0-0.6-0.4-1-1-1c0,0,0,0,0,0
		C11,1013.4,8,1013.4,8,1013.4z"/>
	<path d="M6,1009.4c-0.6,0-1,0.4-1,1c0,0.6,0.4,1,1,1c0,0,0,0,0,0h5c0.6,0,1-0.4,1-1c0-0.6-0.4-1-1-1c0,0,0,0,0,0
		C11,1009.4,6,1009.4,6,1009.4z"/>
	<path d="M8,1029.4c-0.6,0-1,0.4-1,1c0,0.6,0.4,1,1,1c0,0,0,0,0,0h3c0.6,0,1-0.4,1-1c0-0.6-0.4-1-1-1c0,0,0,0,0,0
		C11,1029.4,8,1029.4,8,1029.4z"/>
	<path d="M6,1025.4c-0.6,0-1,0.4-1,1s0.4,1,1,1c0,0,0,0,0,0h5c0.6,0,1-0.4,1-1s-0.4-1-1-1c0,0,0,0,0,0H6z"/>
</g>
</svg>
