<?xml version="1.0" encoding="utf-8"?>
<!-- Generator: Adobe Illustrator 21.0.0, SVG Export Plug-In . SVG Version: 6.00 Build 0)  -->
<svg version="1.1" id="Layer_1" xmlns="http://www.w3.org/2000/svg" xmlns:xlink="http://www.w3.org/1999/xlink" x="0px" y="0px"
	 viewBox="0 0 40.1 44.7" style="enable-background:new 0 0 40.1 44.7;" xml:space="preserve">
<g>
	<path d="M35.6,14.5c0.7-1.7,0.5-3.6-0.4-5.3L29.8,0l-2.3,3.9c-1.3-0.8-3.3-1.6-4.8-1.6c-2.9,0-5.5,1.7-6.9,4.4
		c-0.7-0.2-1.5-0.3-2.2-0.3c-4.2,0-7.7,3.3-8,7.4C2.3,15,0,18.4,0,22.3c0,3.1,2.3,5.6,5.1,5.6h5.3v3.8c-2.1,1-3.4,3.1-3.3,5.5
		c0.2,2.9,2.6,5.3,5.5,5.4c0.1,0,0.2,0,0.2,0c1.5,0,2.9-0.6,4-1.6c1.1-1.1,1.8-2.5,1.8-4.1c0-2.2-1.3-4.2-3.3-5.2V28H35
		c2.8,0,5.1-2.5,5.1-5.6C40.1,18.7,38.5,15.9,35.6,14.5z M34,10c0.9,1.5,0.9,3.3,0,4.8c-0.9,1.5-2.4,2.4-4.2,2.4s-3.3-0.9-4.2-2.4
		s-0.9-3.3,0-4.8l4.2-7.2L34,10z M17.1,36.9c0,1.2-0.5,2.3-1.3,3.1c-0.9,0.8-2,1.3-3.2,1.2c-2.2-0.1-4-1.9-4.2-4.1
		c-0.1-1.9,1-3.7,2.9-4.3l0.4-0.2V12.3c0-0.6,0.5-1,1-1s1,0.5,1,1v20.4l0.4,0.2C16,33.5,17.1,35.1,17.1,36.9z M35,26.6H15.2V12.3
		c0-1.3-1.1-2.4-2.4-2.4s-2.4,1.1-2.4,2.4v0.4H8.8v1.4h1.6v2.6H8.8v1.4h1.6v2.6H8.8v1.4h1.6v4.4H5.1c-2.1,0-3.7-1.9-3.7-4.2
		c0-3.5,2.1-6.5,5.1-7.3l0.5-0.1v-0.5c0-3.6,3-6.5,6.6-6.5c0.8,0,1.6,0.1,2.4,0.4l0.6,0.2l0.3-0.6c1.1-2.6,3.4-4.2,5.9-4.2
		c1.2,0,3,0.7,4.1,1.4l-2.4,4.2c-1.1,1.9-1.1,4.3,0,6.2c1.1,1.9,3.1,3.1,5.4,3.1c2.1,0,4-1,5.2-2.8c2.4,1.1,3.7,3.4,3.7,6.6
		C38.7,24.7,37.1,26.6,35,26.6z"/>
	<path d="M9.6,36.9c0,1.8,1.4,3.2,3.2,3.2s3.2-1.4,3.2-3.2s-1.4-3.2-3.2-3.2S9.6,35.1,9.6,36.9z M14.6,36.9c0,1-0.8,1.9-1.9,1.9
		s-1.9-0.8-1.9-1.9c0-1,0.8-1.9,1.9-1.9S14.6,35.9,14.6,36.9z"/>
	<path d="M28.5,11.7c0.5,0,1-0.4,1-1c0-0.5-0.4-1-1-1c-0.5,0-1,0.4-1,1C27.5,11.2,28,11.7,28.5,11.7z M28.5,10.3
		c0.2,0,0.4,0.2,0.4,0.4c0,0.2-0.2,0.4-0.4,0.4s-0.4-0.2-0.4-0.4C28.1,10.5,28.3,10.3,28.5,10.3z"/>
	<rect x="26.8" y="11.8" transform="matrix(0.7071 -0.7071 0.7071 0.7071 -2.438727e-02 24.8295)" width="6.3" height="1.4"/>
	<path d="M31.6,13.3c-0.5,0-1,0.4-1,1s0.4,1,1,1c0.5,0,1-0.4,1-1S32.1,13.3,31.6,13.3z M31.6,14.7c-0.2,0-0.4-0.2-0.4-0.4
		c0-0.2,0.2-0.4,0.4-0.4S32,14,32,14.3C32,14.5,31.8,14.7,31.6,14.7z"/>
</g>
</svg>
