<?xml version="1.0" encoding="utf-8"?>
<!-- Generator: Adobe Illustrator 21.0.0, SVG Export Plug-In . SVG Version: 6.00 Build 0)  -->
<svg version="1.1" id="Layer_1" xmlns="http://www.w3.org/2000/svg" xmlns:xlink="http://www.w3.org/1999/xlink" x="0px" y="0px"
	 viewBox="0 0 50.9 56.7" style="enable-background:new 0 0 50.9 56.7;" xml:space="preserve">
<g>
	<path d="M42.3,21.6c0.8-1.8,0.5-3.9-0.4-5.8L36,5.8l-2.5,4.2c-1.4-0.9-3.6-1.7-5.2-1.7c-3.2,0-6,1.8-7.5,4.8
		c-0.8-0.2-1.6-0.3-2.4-0.3c-4.6,0-8.4,3.6-8.7,8c-3.6,1.3-6.1,5-6.1,9.2c0,3.4,2.5,6.1,5.5,6.1h5.8v4.1c-2.3,1.1-3.7,3.4-3.6,6
		c0.2,3.2,2.8,5.8,6,5.9c0.1,0,0.2,0,0.2,0c1.6,0,3.2-0.7,4.3-1.7c1.2-1.2,2-2.7,2-4.5c0-2.4-1.4-4.6-3.6-5.6v-4h21.4
		c3,0,5.5-2.7,5.5-6.1C47.2,26.1,45.5,23.1,42.3,21.6z M40.6,16.7c1,1.6,1,3.6,0,5.2S38,24.5,36,24.5c-2,0-3.6-1-4.6-2.6
		s-1-3.6,0-5.2L36,8.9L40.6,16.7z M22.2,45.9c0,1.3-0.5,2.5-1.4,3.4c-1,0.9-2.2,1.4-3.5,1.3c-2.4-0.1-4.3-2.1-4.6-4.5
		c-0.1-2.1,1.1-4,3.2-4.7l0.4-0.2V19.2c0-0.7,0.5-1.1,1.1-1.1s1.1,0.5,1.1,1.1v22.2l0.4,0.2C21,42.2,22.2,44,22.2,45.9z M41.7,34.7
		H20.2V19.2c0-1.4-1.2-2.6-2.6-2.6c-1.4,0-2.6,1.2-2.6,2.6v0.4h-1.7v1.5h1.7V24h-1.7v1.5h1.7v2.8h-1.7v1.5h1.7v4.8H9.2
		c-2.3,0-4-2.1-4-4.6c0-3.8,2.3-7.1,5.5-7.9l0.5-0.1v-0.5c0-3.9,3.3-7.1,7.2-7.1c0.9,0,1.7,0.1,2.6,0.4l0.7,0.2l0.3-0.7
		c1.2-2.8,3.7-4.6,6.4-4.6c1.3,0,3.3,0.8,4.5,1.5l-2.6,4.6c-1.2,2.1-1.2,4.7,0,6.7s3.4,3.4,5.9,3.4c2.3,0,4.3-1.1,5.6-3
		c2.6,1.2,4,3.7,4,7.2C45.7,32.7,44,34.7,41.7,34.7z"/>
	<path d="M14.1,45.9c0,2,1.5,3.5,3.5,3.5s3.5-1.5,3.5-3.5s-1.5-3.5-3.5-3.5S14.1,44,14.1,45.9z M19.5,45.9c0,1.1-0.9,2.1-2.1,2.1
		c-1.2,0-2.1-0.9-2.1-2.1c0-1.1,0.9-2.1,2.1-2.1C18.6,43.8,19.5,44.8,19.5,45.9z"/>
	<path d="M34.6,18.5c0.5,0,1.1-0.4,1.1-1.1c0-0.5-0.4-1.1-1.1-1.1c-0.5,0-1.1,0.4-1.1,1.1C33.5,18,34.1,18.5,34.6,18.5z M34.6,17
		c0.2,0,0.4,0.2,0.4,0.4c0,0.2-0.2,0.4-0.4,0.4c-0.2,0-0.4-0.2-0.4-0.4C34.2,17.2,34.4,17,34.6,17z"/>
	<rect x="32.8" y="18.6" transform="matrix(0.7071 -0.7071 0.7071 0.7071 -3.0976 31.2999)" width="6.8" height="1.5"/>
	<path d="M38,20.3c-0.5,0-1.1,0.4-1.1,1.1s0.4,1.1,1.1,1.1c0.5,0,1.1-0.4,1.1-1.1S38.5,20.3,38,20.3z M38,21.8
		c-0.2,0-0.4-0.2-0.4-0.4c0-0.2,0.2-0.4,0.4-0.4c0.2,0,0.4,0.1,0.4,0.4C38.4,21.6,38.2,21.8,38,21.8z"/>
</g>
</svg>
