<?xml version="1.0" encoding="utf-8"?>
<!-- Generator: Adobe Illustrator 21.0.0, SVG Export Plug-In . SVG Version: 6.00 Build 0)  -->
<svg version="1.1" id="Layer_1" xmlns="http://www.w3.org/2000/svg" xmlns:xlink="http://www.w3.org/1999/xlink" x="0px" y="0px"
	 viewBox="0 0 22 21.2" style="enable-background:new 0 0 22 21.2;" xml:space="preserve">
<title>wireless</title>
<desc>Created with Sketch.</desc>
<g>
	<g transform="translate(-372.000000, -204.000000)">
		<path d="M383,220c0.6,0,1-0.4,1-1s-0.4-1-1-1s-1,0.4-1,1S382.4,220,383,220z M383,221c-1.1,0-2-0.9-2-2s0.9-2,2-2s2,0.9,2,2
			S384.1,221,383,221z M387.4,214.8l-0.8,0.6c-0.8-1.2-2.2-1.8-3.6-1.8c-1.4,0-2.8,0.7-3.6,1.8l-0.8-0.6c1-1.4,2.7-2.2,4.4-2.2
			C384.8,212.5,386.4,213.3,387.4,214.8z M390.9,212.7l-0.8,0.6c-1.6-2.3-4.2-3.8-7.1-3.8c-2.9,0-5.5,1.4-7.1,3.8l-0.8-0.6
			c1.7-2.6,4.7-4.2,7.9-4.2C386.2,208.5,389.2,210.1,390.9,212.7z M393.6,209.6l-0.8,0.6c-2.4-3-5.9-4.7-9.8-4.7
			c-3.9,0-7.4,1.8-9.8,4.7l-0.8-0.6c2.5-3.2,6.4-5.1,10.6-5.1C387.2,204.5,391,206.4,393.6,209.6z"/>
	</g>
</g>
</svg>
