<?xml version="1.0" encoding="utf-8"?>
<!-- Generator: Adobe Illustrator 21.0.0, SVG Export Plug-In . SVG Version: 6.00 Build 0)  -->
<svg version="1.1" id="Layer_1" xmlns="http://www.w3.org/2000/svg" xmlns:xlink="http://www.w3.org/1999/xlink" x="0px" y="0px"
	 viewBox="0 0 22 21.2" style="enable-background:new 0 0 22 21.2;" xml:space="preserve">
<title>wireless</title>
<desc>Created with Sketch.</desc>
<g>
	<g transform="translate(-372.000000, -204.000000)">
		<path d="M383.9,220.1c0.5,0,0.9-0.3,0.9-0.9s-0.3-0.9-0.9-0.9s-0.9,0.3-0.9,0.9S383.4,220.1,383.9,220.1z M383.9,221
			c-1,0-1.7-0.8-1.7-1.7c0-1,0.8-1.7,1.7-1.7s1.7,0.8,1.7,1.7C385.7,220.2,384.9,221,383.9,221z M387.7,215.6l-0.7,0.5
			c-0.7-1-1.9-1.6-3.1-1.6s-2.4,0.6-3.1,1.6l-0.7-0.5c0.9-1.2,2.3-1.9,3.8-1.9C385.5,213.6,386.9,214.3,387.7,215.6z M390.8,213.8
			l-0.7,0.5c-1.4-2-3.7-3.3-6.2-3.3c-2.5,0-4.8,1.2-6.2,3.3l-0.7-0.5c1.5-2.3,4.1-3.7,6.9-3.7C386.7,210.1,389.3,211.5,390.8,213.8z
			 M393.1,211.1l-0.7,0.5c-2.1-2.6-5.1-4.1-8.5-4.1c-3.4,0-6.4,1.6-8.5,4.1l-0.7-0.5c2.2-2.8,5.6-4.4,9.2-4.4
			C387.6,206.7,390.9,208.3,393.1,211.1z"/>
	</g>
</g>
</svg>
