<svg xmlns="http://www.w3.org/2000/svg" viewBox="-22.093341053737532 -22.093341053737532 144.18668210747506 154.6533873761627" xmlns:xlink="http://www.w3.org/1999/xlink" version="1.1"  ><rect width="100%" height="100%" x="-22.093341053737532" y="-22.093341053737532" fill="#FFFFFF" ></rect><g transform="translate(-33.593708806338284 -25.516559363789224) scale(1.5998031492218732)" id="containerlessSvgTemplate"><g fill="#000000"><path d="M80.978 85H69.559a2.53 2.53 0 0 1 0-5.058h7.126L52.361 36.04 27.839 79.941h7.381a2.53 2.53 0 0 1 0 5.058H23.529a2.527 2.527 0 0 1-2.208-3.762l28.84-51.634a2.53 2.53 0 0 1 2.208-1.296h.005c.918.002 1.762.5 2.207 1.304L83.19 81.245A2.53 2.53 0 0 1 80.978 85zM48.552 25.963a2.528 2.528 0 0 1-2.219-1.312l-2.721-4.952a2.529 2.529 0 1 1 4.434-2.436l2.721 4.952a2.529 2.529 0 0 1-2.215 3.748z"></path><path d="M60.916 84.857a2.53 2.53 0 0 1-2.529-2.529 6.14 6.14 0 0 0-6.133-6.133 6.14 6.14 0 0 0-6.133 6.133 2.53 2.53 0 0 1-5.058 0c0-6.171 5.02-11.192 11.192-11.192s11.192 5.02 11.192 11.192a2.532 2.532 0 0 1-2.531 2.529z"></path><g><path d="M57.207 25.963a2.529 2.529 0 0 1-2.214-3.748l2.721-4.952a2.525 2.525 0 0 1 3.435-.999 2.529 2.529 0 0 1 .999 3.435l-2.721 4.952a2.533 2.533 0 0 1-2.22 1.312z"></path></g></g></g></svg>